<svg width="61" height="61" viewBox="0 0 61 61" fill="none" xmlns="http://www.w3.org/2000/svg">
<rect x="0.5" y="0.5" width="60" height="60" rx="7.81818" fill="white" stroke="#FAFAFA"/>
<path d="M54.6304 18.2737C54.198 17.0342 53.0162 16.1406 51.6326 16.1406H51.6037C50.7102 16.1406 49.8742 16.5154 49.2977 17.1207C48.7212 16.5154 47.9141 16.1406 46.9917 16.1406H46.9629C46.1558 16.1406 45.4352 16.4289 44.8875 16.9189V16.6883C44.8587 16.4577 44.6569 16.2559 44.4263 16.2559H42.2932C42.0338 16.2559 41.832 16.4577 41.832 16.7171V28.3048C41.832 28.5642 42.0338 28.766 42.2932 28.766H44.4263C44.6569 28.766 44.8587 28.5931 44.8875 28.3625V20.0608C44.8875 20.032 44.8875 20.0032 44.8875 19.9744C44.9163 19.5996 45.2046 19.3114 45.6369 19.2537H45.7234H45.954H46.0405C46.2134 19.2826 46.3576 19.3402 46.5017 19.4267C46.6746 19.5708 46.7899 19.8014 46.7899 20.0608V28.3336C46.7899 28.5931 46.9917 28.7948 47.2511 28.7948H49.3842C49.6436 28.7948 49.8454 28.5931 49.8454 28.3336V20.032C49.8454 19.7438 49.9607 19.5132 50.1913 19.369C50.3066 19.3114 50.4219 19.2537 50.5949 19.2249H50.6813H50.9119H50.9984C51.4596 19.2537 51.7479 19.6285 51.7479 20.032V28.3048C51.7479 28.5642 51.9496 28.766 52.2091 28.766H54.3421C54.6015 28.766 54.8033 28.5642 54.8033 28.3048V19.3979C54.7745 18.7925 54.7168 18.5331 54.6304 18.2737Z" fill="#00BAF2"/>
<path d="M40.1909 16.2558H38.9803V14.2957C38.9803 14.0651 38.7785 13.8633 38.5479 13.8633C38.5191 13.8633 38.4902 13.8633 38.4614 13.8633C37.1066 14.238 37.3661 16.1116 34.9159 16.2558H34.8583H34.6853C34.6565 16.2558 34.6277 16.2558 34.57 16.2558C34.3683 16.3134 34.1953 16.4864 34.1953 16.717V18.85C34.1953 19.1094 34.3971 19.3112 34.6565 19.3112H35.9536V28.3623C35.9536 28.6217 36.1554 28.8235 36.4148 28.8235H38.5191C38.7785 28.8235 38.9803 28.6217 38.9803 28.3623V19.3112H40.1621C40.4215 19.3112 40.6233 19.1094 40.6233 18.85V16.717C40.6521 16.4864 40.4504 16.2558 40.1909 16.2558Z" fill="#00BAF2"/>
<path d="M32.5252 16.2554H30.3921C30.1327 16.2554 29.9309 16.4571 29.9309 16.7166V21.1268C29.9309 21.3862 29.7003 21.6168 29.4409 21.6168H28.5473C28.2591 21.6168 28.0573 21.3862 28.0573 21.1268V16.7166C28.0573 16.4571 27.8555 16.2554 27.5961 16.2554H25.463C25.2036 16.2554 25.0018 16.4571 25.0018 16.7166V21.5592C24.9442 23.404 26.2413 24.7011 28.0861 24.7011C28.0861 24.7011 29.4697 24.7011 29.4986 24.7011C29.758 24.7299 29.9309 24.9317 29.9309 25.1911C29.9309 25.4506 29.7292 25.6523 29.4986 25.6812H29.4697H26.3566C26.0972 25.6812 25.8954 25.8829 25.8954 26.1424V28.2754C25.8954 28.5349 26.0972 28.7366 26.3566 28.7366H29.8445C31.6893 28.7366 32.9864 27.4395 32.9864 25.5947V16.6589C32.9864 16.486 32.7846 16.2554 32.5252 16.2554Z" fill="#002970"/>
<path d="M12.0605 16.2554H7.39089C7.13146 16.2554 6.92969 16.4571 6.92969 16.7166V18.8208C6.92969 18.8496 6.92969 18.8496 6.92969 18.8496V25.5659V28.3331C6.92969 28.5925 7.13146 28.7943 7.36206 28.7943H7.39089H9.52394C9.78337 28.7943 9.98514 28.5925 9.98514 28.3331V25.1047H12.0317C13.7324 25.1047 14.9431 23.9228 14.9431 22.1933V19.1667C14.9431 17.4372 13.7612 16.2554 12.0605 16.2554ZM11.8588 20.1756V21.1845V21.5015C11.8588 21.7898 11.6282 21.9916 11.3687 21.9916H10.014V19.3397H11.3687C11.657 19.3397 11.8588 19.5703 11.8588 19.8297V20.1756Z" fill="#002970"/>
<path d="M20.3908 16.2847H17.4219C17.1624 16.2847 16.9607 16.4864 16.9607 16.717V17.553V17.5818V18.7348C16.9607 18.9942 17.1913 19.196 17.4507 19.196H20.2755C20.5061 19.2248 20.6791 19.3978 20.7079 19.6572V19.9455C20.6791 20.1761 20.5061 20.3778 20.3044 20.3778H18.9208C17.076 20.3778 15.75 21.6173 15.75 23.3468V25.7681V25.8258C15.75 27.5553 16.8742 28.7659 18.719 28.7659H22.5815C23.2733 28.7659 23.8498 28.2471 23.8498 27.5841V19.4843C23.821 17.5241 22.7833 16.2847 20.3908 16.2847ZM20.7079 25.1916V25.5375C20.7079 25.5663 20.7079 25.5952 20.7079 25.624C20.7079 25.6528 20.7079 25.6816 20.6791 25.6816C20.6214 25.8546 20.4197 25.9987 20.2179 25.9987H19.3243C19.0361 25.9987 18.8343 25.7969 18.8343 25.5375V25.134V25.1051V24.0386V23.9233V23.6927C18.8343 23.4333 19.0649 23.2315 19.3243 23.2315H20.2179C20.5061 23.2315 20.7079 23.4333 20.7079 23.6927V25.1916Z" fill="#002970"/>
<path d="M23.1163 48.32L22.6263 46.7634H22.5398C21.9921 47.4552 21.4444 47.9164 20.8967 48.147C20.3491 48.3776 19.6573 48.5218 18.7925 48.5218C17.6972 48.5218 16.8324 48.2335 16.2271 47.6282C15.6218 47.0229 15.3047 46.1869 15.3047 45.0916C15.3047 43.9386 15.7371 43.0738 16.6018 42.4685C17.4666 41.8632 18.7637 41.5461 20.522 41.5173L22.4533 41.4596V40.8543C22.4533 40.1337 22.2804 39.6148 21.9633 39.2401C21.6462 38.8654 21.0985 38.7213 20.4067 38.7213C19.8302 38.7213 19.2825 38.8077 18.7637 38.9807C18.2448 39.1536 17.726 39.3554 17.236 39.586L16.4577 37.8853C17.063 37.5682 17.726 37.3376 18.4466 37.1647C19.1672 36.9917 19.859 36.9053 20.4932 36.9053C21.9056 36.9053 23.001 37.2223 23.7216 37.8277C24.4422 38.4618 24.817 39.4131 24.817 40.7678V48.32H23.1163ZM19.5708 46.7058C20.4356 46.7058 21.1274 46.4752 21.6462 45.9852C22.1651 45.4951 22.4245 44.8322 22.4245 43.9674V42.9874L20.9832 43.045C19.859 43.0738 19.0519 43.2756 18.5331 43.6215C18.0142 43.9674 17.7548 44.4574 17.7548 45.1492C17.7548 45.6393 17.8989 46.0428 18.1872 46.3022C18.4754 46.5617 18.9655 46.7058 19.5708 46.7058Z" fill="#00BAF2"/>
<path d="M30.8702 48.5218C29.4578 48.5218 28.3913 48.003 27.5842 46.9941C26.7771 45.9852 26.4023 44.5728 26.4023 42.728C26.4023 40.8832 26.8059 39.4707 27.5842 38.433C28.3624 37.3953 29.4866 36.9053 30.8702 36.9053C32.3403 36.9053 33.4645 37.453 34.2428 38.5483H34.3581C34.2428 37.7412 34.1851 37.1071 34.1851 36.6459V32.5527H36.5776V48.32H34.704L34.3004 46.85H34.2428C33.4645 47.9741 32.3691 48.5218 30.8702 48.5218ZM31.5332 46.5905C32.5133 46.5905 33.2339 46.3023 33.6663 45.7546C34.0986 45.2069 34.3292 44.3134 34.3581 43.0739V42.728C34.3581 41.3156 34.1275 40.3067 33.6663 39.7302C33.2051 39.1248 32.4844 38.8366 31.5044 38.8366C30.6685 38.8366 30.0343 39.1825 29.5731 39.8455C29.1119 40.5085 28.8813 41.4885 28.8813 42.7568C28.8813 43.9963 29.1119 44.9475 29.5443 45.6105C29.9766 46.2735 30.6396 46.5905 31.5332 46.5905Z" fill="#00BAF2"/>
<path d="M46.5213 45.1204C46.5213 46.2158 46.1178 47.0517 45.3395 47.6282C44.5324 48.2047 43.4082 48.493 41.9093 48.493C40.4104 48.493 39.2286 48.2624 38.3062 47.8012V45.7546C39.6321 46.3599 40.8428 46.677 41.9958 46.677C43.4659 46.677 44.1865 46.2446 44.1865 45.3511C44.1865 45.0628 44.1 44.8322 43.9559 44.6304C43.7829 44.4286 43.5235 44.2557 43.1488 44.0539C42.7741 43.8521 42.2552 43.6215 41.5922 43.3621C40.2951 42.8721 39.4303 42.3532 38.9691 41.8632C38.5079 41.3732 38.2773 40.7102 38.2773 39.9031C38.2773 38.9519 38.6521 38.2024 39.4303 37.6548C40.2086 37.1359 41.2463 36.8477 42.6011 36.8477C43.9271 36.8477 45.1665 37.1071 46.3484 37.6548L45.5701 39.4419C44.3594 38.9519 43.3506 38.6925 42.5146 38.6925C41.2463 38.6925 40.641 39.0384 40.641 39.759C40.641 40.1049 40.8139 40.3931 41.131 40.6526C41.4481 40.912 42.1687 41.2291 43.2641 41.6614C44.1865 42.0073 44.8495 42.3532 45.2818 42.6415C45.7142 42.9297 46.0025 43.2756 46.2042 43.6792C46.4348 44.1116 46.5213 44.6016 46.5213 45.1204Z" fill="#00BAF2"/>
</svg>
