<svg width="237" height="59" viewBox="0 0 237 59" fill="none" xmlns="http://www.w3.org/2000/svg">
<path d="M148.901 5.44783C148.348 3.89872 146.873 2.8291 145.176 2.8291H145.139C144.069 2.8291 143.037 3.2717 142.299 4.04626C141.561 3.2717 140.529 2.8291 139.459 2.8291H139.422C138.463 2.8291 137.578 3.16105 136.84 3.78807V3.493C136.803 3.19794 136.582 2.93975 136.25 2.93975H133.668C133.336 2.93975 133.078 3.19794 133.078 3.52989V17.8407C133.078 18.1726 133.336 18.4308 133.668 18.4308H136.287C136.582 18.4308 136.84 18.2095 136.877 17.9144V7.66083C136.877 7.62395 136.877 7.58707 136.877 7.55018C136.914 7.0707 137.32 6.70186 137.799 6.66498H138.279C138.463 6.66498 138.684 6.73875 138.832 6.88628C139.053 7.0707 139.201 7.36577 139.201 7.66083V17.8776C139.201 18.2095 139.459 18.4677 139.791 18.4677H142.41C142.705 18.4677 142.963 18.2095 143 17.9144V7.66083C143 7.32888 143.147 7.03382 143.442 6.8494C143.59 6.73875 143.737 6.70186 143.922 6.70186H144.401C144.918 6.73875 145.323 7.18135 145.323 7.69772V17.9144C145.323 18.2464 145.582 18.5046 145.914 18.5046H148.532C148.864 18.5046 149.122 18.2464 149.122 17.9144V6.8494C149.122 6.36991 149.049 5.92731 148.901 5.44783Z" fill="#00BAF2"/>
<path d="M131.082 2.98756H129.569V0.553252C129.569 0.258184 129.311 0 129.016 0C128.979 0 128.942 0 128.905 0C127.246 0.479485 127.614 2.76626 124.553 2.98756H124.258C124.221 2.98756 124.184 2.98756 124.147 2.98756C123.852 3.06133 123.668 3.28263 123.668 3.5777V6.19642C123.668 6.52837 123.926 6.78656 124.258 6.78656H125.844V17.9622C125.844 18.2942 126.102 18.5524 126.434 18.5524H129.053C129.385 18.5524 129.643 18.2942 129.643 17.9622V6.78656H131.118C131.45 6.78656 131.709 6.52837 131.709 6.19642V3.5777C131.672 3.24574 131.377 2.98756 131.082 2.98756Z" fill="#00BAF2"/>
<path d="M121.597 2.98096H118.979C118.647 2.98096 118.389 3.23914 118.389 3.57109V9.02984C118.389 9.36179 118.094 9.61998 117.762 9.61998H116.655C116.323 9.61998 116.028 9.32491 116.028 8.99296V3.57109C116.028 3.23914 115.77 2.98096 115.438 2.98096H112.819C112.487 2.98096 112.229 3.23914 112.229 3.57109V9.54621C112.155 11.6117 113.741 13.3452 115.807 13.419C115.917 13.419 115.991 13.419 116.102 13.419C116.102 13.419 117.798 13.419 117.872 13.419C118.204 13.4559 118.462 13.7509 118.425 14.0829C118.389 14.3779 118.167 14.5992 117.909 14.6361H117.872H114.036C113.704 14.6361 113.446 14.8943 113.446 15.2263V17.845C113.446 18.1769 113.704 18.4351 114.036 18.4351H118.352C120.417 18.5089 122.151 16.9229 122.224 14.8574C122.224 14.7468 122.224 14.673 122.224 14.5624V3.57109C122.188 3.23914 121.929 2.98096 121.597 2.98096Z" fill="#002970"/>
<path d="M96.344 2.97998H90.5533C90.2582 2.97998 90 3.23816 90 3.53323V6.11507V6.15196V17.844C90 18.1391 90.2213 18.3973 90.5164 18.4341H93.2089C93.5408 18.4341 93.799 18.176 93.799 17.844V13.8237H96.3071C98.1881 13.8975 99.811 12.459 99.8848 10.578C99.8848 10.4673 99.8848 10.3567 99.8848 10.246V6.55768C99.9954 4.67662 98.557 3.05375 96.639 2.97998C96.5284 2.97998 96.4546 2.97998 96.344 2.97998ZM96.0858 7.81171V9.43459C96.0858 9.76654 95.8276 10.0616 95.4588 10.0616H93.799V6.81586H95.4588C95.7907 6.81586 96.0858 7.11093 96.0858 7.44288V7.81171Z" fill="#002970"/>
<path d="M106.627 2.99512H102.938C102.643 2.99512 102.385 3.21642 102.385 3.54837V4.58111V4.61799V6.01956C102.385 6.35151 102.68 6.6097 103.012 6.6097H106.479C106.774 6.64658 106.995 6.86788 106.995 7.16295V7.4949C106.995 7.78997 106.774 8.01127 106.479 8.04815H104.746C102.459 8.01127 100.836 9.56037 100.836 11.6996V14.7609C100.836 16.9002 102.238 18.4124 104.524 18.4124H109.319C110.131 18.4493 110.831 17.7854 110.868 16.9739V6.94165C110.831 4.50734 109.614 2.99512 106.627 2.99512ZM107.032 13.9864V14.3921C107.032 14.429 107.032 14.4659 107.032 14.5028C107.032 14.5396 107.032 14.5765 106.995 14.5765C106.885 14.8347 106.664 14.9822 106.405 14.9822H105.299C104.967 14.9822 104.672 14.7241 104.672 14.3921V13.9126V12.5848V12.1791C104.672 11.8471 104.967 11.589 105.299 11.589H106.405C106.737 11.589 107.032 11.8471 107.032 12.1791V13.9864Z" fill="#002970"/>
<rect y="23.3965" width="237" height="35.6034" rx="17.5" fill="#D3EEFB"/>
<path d="M188.686 34.8945H193.554C196.431 34.8945 197.722 36.3699 196.726 38.8779V38.9148C195.657 41.6073 193.038 43.0089 190.235 43.0089H188.649L187.358 46.2546H184.223L188.686 34.8945ZM191.12 40.5746C192.153 40.6115 193.112 40.0213 193.517 39.0992V39.0624C193.886 38.1034 193.407 37.5501 192.3 37.5501H190.825L189.608 40.5746H191.12Z" fill="#00BAF2"/>
<path d="M197.795 40.6121C199.086 37.3294 202.774 34.6738 206.278 34.6738C209.782 34.6738 211.368 37.2926 210.077 40.5752V40.6121C208.786 43.8947 205.135 46.5134 201.594 46.5134C198.053 46.5134 196.541 43.8947 197.795 40.6121ZM206.831 40.6121C207.495 38.9523 206.868 37.5139 205.135 37.5139C203.401 37.5139 201.704 38.9154 201.077 40.5383V40.5752C200.45 42.2349 201.04 43.6365 202.774 43.6365C204.508 43.6734 206.204 42.2718 206.831 40.6121Z" fill="#00BAF2"/>
<path d="M210.117 44.5955L212.699 42.4931C213.474 43.4152 214.654 43.8947 215.871 43.8578C216.719 43.8578 217.273 43.5627 217.494 43.0833V43.0464C217.678 42.5669 217.42 42.3087 216.019 41.9399C213.806 41.3866 212.22 40.6858 213.142 38.3622V38.3253C213.953 36.2229 216.24 34.6738 218.969 34.6738C220.887 34.6738 222.215 35.1902 223.063 36.186L220.629 38.3991C219.891 37.6983 218.895 37.2926 217.9 37.2926C217.125 37.2926 216.646 37.6245 216.461 38.0302V38.0671C216.24 38.5835 216.572 38.8048 218.01 39.1736C220.408 39.7269 221.699 40.5752 220.85 42.7144V42.7513C219.854 45.1118 217.457 46.4765 214.691 46.4765C212.699 46.4765 211.002 45.8495 210.117 44.5955Z" fill="#00BAF2"/>
<path d="M22.479 34.7417H24.9134L25.3191 46.36H22.7003L22.6635 43.7781H17.7948L15.7294 46.36H13L22.479 34.7417ZM22.6266 41.5283L22.5897 37.7293L19.6021 41.5283H22.6266Z" fill="#002970"/>
<path d="M31.7459 34.8237H34.2908L30.6763 44.0446H34.3646L33.4425 46.3314H27.2461L31.7459 34.8237Z" fill="#002970"/>
<path d="M40.0193 34.8237H42.5643L38.9497 44.0446H42.638L41.716 46.3314H35.5195L40.0193 34.8237Z" fill="#002970"/>
<path d="M52.5779 34.8237H55.1229L50.6231 46.3314H48.0781L52.5779 34.8237Z" fill="#002970"/>
<path d="M59.0271 34.8237H61.3508L63.822 42.1635L66.6989 34.8237H69.207L64.7072 46.3314H62.5679L59.9861 38.7703L57.0354 46.3314H54.5273L59.0271 34.8237Z" fill="#002970"/>
<path d="M73.6679 41.4504C74.1105 37.9833 77.3194 34.627 81.4503 34.627C84.6223 34.627 86.4664 36.84 86.0976 39.7169C85.6919 43.147 82.483 46.5403 78.3521 46.5403C75.1432 46.5403 73.3359 44.3273 73.6679 41.4504ZM83.442 39.9013C83.6633 38.2046 82.7781 36.9875 80.8602 36.9875C78.4259 36.9506 76.5817 39.2743 76.3235 41.266C76.1022 42.9626 76.9874 44.1798 78.9053 44.1798C81.3028 44.2167 83.1838 41.893 83.442 39.9013Z" fill="#002970"/>
<path d="M90.6248 34.8242H92.9484L95.4196 42.164L98.2965 34.8242H100.805L96.3048 46.3319H94.1656L91.5838 38.7707L88.6331 46.3319H86.125L90.6248 34.8242Z" fill="#002970"/>
<path d="M103.832 34.8237H112.426L111.54 37.0736H105.455L104.533 39.4342H109.881L108.995 41.6472H103.684L102.725 44.0815H108.922L108.037 46.3314H99.332L103.832 34.8237Z" fill="#002970"/>
<path d="M46.3055 40.9409H44.2031L44.9777 39.0229H47.08L46.3055 40.9409Z" fill="#002970"/>
<path d="M71.3602 40.9409H69.2578L70.0324 39.0229H72.1347L71.3602 40.9409Z" fill="#002970"/>
<path d="M173.901 37.7826H170.699L171.745 35H181.221L180.175 37.7826H176.973L173.771 46.4783H170.765L173.901 37.7826Z" fill="#00BAF2"/>
<path d="M115.223 44.5877L117.696 42.5621C118.432 43.4399 119.501 43.9125 120.772 43.9125C121.574 43.9125 122.175 43.6425 122.309 43.1698C122.51 42.6972 122.242 42.4271 120.838 42.0895C118.699 41.5494 117.161 40.8742 118.031 38.5785C118.833 36.4854 121.039 35 123.713 35C125.585 35 126.855 35.5402 127.657 36.4854L125.251 38.646C124.515 37.9033 123.579 37.5657 122.577 37.5657C121.841 37.5657 121.373 37.9033 121.173 38.3084C120.972 38.8486 121.239 39.0512 122.643 39.3887C124.983 39.9289 126.187 40.8067 125.384 42.8322C124.515 45.1279 122.175 46.4783 119.501 46.4783C117.696 46.4107 116.092 45.8031 115.223 44.5877Z" fill="#00BAF2"/>
<path d="M159.86 35H165.366C167.109 35 168.155 35.488 168.643 36.2547C169.061 36.9518 169.061 37.7883 168.643 38.9733C167.946 40.6462 166.551 41.9706 164.878 42.5283L166.063 46.5712H162.369L161.393 43.0859H159.999L158.605 46.5712H155.398L159.86 35ZM163.066 40.5765C164.042 40.6462 164.948 40.0885 165.297 39.1824C165.645 38.2762 165.157 37.7882 164.112 37.7882H162.021L160.905 40.5765H163.066Z" fill="#00BAF2"/>
<path d="M150.565 35H154.031L154.438 46.4783H151.809L151.772 43.9275H146.883L144.809 46.4783H141.047L150.565 35ZM151.735 41.7048L151.698 37.9516L148.698 41.7048H151.735Z" fill="#00BAF2"/>
<path d="M130.234 35L127.656 46.4783H130.59L132.413 39.7976H132.499L133.171 46.3886H134.926L139.164 39.8424H139.25L137.449 46.4783H140.383L142.961 35H139.229L134.882 41.5014H134.753L133.966 35H130.234Z" fill="#00BAF2"/>
</svg>
