<svg width="176" height="30" viewBox="0 0 176 30" fill="none" xmlns="http://www.w3.org/2000/svg">
<path d="M93.9862 8.72498C93.555 7.49606 92.7529 6.43131 91.6907 5.67774C90.6285 4.92418 89.3585 4.51897 88.0562 4.51807H87.9957C87.1488 4.51759 86.3105 4.68878 85.5315 5.02128C84.7526 5.35379 84.0491 5.84073 83.4636 6.45268C82.8791 5.84057 82.1764 5.35348 81.3981 5.02094C80.6199 4.6884 79.7822 4.51732 78.9358 4.51807H78.879C77.375 4.51639 75.9209 5.05756 74.784 6.04212V5.56136C74.7676 5.32812 74.6634 5.10977 74.4924 4.9503C74.3214 4.79084 74.0963 4.70212 73.8625 4.70202H69.66C69.4137 4.70226 69.1776 4.80015 69.0033 4.97422C68.8291 5.1483 68.7309 5.38437 68.7305 5.63067V28.455C68.73 28.5774 68.7537 28.6986 68.8002 28.8118C68.8467 28.925 68.9151 29.0279 69.0015 29.1146C69.0878 29.2013 69.1905 29.2701 69.3035 29.317C69.4165 29.3639 69.5376 29.3881 69.66 29.3881H73.8625C74.0861 29.3882 74.3022 29.3072 74.4707 29.1601C74.6392 29.0131 74.7486 28.8099 74.7787 28.5883V12.2041C74.7787 12.149 74.7787 12.0939 74.7867 12.0388C74.8157 11.6685 74.9786 11.3214 75.2451 11.0626C75.5116 10.8038 75.8633 10.651 76.2343 10.6329H77.011C77.3351 10.6541 77.6451 10.7735 77.8997 10.9751C78.0817 11.1233 78.2277 11.3109 78.3265 11.5238C78.4254 11.7368 78.4745 11.9694 78.4702 12.2041L78.4835 28.5074C78.4842 28.7543 78.5829 28.9909 78.7578 29.1652C78.9327 29.3395 79.1697 29.4372 79.4166 29.437H83.6191C83.8576 29.4362 84.0867 29.3434 84.2584 29.1778C84.4301 29.0122 84.5312 28.7867 84.5406 28.5483V12.1792C84.5355 11.92 84.5956 11.6637 84.7155 11.4339C84.8354 11.2041 85.0112 11.0081 85.2267 10.864C85.4599 10.7157 85.726 10.6269 86.0016 10.6054H86.7765C87.1762 10.6272 87.5517 10.8038 87.8234 11.0978C88.0951 11.3917 88.2417 11.7799 88.2321 12.1801L88.249 28.4603C88.2485 28.5826 88.2722 28.7038 88.3186 28.8169C88.3651 28.9301 88.4334 29.0329 88.5197 29.1196C88.6059 29.2063 88.7085 29.2751 88.8214 29.3221C88.9343 29.3691 89.0553 29.3933 89.1776 29.3934H93.3792C93.5016 29.3933 93.6228 29.3691 93.7359 29.3221C93.849 29.2752 93.9517 29.2064 94.0381 29.1198C94.1246 29.0331 94.1932 28.9303 94.2399 28.8171C94.2867 28.704 94.3107 28.5827 94.3105 28.4603V10.9537C94.3465 10.1996 94.2382 9.44559 93.9915 8.73209" fill="#00B2F1"/>
<path d="M65.5324 4.76225H63.133V0.852145C63.1367 0.725907 63.1114 0.600507 63.0591 0.485534C63.0069 0.370561 62.929 0.269063 62.8315 0.188797C62.734 0.108531 62.6195 0.0516243 62.4966 0.0224308C62.3737 -0.00676263 62.2458 -0.00746824 62.1226 0.0203629C59.4566 0.75173 59.9898 4.44322 55.1289 4.7587H54.6525C54.5841 4.75951 54.5159 4.76725 54.4491 4.78179C54.2437 4.82856 54.0603 4.94374 53.929 5.10845C53.7977 5.27316 53.7264 5.4776 53.7266 5.68823V9.88714C53.7261 10.0094 53.7498 10.1306 53.7962 10.2438C53.8427 10.3569 53.911 10.4597 53.9973 10.5464C54.0835 10.6331 54.186 10.7019 54.2989 10.7489C54.4119 10.7959 54.5329 10.8201 54.6552 10.8202H57.1923V28.6387C57.1921 28.7596 57.2157 28.8793 57.2619 28.991C57.308 29.1027 57.3758 29.2042 57.4612 29.2896C57.5467 29.3751 57.6481 29.4428 57.7598 29.489C57.8715 29.5351 57.9913 29.5587 58.1121 29.5585H62.2657C62.3863 29.5584 62.5057 29.5345 62.617 29.4882C62.7283 29.4419 62.8294 29.3741 62.9145 29.2886C62.9996 29.2032 63.0671 29.1018 63.1129 28.9903C63.1588 28.8788 63.1823 28.7593 63.1819 28.6387V10.8202H65.536C65.6582 10.82 65.7791 10.7957 65.892 10.7486C66.0048 10.7016 66.1072 10.6328 66.1934 10.5461C66.2795 10.4594 66.3478 10.3566 66.3942 10.2435C66.4405 10.1305 66.4642 10.0094 66.4637 9.88714V5.68823C66.4641 5.56621 66.4403 5.44533 66.3939 5.33251C66.3474 5.21969 66.2791 5.11716 66.1929 5.03079C66.1067 4.94443 66.0043 4.87594 65.8915 4.82925C65.7788 4.78255 65.658 4.75858 65.536 4.7587" fill="#00B2F1"/>
<path d="M50.4079 4.76301H46.2073C46.085 4.76278 45.964 4.78665 45.851 4.83325C45.738 4.87986 45.6353 4.9483 45.5488 5.03464C45.4623 5.12098 45.3937 5.22353 45.3469 5.33642C45.3 5.44931 45.2759 5.57033 45.2759 5.69255V14.3801C45.2722 14.6376 45.1679 14.8835 44.9852 15.065C44.8025 15.2465 44.556 15.3493 44.2984 15.3514H42.5326C42.2709 15.3509 42.02 15.2466 41.835 15.0613C41.6501 14.8761 41.5462 14.625 41.5462 14.3632L41.5311 5.69077C41.5314 5.56871 41.5075 5.44781 41.4609 5.33498C41.4144 5.22216 41.346 5.11963 41.2597 5.03328C41.1734 4.94693 41.071 4.87845 40.9582 4.83177C40.8454 4.78509 40.7245 4.76111 40.6025 4.76123H36.3973C36.2754 4.76123 36.1546 4.78529 36.0419 4.83203C35.9292 4.87876 35.8269 4.94726 35.7407 5.03359C35.6545 5.11993 35.5862 5.22242 35.5397 5.33519C35.4932 5.44795 35.4693 5.56879 35.4696 5.69077V15.2154C35.4368 16.0381 35.5747 16.8587 35.8746 17.6255C36.1745 18.3922 36.6299 19.0886 37.2122 19.6707C37.7945 20.2528 38.491 20.708 39.2578 21.0077C40.0247 21.3074 40.8453 21.4451 41.668 21.412C41.668 21.412 44.3855 21.412 44.469 21.4272C44.7104 21.4497 44.9348 21.561 45.0986 21.7396C45.2625 21.9182 45.3541 22.1514 45.3558 22.3938C45.3575 22.6361 45.269 22.8705 45.1076 23.0514C44.9462 23.2322 44.7234 23.3466 44.4824 23.3724C44.461 23.3724 44.4406 23.3804 44.4139 23.384L38.2671 23.4071C38.1449 23.407 38.0239 23.4309 37.911 23.4776C37.798 23.5242 37.6954 23.5927 37.6089 23.679C37.5224 23.7653 37.4538 23.8678 37.4069 23.9806C37.3601 24.0935 37.3359 24.2144 37.3358 24.3366V28.5391C37.3367 28.7856 37.4352 29.0218 37.6097 29.196C37.7842 29.3701 38.0205 29.4682 38.2671 29.4686H45.1364C45.9594 29.5018 46.7803 29.3642 47.5474 29.0645C48.3145 28.7647 49.0113 28.3094 49.5938 27.7271C50.1762 27.1448 50.6318 26.4481 50.9317 25.6811C51.2317 24.914 51.3695 24.0932 51.3366 23.2702V5.69255C51.3368 5.57042 51.313 5.44944 51.2663 5.33656C51.2197 5.22367 51.1512 5.12111 51.0649 5.03475C50.9785 4.94838 50.8759 4.87992 50.763 4.83329C50.6502 4.78666 50.5292 4.76278 50.4071 4.76301" fill="#0C2756"/>
<path d="M10.0992 4.76479H0.912205C0.792554 4.76455 0.674034 4.78792 0.563425 4.83354C0.452815 4.87917 0.352291 4.94616 0.267603 5.03068C0.182914 5.11521 0.115722 5.2156 0.0698794 5.32613C0.0240371 5.43665 0.000445843 5.55512 0.000446072 5.67477V9.79015V9.80881V9.87369V28.5107C-0.00693862 28.7461 0.077607 28.9751 0.236184 29.1493C0.394762 29.3235 0.61491 29.4291 0.849999 29.4437H5.13245C5.25519 29.4443 5.37684 29.4206 5.49036 29.3739C5.60388 29.3273 5.70704 29.2586 5.79387 29.1718C5.8807 29.0851 5.9495 28.982 5.99628 28.8685C6.04306 28.755 6.0669 28.6334 6.06643 28.5107L6.08154 22.123H10.1018C10.8619 22.1599 11.6213 22.0375 12.3312 21.7634C13.0411 21.4894 13.6858 21.0699 14.2239 20.5318C14.7619 19.9937 15.1815 19.349 15.4555 18.6391C15.7295 17.9292 15.852 17.1698 15.815 16.4098V10.4815C15.8515 9.72139 15.7288 8.962 15.4546 8.25207C15.1805 7.54214 14.761 6.89734 14.2231 6.35901C13.6852 5.82068 13.0407 5.4007 12.331 5.12601C11.6213 4.85132 10.862 4.72798 10.1018 4.7639L10.0992 4.76479ZM9.73304 12.4615V15.0572C9.73257 15.3182 9.62868 15.5684 9.44413 15.753C9.25957 15.9375 9.0094 16.0414 8.7484 16.0419H6.08243V10.8432H8.7484C8.87774 10.8431 9.00583 10.8685 9.12535 10.9179C9.24486 10.9674 9.35345 11.0399 9.44491 11.1313C9.53636 11.2228 9.60888 11.3314 9.65832 11.4509C9.70776 11.5704 9.73316 11.6985 9.73304 11.8278V12.4615Z" fill="#0C2756"/>
<path d="M26.5017 4.78604H20.6721C20.4327 4.77836 20.2 4.86574 20.0248 5.02908C19.8497 5.19243 19.7463 5.41847 19.7372 5.65781V7.29029V7.31339V7.35871V9.59902C19.7465 9.85291 19.8561 10.0927 20.0421 10.2659C20.228 10.439 20.4751 10.5312 20.729 10.5223H26.2813C26.5018 10.5513 26.7055 10.6556 26.8579 10.8176C27.0103 10.9795 27.102 11.1892 27.1175 11.411V11.9522C27.1018 12.1683 27.0119 12.3724 26.8631 12.5299C26.7143 12.6874 26.5157 12.7888 26.3009 12.8169H23.5549C19.8972 12.8169 17.2898 15.2456 17.2898 18.6562V23.5439C17.2463 24.3235 17.3689 25.1034 17.6495 25.832C17.9302 26.5607 18.3626 27.2213 18.9179 27.7702C19.4732 28.319 20.1389 28.7436 20.8708 29.0157C21.6026 29.2879 22.384 29.4013 23.163 29.3486H30.7841C31.4188 29.3697 32.036 29.1384 32.5004 28.7053C32.9648 28.2722 33.2386 27.6727 33.2617 27.0381V11.0946C33.2617 7.2263 31.2649 4.78516 26.5017 4.78516V4.78604ZM27.1726 22.3291V22.9849C27.1707 23.0366 27.1645 23.088 27.154 23.1386C27.1448 23.185 27.1326 23.2307 27.1175 23.2755C27.045 23.4645 26.916 23.6266 26.7481 23.7398C26.5802 23.853 26.3816 23.9118 26.1791 23.9082H24.4311C24.1776 23.9164 23.9311 23.8238 23.7456 23.6508C23.5601 23.4778 23.4506 23.2384 23.4411 22.9849V22.1904V22.17V20.0514V19.3867C23.4516 19.1339 23.5614 18.8953 23.7468 18.7231C23.9322 18.5508 24.1782 18.4588 24.4311 18.467H26.1791C26.4334 18.4585 26.6806 18.5511 26.8668 18.7245C27.0529 18.8978 27.1629 19.1378 27.1726 19.392V22.3291Z" fill="#0C2756"/>
<path d="M101.419 10.8959H102.314C103.393 10.962 104.462 10.6645 105.352 10.0508C105.718 9.75621 106.009 9.37887 106.201 8.94984C106.393 8.5208 106.48 8.05233 106.456 7.58298C106.456 5.53462 105.145 4.49756 102.561 4.49756H99.7891V14.7243H101.419V10.8941V10.8959ZM101.419 5.97451H102.432C103.068 5.92506 103.704 6.07176 104.254 6.39485C104.437 6.54195 104.582 6.73182 104.675 6.94781C104.768 7.16379 104.806 7.39929 104.787 7.63364C104.812 7.88934 104.773 8.14732 104.674 8.38424C104.574 8.62117 104.417 8.82957 104.217 8.99062C103.598 9.33287 102.892 9.48437 102.188 9.42606H101.42L101.419 5.97451Z" fill="#00B2F1"/>
<path d="M111.847 14.3465C112.37 14.0834 112.829 13.7077 113.19 13.2463L113.451 14.4967H114.731V7.94901C114.771 7.49779 114.716 7.04318 114.57 6.61458C114.423 6.18597 114.188 5.7929 113.88 5.46077C113.148 4.88792 112.229 4.60929 111.303 4.67964C110.733 4.68173 110.166 4.75517 109.614 4.89825C109.074 5.03717 108.551 5.23941 108.058 5.50076L107.96 5.55585L108.493 6.87285L108.613 6.8142C109.417 6.38493 110.308 6.14196 111.219 6.10327C111.479 6.0791 111.741 6.1099 111.988 6.19365C112.235 6.2774 112.462 6.41223 112.654 6.58937C112.986 7.03684 113.144 7.58997 113.098 8.14541V8.60751L111.62 8.65283C108.51 8.74792 106.939 9.79476 106.939 11.7685C106.915 12.1651 106.977 12.5621 107.121 12.9324C107.265 13.3027 107.487 13.6374 107.773 13.9137C108.41 14.4442 109.224 14.7132 110.052 14.6664C110.667 14.6852 111.279 14.5754 111.849 14.3438L111.847 14.3465ZM113.063 9.86941V10.591C113.085 10.9493 113.032 11.3082 112.907 11.6447C112.782 11.9813 112.589 12.2883 112.339 12.546C111.789 13.0334 111.068 13.2835 110.334 13.2419C109.894 13.2674 109.459 13.1354 109.107 12.8695C108.959 12.7318 108.844 12.5627 108.77 12.3746C108.696 12.1866 108.665 11.9843 108.679 11.7827C108.661 11.5162 108.716 11.2497 108.838 11.0122C108.96 10.7747 109.145 10.5752 109.373 10.4355C110.119 10.0725 110.943 9.89711 111.772 9.9245L113.063 9.86941Z" fill="#00B2F1"/>
<path d="M120.952 15.7223L124.997 5.0042L125.06 4.83536H123.262L123.232 4.91534C121.921 8.54107 121.135 10.7396 120.9 11.4425C120.735 11.9349 120.61 12.3223 120.523 12.6111C120.379 12.0602 120.122 11.2781 119.753 10.2802L117.663 4.83447H115.863L119.711 14.424L119.206 15.7179C119.099 16.163 118.846 16.5596 118.487 16.8443C118.129 17.1291 117.685 17.2856 117.227 17.289C116.881 17.2917 116.535 17.258 116.196 17.1886L116.044 17.1548V18.5509L116.141 18.574C116.573 18.672 117.014 18.7212 117.458 18.7207C118.201 18.7413 118.928 18.4962 119.508 18.0293C120.175 17.3927 120.671 16.598 120.95 15.7188" fill="#00B2F1"/>
<path d="M136.652 4.6619C135.998 4.65086 135.352 4.80361 134.772 5.10623C134.29 5.357 133.881 5.72801 133.585 6.18329C133.303 5.66685 132.873 5.24621 132.351 4.97507C131.828 4.70393 131.237 4.59459 130.652 4.66101C130.061 4.6524 129.477 4.79009 128.951 5.0618C128.526 5.28256 128.16 5.60336 127.885 5.99666L127.674 4.83341H126.289V14.4976H127.959V9.43222C127.884 8.53995 128.093 7.64689 128.555 6.87999C128.785 6.61588 129.073 6.40972 129.398 6.2783C129.722 6.14688 130.073 6.09393 130.421 6.12375C130.68 6.10153 130.94 6.13652 131.183 6.22622C131.426 6.31592 131.647 6.45812 131.829 6.64272C132.164 7.10816 132.323 7.67689 132.28 8.24853V14.4994H133.956V9.11586C133.892 8.31144 134.106 7.50957 134.562 6.84356C134.799 6.59037 135.091 6.39402 135.415 6.26909C135.739 6.14416 136.087 6.09387 136.433 6.12197C136.69 6.09979 136.949 6.13482 137.191 6.22456C137.433 6.31429 137.652 6.4565 137.832 6.64095C138.169 7.1052 138.33 7.67452 138.286 8.24675V14.4976H139.96V8.23254C140.042 7.25517 139.745 6.28379 139.13 5.51946C138.796 5.21564 138.404 4.98288 137.978 4.8353C137.551 4.68773 137.099 4.62843 136.649 4.66101" fill="#00B2F1"/>
<path d="M145.889 4.66171C145.299 4.6394 144.712 4.7527 144.173 4.99288C143.634 5.23306 143.157 5.59373 142.779 6.04713C141.969 7.10397 141.561 8.4148 141.629 9.74484C141.555 11.066 142.001 12.3636 142.873 13.359C143.313 13.8014 143.841 14.1464 144.423 14.3719C145.004 14.5974 145.627 14.6983 146.25 14.668C146.806 14.6757 147.361 14.6275 147.907 14.524C148.406 14.4132 148.892 14.2539 149.36 14.0486L149.436 14.0148V12.4721L149.258 12.5477C148.326 12.9533 147.32 13.165 146.303 13.1697C145.908 13.1932 145.513 13.1324 145.143 12.9915C144.773 12.8505 144.438 12.6326 144.158 12.3522C143.625 11.7021 143.341 10.8826 143.358 10.0417H149.839V9.01525C149.889 7.86783 149.509 6.74312 148.773 5.8614C148.409 5.46055 147.961 5.1448 147.461 4.93655C146.96 4.72829 146.421 4.63264 145.88 4.65638L145.889 4.66171ZM144.147 6.79804C144.366 6.56463 144.633 6.38142 144.929 6.261C145.226 6.14058 145.545 6.0858 145.864 6.10045C146.168 6.0805 146.472 6.13064 146.753 6.24698C147.034 6.36332 147.285 6.54274 147.485 6.77139C147.88 7.30967 148.081 7.96598 148.055 8.63313H143.401C143.454 7.95931 143.718 7.31925 144.155 6.80338L144.147 6.79804Z" fill="#00B2F1"/>
<path d="M156.596 4.66186C155.97 4.65351 155.349 4.78814 154.782 5.05554C154.323 5.27367 153.925 5.59962 153.619 6.00551L153.411 4.83337H152.023V14.4975H153.698V9.43219C153.617 8.53136 153.848 7.6301 154.354 6.87996C154.622 6.61005 154.947 6.40243 155.304 6.27176C155.662 6.14108 156.044 6.09054 156.423 6.12371C156.704 6.09849 156.987 6.13244 157.254 6.22337C157.52 6.31429 157.765 6.46017 157.972 6.65157C158.335 7.11468 158.511 7.69739 158.464 8.28404V14.4993H160.14V8.23427C160.183 7.74432 160.125 7.25083 159.97 6.78403C159.815 6.31722 159.567 5.88691 159.24 5.51942C158.503 4.90139 157.554 4.5942 156.594 4.66275" fill="#00B2F1"/>
<path d="M166.698 13.1877C166.462 13.2239 166.225 13.2423 165.987 13.2428C165.797 13.253 165.608 13.2211 165.432 13.1495C165.256 13.0779 165.099 12.9684 164.97 12.8286C164.702 12.4802 164.57 12.0456 164.6 11.6067V6.19392H167.332V4.83693H164.6V2.65527H163.558L162.947 4.69919L161.578 5.29992V6.19392H162.925V11.6716C162.925 13.6595 163.883 14.6735 165.781 14.6735C166.06 14.6691 166.338 14.6438 166.613 14.598C166.859 14.5644 167.1 14.4993 167.33 14.4042L167.402 14.3678V13.0348L167.242 13.0819C167.063 13.1293 166.882 13.1661 166.699 13.1921" fill="#00B2F1"/>
<path d="M174.733 10.1628C174.061 9.58411 173.273 9.15515 172.422 8.90447C171.865 8.71022 171.32 8.48047 170.792 8.21665C170.567 8.10276 170.367 7.94294 170.207 7.74744C170.092 7.57848 170.033 7.37755 170.04 7.17337C170.038 7.01559 170.079 6.86033 170.161 6.72502C170.242 6.5897 170.359 6.47969 170.499 6.40734C170.949 6.17725 171.454 6.07345 171.958 6.10697C172.828 6.13417 173.685 6.3291 174.481 6.68105L174.593 6.72637L175.201 5.34095L175.084 5.29296C174.13 4.8808 173.102 4.66675 172.062 4.66379C171.133 4.61553 170.212 4.85578 169.425 5.35161C169.112 5.56332 168.858 5.85029 168.686 6.18606C168.513 6.52183 168.428 6.89559 168.438 7.2729C168.427 7.68128 168.525 8.08527 168.722 8.44326C168.941 8.79517 169.237 9.09266 169.588 9.31325C170.187 9.66634 170.821 9.95669 171.479 10.1797C172.126 10.3944 172.74 10.6989 173.302 11.0844C173.435 11.1806 173.544 11.307 173.619 11.4533C173.694 11.5996 173.733 11.7616 173.733 11.9259C173.744 12.123 173.699 12.3192 173.603 12.4921C173.508 12.6649 173.366 12.8074 173.194 12.9034C172.682 13.1574 172.113 13.2741 171.542 13.242C171.045 13.2384 170.551 13.1728 170.07 13.0465C169.576 12.9234 169.097 12.7445 168.643 12.5133L168.459 12.4245V14.024L168.524 14.0578C169.449 14.5096 170.474 14.7199 171.503 14.6692C172.499 14.726 173.487 14.4679 174.328 13.9316C174.663 13.6903 174.932 13.3696 175.112 12.9984C175.292 12.6272 175.376 12.2171 175.358 11.8051C175.375 11.1968 175.152 10.6064 174.736 10.1619" fill="#00B2F1"/>
<path d="M105.353 24.5204C105.659 24.3892 105.933 24.1905 106.152 23.9392C106.519 23.4927 106.711 22.9285 106.694 22.3512C106.72 21.9559 106.644 21.5605 106.473 21.2033C106.302 20.8461 106.041 20.5393 105.716 20.3126C104.815 19.8294 103.796 19.6136 102.776 19.6905H99.7852V29.9101H103.423C104.363 29.9632 105.291 29.6842 106.046 29.1219C106.368 28.8498 106.624 28.5075 106.794 28.1211C106.963 27.7347 107.042 27.3146 107.023 26.8931C107.05 26.3677 106.9 25.8485 106.598 25.4179C106.296 24.9873 105.858 24.6699 105.355 24.5159L105.353 24.5204ZM105.313 26.8131C105.335 27.0433 105.301 27.2754 105.214 27.4897C105.127 27.7039 104.99 27.894 104.814 28.0439C104.332 28.3477 103.765 28.4893 103.197 28.4483H101.419V25.3077H103.108C103.703 25.2649 104.297 25.3978 104.818 25.6899C104.989 25.8202 105.124 25.9922 105.211 26.1896C105.297 26.387 105.332 26.6031 105.311 26.8176L105.313 26.8131ZM101.415 23.853V21.1648H102.831C103.426 21.1219 104.022 21.2346 104.56 21.4918C104.719 21.5954 104.846 21.7404 104.928 21.9111C105.01 22.0819 105.044 22.2719 105.026 22.4605C105.05 22.6592 105.024 22.8607 104.95 23.0469C104.877 23.2331 104.758 23.398 104.605 23.5269C104.122 23.7874 103.573 23.9016 103.026 23.8557L101.415 23.853Z" fill="#00B2F1"/>
<path d="M112.497 19.905C111.352 19.9126 110.227 20.198 109.217 20.7368L109.12 20.7866L109.653 22.1195L109.775 22.0591C110.589 21.6265 111.49 21.3818 112.411 21.3429C112.672 21.3185 112.936 21.3493 113.186 21.4336C113.435 21.5178 113.663 21.6534 113.857 21.8316C114.193 22.2844 114.353 22.8441 114.307 23.4063V23.8738L112.814 23.9217C109.674 24.0186 108.083 25.077 108.083 27.0667C108.059 27.4675 108.123 27.8687 108.268 28.2429C108.414 28.6171 108.638 28.9555 108.926 29.235C109.57 29.7705 110.393 30.042 111.229 29.9948C111.851 30.0126 112.471 29.9019 113.049 29.6696C113.577 29.404 114.04 29.0243 114.403 28.5579L114.67 29.8233H115.964V23.2055C116.003 22.7492 115.946 22.2897 115.798 21.8564C115.649 21.4232 115.412 21.0258 115.101 20.6897C114.362 20.1116 113.433 19.8311 112.498 19.9032L112.497 19.905ZM114.275 25.1463V25.8759C114.297 26.2376 114.243 26.5999 114.118 26.9399C113.992 27.2798 113.797 27.5899 113.546 27.8505C112.989 28.3441 112.26 28.5974 111.517 28.5552C111.07 28.5848 110.627 28.4502 110.273 28.1766C110.124 28.0379 110.009 27.868 109.934 27.6791C109.86 27.4902 109.828 27.2871 109.842 27.0845C109.822 26.8144 109.877 26.5443 110.001 26.3034C110.125 26.0626 110.312 25.8603 110.543 25.7186C111.295 25.3511 112.125 25.1735 112.962 25.2014L114.275 25.1463Z" fill="#00B2F1"/>
<path d="M123.306 19.8881C122.672 19.8793 122.044 20.0158 121.47 20.2871C121.007 20.5055 120.603 20.8344 120.297 21.2451L120.084 20.0614H118.684V29.8251H120.372V24.71C120.291 23.7987 120.525 22.8872 121.035 22.1275C121.306 21.8536 121.635 21.643 121.997 21.5105C122.359 21.3781 122.746 21.3273 123.13 21.3615C123.414 21.3364 123.7 21.3708 123.97 21.4626C124.239 21.5544 124.487 21.7016 124.696 21.8947C125.062 22.3643 125.239 22.954 125.192 23.5476V29.826H126.881V23.4934C126.923 22.9992 126.864 22.5015 126.709 22.0304C126.554 21.5593 126.305 21.1244 125.978 20.7519C125.231 20.1289 124.273 19.8196 123.303 19.889" fill="#00B2F1"/>
<path d="M137.354 20.0614H135.302L132.191 23.3583C131.789 23.8088 131.467 24.1963 131.223 24.5135C131.255 24.0097 131.272 23.6249 131.272 23.3583V16.0713H129.594V29.8313H131.268V26.2038L132.205 25.3942L135.524 29.8313H137.58L133.368 24.2549L137.351 20.0676" fill="#00B2F1"/>
</svg>
