<svg width="61" height="61" viewBox="0 0 61 61" fill="none" xmlns="http://www.w3.org/2000/svg">
<rect width="61" height="61" rx="8.31818" fill="#FAFAFA"/>
<g clip-path="url(#clip0)">
<path d="M54.72 20.9054C54.5002 20.2776 54.0906 19.7336 53.548 19.3488C53.0053 18.9639 52.3565 18.7572 51.6913 18.7573H51.6613C51.229 18.7568 50.8011 18.844 50.4034 19.0135C50.0058 19.183 49.6466 19.4314 49.3476 19.7436C49.0487 19.4313 48.6895 19.1829 48.2918 19.0134C47.8941 18.8439 47.4662 18.7568 47.0339 18.7573H47.004C46.2358 18.7561 45.4929 19.0318 44.9115 19.5338V19.2926C44.9029 19.1734 44.8495 19.0619 44.7622 18.9804C44.6749 18.8989 44.56 18.8534 44.4405 18.853H42.2995C42.1735 18.853 42.0526 18.903 41.9634 18.9922C41.8743 19.0813 41.8242 19.2022 41.8242 19.3283V30.988C41.8242 31.1141 41.8743 31.235 41.9634 31.3241C42.0526 31.4132 42.1735 31.4633 42.2995 31.4633H44.4405C44.555 31.4629 44.6656 31.4211 44.7516 31.3455C44.8377 31.27 44.8935 31.1658 44.9086 31.0522V22.681C44.9066 22.653 44.9066 22.6248 44.9086 22.5968C44.9247 22.4083 45.0087 22.232 45.1449 22.1007C45.2812 21.9695 45.4605 21.8922 45.6494 21.8832H46.0462C46.2112 21.8952 46.3688 21.9563 46.4987 22.0587C46.5906 22.135 46.6641 22.2312 46.7135 22.34C46.7629 22.4487 46.7871 22.5673 46.7842 22.6867L46.7927 31.0137C46.7927 31.1398 46.8428 31.2607 46.9319 31.3498C47.0211 31.4389 47.1419 31.489 47.268 31.489H49.409C49.5308 31.4888 49.6478 31.4416 49.7358 31.3574C49.8238 31.2731 49.8759 31.1582 49.8814 31.0365V22.6682C49.8784 22.5359 49.9088 22.4051 49.97 22.2878C50.0311 22.1705 50.1209 22.0706 50.2311 21.9973C50.3493 21.921 50.4847 21.8754 50.6251 21.8646H51.0219C51.2258 21.8753 51.4175 21.9651 51.5564 22.1148C51.6952 22.2646 51.7702 22.4626 51.7655 22.6668L51.7726 30.9837C51.7726 31.1098 51.8227 31.2307 51.9118 31.3198C52.001 31.409 52.1219 31.459 52.2479 31.459H54.3889C54.5149 31.459 54.6359 31.409 54.725 31.3198C54.8141 31.2307 54.8642 31.1098 54.8642 30.9837V22.043C54.8835 21.6553 54.8273 21.2675 54.6986 20.9012L54.72 20.9054Z" fill="#00BAF2"/>
<path d="M40.2626 18.9409H39.0351V16.9555C39.0351 16.842 38.99 16.7331 38.9097 16.6528C38.8294 16.5725 38.7205 16.5273 38.6069 16.5273C38.5796 16.5275 38.5524 16.5304 38.5256 16.5359C37.1639 16.907 37.4365 18.7882 34.9573 18.9452H34.7161C34.681 18.9452 34.6461 18.9491 34.6119 18.9566C34.5073 18.98 34.4137 19.0381 34.3465 19.1217C34.2793 19.2052 34.2425 19.3091 34.2422 19.4162V21.5572C34.2422 21.6196 34.2545 21.6813 34.2784 21.7389C34.3023 21.7965 34.3373 21.8488 34.3815 21.8928C34.4256 21.9368 34.478 21.9717 34.5357 21.9954C34.5934 22.0192 34.6551 22.0313 34.7175 22.0311H36.0135V31.0931C36.0135 31.1547 36.0257 31.2157 36.0493 31.2726C36.0729 31.3295 36.1075 31.3812 36.1511 31.4247C36.1948 31.4682 36.2465 31.5026 36.3035 31.5261C36.3605 31.5495 36.4215 31.5615 36.4831 31.5613H38.6055C38.7284 31.5605 38.8461 31.5115 38.9332 31.4247C39.0203 31.3379 39.0697 31.2203 39.0708 31.0974V22.0197H40.274C40.3997 22.0197 40.5203 21.9697 40.6091 21.8809C40.698 21.792 40.7479 21.6715 40.7479 21.5458V19.4048C40.7466 19.3425 40.733 19.281 40.7079 19.2239C40.6828 19.1668 40.6466 19.1152 40.6016 19.0721C40.5565 19.029 40.5033 18.9953 40.4452 18.9727C40.387 18.9502 40.325 18.9394 40.2626 18.9409Z" fill="#00BAF2"/>
<path d="M32.5824 18.8823H30.4414C30.3156 18.8827 30.1951 18.933 30.1063 19.022C30.0175 19.1111 29.9676 19.2318 29.9676 19.3576V23.7966C29.9657 23.9286 29.9119 24.0546 29.8179 24.1472C29.7239 24.2399 29.5972 24.2919 29.4652 24.2919H28.566C28.4327 24.2911 28.3051 24.2377 28.211 24.1434C28.1169 24.049 28.0639 23.9213 28.0635 23.788L28.055 19.3633C28.0546 19.2375 28.0044 19.117 27.9153 19.0282C27.8262 18.9393 27.7055 18.8895 27.5797 18.8895H25.4387C25.3126 18.8895 25.1917 18.9395 25.1026 19.0287C25.0135 19.1178 24.9634 19.2387 24.9634 19.3648V24.2205C24.9465 24.6409 25.0169 25.0602 25.1701 25.4521C25.3233 25.8439 25.556 26.1997 25.8536 26.4972C26.1511 26.7946 26.5071 27.0272 26.899 27.1802C27.2909 27.3332 27.7102 27.4034 28.1306 27.3863C28.1306 27.3863 29.518 27.3863 29.5579 27.3949C29.6904 27.3949 29.8175 27.4475 29.9112 27.5412C30.0049 27.6349 30.0575 27.7619 30.0575 27.8944C30.0575 28.0269 30.0049 28.154 29.9112 28.2477C29.8175 28.3413 29.6904 28.394 29.5579 28.394H29.5223L26.3822 28.4054C26.2576 28.4058 26.1381 28.455 26.0495 28.5426C25.9609 28.6301 25.9102 28.749 25.9083 28.8736V31.0145C25.9087 31.1403 25.9589 31.2609 26.048 31.3497C26.1371 31.4385 26.2578 31.4884 26.3836 31.4884H29.8933C30.3137 31.5055 30.7331 31.4353 31.125 31.2823C31.5169 31.1293 31.8729 30.8967 32.1704 30.5993C32.468 30.3019 32.7007 29.946 32.8539 29.5542C33.0071 29.1623 33.0775 28.743 33.0606 28.3226V19.3562C33.0604 19.2937 33.0479 19.2318 33.0237 19.1741C32.9996 19.1164 32.9643 19.064 32.9198 19.02C32.8754 18.976 32.8228 18.9412 32.7649 18.9176C32.707 18.8939 32.645 18.882 32.5824 18.8823Z" fill="#002970"/>
<path d="M12.0829 18.8893H7.39135C7.26795 18.8893 7.14959 18.9383 7.06233 19.0256C6.97506 19.1129 6.92604 19.2312 6.92604 19.3546V21.4585C6.92579 21.4609 6.92579 21.4633 6.92604 21.4656V31.0172C6.92203 31.1366 6.96438 31.2529 7.04419 31.3418C7.12401 31.4307 7.23512 31.4852 7.35424 31.494H9.54089C9.66695 31.494 9.78784 31.4439 9.87697 31.3548C9.96611 31.2656 10.0162 31.1447 10.0162 31.0187L10.0247 27.7558H12.0829C12.471 27.7746 12.8588 27.712 13.2212 27.572C13.5837 27.432 13.9129 27.2178 14.1876 26.943C14.4623 26.6683 14.6766 26.3391 14.8166 25.9767C14.9565 25.6142 15.0191 25.2265 15.0004 24.8384V21.8025C15.0181 21.4149 14.9547 21.0278 14.8143 20.666C14.6739 20.3043 14.4595 19.9758 14.185 19.7017C13.9104 19.4275 13.5816 19.2136 13.2196 19.0737C12.8577 18.9339 12.4705 18.871 12.0829 18.8893ZM11.8945 22.823V24.1476C11.8942 24.2808 11.8412 24.4085 11.7471 24.5029C11.653 24.5973 11.5254 24.6507 11.3921 24.6514H10.0276V21.988H11.3893C11.5223 21.9888 11.6496 22.042 11.7437 22.136C11.8378 22.2301 11.8909 22.3574 11.8917 22.4904L11.8945 22.823Z" fill="#002970"/>
<path d="M20.4121 18.8943H17.4333C17.3111 18.8904 17.1923 18.9351 17.103 19.0186C17.0137 19.102 16.961 19.2174 16.9565 19.3396V20.196C16.9569 20.1998 16.9569 20.2036 16.9565 20.2074V21.3493C16.961 21.4789 17.0167 21.6014 17.1115 21.69C17.2062 21.7786 17.3322 21.8259 17.4618 21.8217H20.2979C20.4107 21.8363 20.515 21.8894 20.5931 21.9722C20.6711 22.0549 20.7181 22.1621 20.7261 22.2756V22.5511C20.7188 22.6611 20.6735 22.7652 20.598 22.8456C20.5225 22.9261 20.4215 22.9778 20.3122 22.9921H18.9077C18.4979 22.9616 18.0863 23.0162 17.6987 23.1524C17.311 23.2887 16.9558 23.5036 16.6552 23.7838C16.3547 24.0639 16.1154 24.4033 15.9523 24.7804C15.7892 25.1575 15.7059 25.5643 15.7076 25.9752V28.473C15.6851 28.871 15.7474 29.2693 15.8905 29.6414C16.0336 30.0136 16.2542 30.351 16.5377 30.6313C16.8211 30.9117 17.161 31.1285 17.5346 31.2675C17.9083 31.4065 18.3072 31.4645 18.705 31.4375H22.5987C22.9228 31.4483 23.238 31.3301 23.4751 31.1088C23.7122 30.8875 23.8518 30.5812 23.8633 30.2571V22.1214C23.8648 20.1403 22.8456 18.8943 20.4121 18.8943ZM20.7546 27.855V28.1904C20.7542 28.2168 20.7513 28.243 20.7461 28.2689C20.7411 28.2927 20.7344 28.316 20.7261 28.3388C20.6903 28.4356 20.6257 28.519 20.5409 28.5777C20.4561 28.6364 20.3553 28.6677 20.2522 28.6671H19.3587C19.2291 28.6714 19.1031 28.624 19.0083 28.5354C18.9136 28.4468 18.8579 28.3243 18.8534 28.1947V26.352C18.8586 26.2229 18.9147 26.1011 19.0093 26.0131C19.104 25.9252 19.2296 25.8782 19.3587 25.8824H20.2522C20.3818 25.8782 20.5078 25.9256 20.6026 26.0141C20.6973 26.1027 20.753 26.2252 20.7575 26.3549L20.7546 27.855Z" fill="#002970"/>
<path d="M6.97656 35.0613V42.5481H8.50646V37.6573H8.56925L10.5073 42.5096H11.5534L13.5014 37.6744H13.5642V42.5481H15.0927V35.0613H13.1404L11.0753 40.092H10.9911L8.9346 35.0613H6.97656ZM16.2615 42.5481H17.8185V36.9323H16.2615V42.5481ZM17.0436 36.2088C17.2601 36.2153 17.4704 36.136 17.6286 35.9882C17.7869 35.8404 17.8803 35.636 17.8885 35.4195C17.8795 35.2036 17.7858 35 17.6276 34.8527C17.4695 34.7055 17.2596 34.6266 17.0436 34.6332C16.8282 34.6274 16.6193 34.7067 16.4619 34.8539C16.3046 35.001 16.2116 35.2043 16.203 35.4195C16.2108 35.6356 16.3037 35.8398 16.4615 35.9876C16.6192 36.1354 16.8289 36.2149 17.045 36.2088H17.0436ZM20.5158 39.3014C20.5007 39.1544 20.5172 39.0059 20.5642 38.8658C20.6111 38.7257 20.6876 38.5973 20.7883 38.4891C20.8889 38.381 21.0116 38.2957 21.148 38.2388C21.2844 38.182 21.4314 38.155 21.5791 38.1597C21.7205 38.153 21.8617 38.1777 21.9925 38.2318C22.1233 38.286 22.2406 38.3683 22.336 38.473C22.4314 38.5777 22.5026 38.7021 22.5444 38.8373C22.5862 38.9726 22.5977 39.1155 22.578 39.2557V42.5538H24.1351V38.9788C24.1668 38.7085 24.1398 38.4346 24.0561 38.1757C23.9724 37.9167 23.8339 37.6789 23.65 37.4783C23.4661 37.2777 23.2411 37.1191 22.9903 37.0133C22.7396 36.9075 22.469 36.857 22.197 36.8652C21.8394 36.8414 21.4834 36.9315 21.1801 37.1225C20.8768 37.3135 20.6418 37.5956 20.5087 37.9285H20.443V36.938H18.9588V42.5538H20.5158V39.3014ZM25.2568 42.5481H26.8138V36.9323H25.2582L25.2568 42.5481ZM26.0389 36.2088C26.2553 36.2153 26.4656 36.136 26.6239 35.9882C26.7821 35.8404 26.8755 35.636 26.8837 35.4195C26.8748 35.2036 26.7811 35 26.6229 34.8527C26.4647 34.7055 26.2549 34.6266 26.0389 34.6332C25.8235 34.6274 25.6145 34.7067 25.4572 34.8539C25.2998 35.001 25.2068 35.2043 25.1983 35.4195C25.2061 35.6356 25.299 35.8398 25.4567 35.9876C25.6144 36.1354 25.8242 36.2149 26.0403 36.2088H26.0389ZM31.5576 42.5481L32.1128 40.8355H34.8143L35.3695 42.5481H37.0664L34.4804 35.0613H32.4467L29.8622 42.5481H31.5576ZM32.5152 39.6053L33.4372 36.7725H33.4957L34.4176 39.6053H32.5152ZM37.8342 44.6546H39.3912V41.649H39.4383C39.573 41.9557 39.7974 42.2144 40.0819 42.3912C40.3664 42.5679 40.6978 42.6545 41.0324 42.6394C42.3168 42.6394 43.3158 41.6262 43.3158 39.7481C43.3158 37.8171 42.274 36.8595 41.0424 36.8595C40.7042 36.8452 40.3698 36.9349 40.0842 37.1166C39.7986 37.2983 39.5756 37.5632 39.4454 37.8757H39.3755V36.9323H37.8356L37.8342 44.6546ZM39.3584 39.7409C39.3584 38.7419 39.7865 38.0997 40.5386 38.0997C41.2907 38.0997 41.7188 38.769 41.7188 39.7409C41.7188 40.7128 41.3021 41.4007 40.5386 41.4007C39.7751 41.4007 39.3598 40.7428 39.3598 39.7409H39.3584ZM44.242 44.6546H45.799V41.649H45.8461C45.9809 41.9557 46.2052 42.2144 46.4898 42.3912C46.7743 42.5679 47.1056 42.6545 47.4402 42.6394C48.7247 42.6394 49.7237 41.6262 49.7237 39.7481C49.7237 37.8171 48.6819 36.8595 47.4502 36.8595C47.1121 36.8452 46.7776 36.9349 46.492 37.1166C46.2065 37.2983 45.9835 37.5632 45.8533 37.8757H45.7833V36.9323H44.2435L44.242 44.6546ZM45.7662 39.7409C45.7662 38.7419 46.1944 38.0997 46.9465 38.0997C47.6986 38.0997 48.1267 38.769 48.1267 39.7409C48.1267 40.7128 47.71 41.4007 46.9465 41.4007C46.1829 41.4007 45.7676 40.7428 45.7676 39.7409H45.7662ZM55.328 38.535C55.1853 37.5003 54.3562 36.861 52.9376 36.861C51.519 36.861 50.5543 37.526 50.5571 38.6078C50.5571 39.4484 51.0837 39.9935 52.1798 40.2133L53.1517 40.4074C53.6412 40.5059 53.8652 40.6857 53.8652 40.9668C53.8581 41.2994 53.4956 41.5377 52.9519 41.5377C52.7257 41.5705 52.4954 41.5174 52.3064 41.3887C52.1175 41.26 51.9837 41.0652 51.9314 40.8427L50.4001 40.9226C50.5428 41.9972 51.4605 42.6594 52.9476 42.6594C54.4033 42.6594 55.4451 41.9173 55.4479 40.8041C55.4479 39.9921 54.9142 39.5069 53.8253 39.2828L52.8091 39.0787C52.2868 38.966 52.0956 38.7933 52.0956 38.5164C52.0956 38.1796 52.4723 37.9613 52.9519 37.9613C53.1613 37.9401 53.3713 37.9949 53.5437 38.1157C53.716 38.2365 53.8393 38.4152 53.8909 38.6192L55.328 38.535Z" fill="#231F20"/>
</g>
<defs>
<clipPath id="clip0">
<rect width="48.5227" height="48.5227" fill="white" transform="translate(6.93359 5.54541)"/>
</clipPath>
</defs>
</svg>
