<svg width="29" height="33" viewBox="0 0 29 33" fill="none" xmlns="http://www.w3.org/2000/svg">
<path d="M26.4131 9.90247C25.8342 9.90247 25.3711 10.363 25.3711 10.9388V31.8956C25.3711 32.4713 25.8342 32.9319 26.4131 32.9319C26.9921 32.9319 27.4552 32.4713 27.4552 31.8956V10.9388C27.4552 10.363 26.9921 9.90247 26.4131 9.90247Z" fill="#002970"/>
<path d="M16.9219 15.0453V31.8952C16.9219 32.4709 17.385 32.9315 17.9639 32.9315C18.5428 32.9315 19.006 32.4709 19.006 31.8952V15.0453C19.006 14.4696 18.5428 14.0089 17.9639 14.0089C17.385 14.0089 16.9219 14.4696 16.9219 15.0453Z" fill="#002970"/>
<path d="M9.54596 16.7339C8.96704 16.7339 8.50391 17.1945 8.50391 17.7702V31.8949C8.50391 32.4707 8.96704 32.9312 9.54596 32.9312C10.1249 32.9312 10.588 32.4707 10.588 31.8949V17.7702C10.5494 17.1945 10.0863 16.7339 9.54596 16.7339Z" fill="#002970"/>
<path d="M0.0546875 24.8719V31.8959C0.0546875 32.4716 0.517826 32.9322 1.09674 32.9322C1.67566 32.9322 2.1388 32.4716 2.1388 31.8959V24.8719C2.1388 24.2961 1.67566 23.8356 1.09674 23.8356C0.517826 23.8356 0.0546875 24.2961 0.0546875 24.8719Z" fill="#002970"/>
<path d="M10.0887 8.4058C9.85714 8.4058 9.62559 8.48251 9.43262 8.63604L0.401496 15.7368C-0.0616382 16.0822 -0.138837 16.7348 0.247108 17.1953C0.440081 17.464 0.748851 17.5792 1.05761 17.5792C1.28917 17.5792 1.52075 17.5025 1.71372 17.3489L10.4746 10.4784L16.4568 10.5168C16.6112 10.4785 16.8813 10.4401 17.0357 10.3249L26.9159 3.72317V5.29679C26.9159 5.87253 27.3791 6.3331 27.958 6.3331C28.5369 6.3331 29 5.87253 29 5.29679V1.0364C29 0.460664 28.5369 0 27.958 0H23.4424C22.8635 0 22.4004 0.460664 22.4004 1.0364C22.4004 1.61214 22.8635 2.07271 23.4424 2.07271H25.6809L16.148 8.44413L10.0887 8.4058Z" fill="#002970"/>
</svg>
