<svg width="61" height="61" viewBox="0 0 61 61" fill="none" xmlns="http://www.w3.org/2000/svg">
<rect x="0.5" y="0.5" width="60" height="60" rx="7.81818" fill="white" stroke="#F6F6F6"/>
<path d="M15.5547 15.5507H45.0303V30.2882L30.2922 45.0263H15.5547V15.5507Z" fill="white"/>
<path d="M13.9177 42.043V18.6971C13.923 17.4246 14.4329 16.2062 15.3356 15.3093C16.2382 14.4125 17.4598 13.9104 18.7323 13.9132L42.1854 13.9132C43.4578 13.9105 44.6794 14.4126 45.582 15.3095C46.4846 16.2063 46.9946 17.4246 47 18.6971L46.981 28.438C46.981 28.7176 46.8699 28.9858 46.6722 29.1835C46.4745 29.3812 46.2063 29.4923 45.9267 29.4923C45.6471 29.4923 45.3789 29.3812 45.1812 29.1835C44.9835 28.9858 44.8724 28.7176 44.8724 28.438L44.8913 18.6971C44.8866 17.9837 44.599 17.3013 44.0917 16.7998C43.5844 16.2982 42.8988 16.0185 42.1854 16.0219H18.7323C18.0189 16.0185 17.3333 16.2982 16.826 16.7998C16.3187 17.3013 16.0311 17.9837 16.0263 18.6971V42.043C16.0311 42.7564 16.3187 43.4388 16.826 43.9405C17.3333 44.4421 18.0189 44.722 18.7323 44.7187L28.2799 44.711C28.5596 44.711 28.8277 44.8221 29.0255 45.0198C29.2232 45.2176 29.3343 45.4857 29.3343 45.7654C29.3343 46.045 29.2232 46.3131 29.0255 46.5109C28.8277 46.7086 28.5596 46.8197 28.2799 46.8197L18.7328 46.8274C17.4602 46.8302 16.2384 46.3281 15.3357 45.4311C14.433 44.5341 13.923 43.3156 13.9177 42.043Z" fill="#002970"/>
<path d="M35.5544 23.4187V23.3998H26.2954C26.2762 23.3998 25.9714 23.8398 25.3808 24.7199V24.7681H27.8252C28.2969 24.7791 28.7639 24.8637 29.2095 25.0188C29.8264 25.2163 30.3457 25.6399 30.6629 26.2046V26.2242H26.2933C26.2803 26.2242 25.9692 26.6675 25.3597 27.5541C25.359 27.5593 25.3594 27.5646 25.3611 27.5696C25.3627 27.5747 25.3655 27.5792 25.3693 27.583C25.373 27.5867 25.3776 27.5895 25.3826 27.5912C25.3876 27.5928 25.393 27.5933 25.3982 27.5925H30.9034C30.9035 27.7973 30.8643 28.0002 30.788 28.1903C30.2938 29.5075 29.0329 30.1662 27.0055 30.1662C26.6284 30.1694 26.2515 30.1466 25.8776 30.0979L25.8581 30.1461V31.4278C25.8581 31.4473 27.6677 33.5674 31.2869 37.7882H33.2981C33.3304 37.7882 33.3463 37.7754 33.3463 37.7497V37.4893L28.7742 31.9672C28.5354 31.7305 28.3312 31.4612 28.1677 31.1674V31.1485C29.0651 31.13 29.9467 30.9093 30.747 30.503C31.3475 30.2137 31.8668 29.78 32.2584 29.2407C32.5988 28.7481 32.8227 28.1844 32.9131 27.5925H34.6316C34.6439 27.5925 34.9453 27.1492 35.536 26.2626C35.536 26.2434 35.5199 26.2307 35.4878 26.2242H32.8505C32.7458 25.6883 32.5074 25.1877 32.1574 24.7687H34.6316C34.9648 24.3368 35.2729 23.886 35.5544 23.4187Z" fill="#002970"/>
<path d="M41.343 37.3492C41.1711 37.1761 40.9804 37.0227 40.7745 36.8919C40.1242 36.4755 39.3511 36.2938 38.5835 36.377C37.8158 36.4602 37.0996 36.8032 36.5536 37.3492L33.4775 40.4283C32.8421 41.063 32.4849 41.9242 32.4844 42.8223C32.4839 43.7204 32.8402 44.5819 33.4749 45.2173C34.1096 45.8527 34.9708 46.2099 35.8689 46.2104C36.767 46.2109 37.6285 45.8546 38.2639 45.2198L40.8037 42.68C40.8378 42.6462 40.8611 42.6029 40.8705 42.5558C40.8799 42.5087 40.8752 42.4599 40.8567 42.4155C40.8383 42.3711 40.8071 42.3332 40.7671 42.3067C40.727 42.2801 40.68 42.266 40.632 42.2663H40.5351C40.0045 42.2682 39.4787 42.1663 38.9873 41.9664C38.9432 41.9479 38.8946 41.943 38.8478 41.9521C38.8009 41.9612 38.7577 41.984 38.7238 42.0176L36.8976 43.8484C36.6248 44.1184 36.2563 44.2694 35.8725 44.2684C35.4887 44.2674 35.1209 44.1145 34.8496 43.8432C34.5782 43.5718 34.4253 43.204 34.4243 42.8202C34.4233 42.4365 34.5743 42.0679 34.8443 41.7951L37.9332 38.7088C38.2053 38.4372 38.5741 38.2846 38.9586 38.2846C39.343 38.2846 39.7118 38.4372 39.9839 38.7088C40.1679 38.8819 40.4109 38.9783 40.6635 38.9783C40.9161 38.9783 41.1591 38.8819 41.343 38.7088C41.4326 38.6197 41.5037 38.5139 41.5522 38.3972C41.6007 38.2806 41.6257 38.1555 41.6257 38.0292C41.6257 37.9029 41.6007 37.7779 41.5522 37.6612C41.5037 37.5446 41.4326 37.4387 41.343 37.3497V37.3492Z" fill="#00BAF2"/>
<path d="M46.0044 32.6843C45.69 32.3699 45.3167 32.1205 44.9058 31.9503C44.495 31.7801 44.0546 31.6925 43.6099 31.6925C43.1652 31.6925 42.7249 31.7801 42.314 31.9503C41.9032 32.1205 41.5299 32.3699 41.2155 32.6843L38.6782 35.219C38.6443 35.2534 38.6214 35.297 38.6124 35.3444C38.6034 35.3917 38.6087 35.4407 38.6276 35.4851C38.6465 35.5294 38.6782 35.5672 38.7186 35.5935C38.759 35.6198 38.8063 35.6335 38.8546 35.6328H38.9443C39.4743 35.6318 39.9994 35.7346 40.49 35.9353C40.5341 35.9537 40.5826 35.9586 40.6295 35.9495C40.6764 35.9404 40.7196 35.9176 40.7535 35.884L42.5746 34.065C42.8473 33.795 43.2159 33.644 43.5997 33.645C43.9835 33.646 44.3512 33.7989 44.6226 34.0703C44.894 34.3416 45.0469 34.7094 45.0479 35.0932C45.0488 35.477 44.8978 35.8455 44.6279 36.1183L42.3592 38.3828L42.3398 38.4043L41.5441 39.1928C41.272 39.4645 40.9032 39.617 40.5187 39.617C40.1342 39.617 39.7655 39.4645 39.4934 39.1928C39.3094 39.0197 39.0664 38.9233 38.8138 38.9233C38.5612 38.9233 38.3182 39.0197 38.1342 39.1928C38.0446 39.2824 37.9735 39.3887 37.925 39.5058C37.8765 39.6228 37.8516 39.7483 37.8516 39.875C37.8516 40.0017 37.8765 40.1271 37.925 40.2442C37.9735 40.3612 38.0446 40.4675 38.1342 40.5571C38.4142 40.8382 38.7417 41.0675 39.1017 41.2343C39.1529 41.2584 39.2042 41.2779 39.2555 41.2994C39.3067 41.321 39.358 41.3379 39.4093 41.3574C39.4605 41.3769 39.5118 41.3938 39.5631 41.4086L39.7056 41.4471C39.8025 41.4712 39.8994 41.4907 39.9983 41.5076C40.1173 41.5253 40.2371 41.5366 40.3572 41.5414H40.5408L40.6859 41.5245C40.7371 41.5245 40.7945 41.5102 40.8576 41.5102H40.9396L41.1068 41.4861L41.1842 41.4717L41.3247 41.4425H41.3513C41.9455 41.2934 42.4881 40.9858 42.9211 40.5525L46.0003 37.4733C46.315 37.1591 46.5648 36.786 46.7353 36.3753C46.9059 35.9646 46.9938 35.5244 46.9942 35.0797C46.9946 34.635 46.9074 34.1946 46.7375 33.7836C46.5677 33.3726 46.3186 32.9991 46.0044 32.6843Z" fill="#00BAF2"/>
</svg>
