<svg width="114" height="42" viewBox="0 0 114 42" fill="none" xmlns="http://www.w3.org/2000/svg">
<path d="M109.759 6.2899C109.449 5.40388 108.87 4.63623 108.104 4.09293C107.339 3.54963 106.423 3.25749 105.484 3.25684H105.44C104.83 3.25649 104.225 3.37991 103.664 3.61964C103.102 3.85937 102.595 4.21044 102.173 4.65164C101.752 4.21032 101.245 3.85915 100.684 3.61939C100.123 3.37964 99.5187 3.2563 98.9086 3.25684H98.8675C97.7832 3.25563 96.7349 3.6458 95.9152 4.35564V4.00902C95.9034 3.84086 95.8283 3.68343 95.705 3.56847C95.5817 3.4535 95.4194 3.38953 95.2508 3.38946H92.221C92.0434 3.38963 91.8731 3.46021 91.7475 3.58571C91.6219 3.71122 91.5511 3.88141 91.5508 4.05899V20.5147C91.5504 20.6029 91.5675 20.6903 91.6011 20.7719C91.6346 20.8535 91.6839 20.9277 91.7462 20.9902C91.8084 21.0527 91.8824 21.1023 91.9639 21.1361C92.0454 21.17 92.1327 21.1874 92.221 21.1874H95.2508C95.4121 21.1875 95.5678 21.1291 95.6893 21.023C95.8108 20.917 95.8897 20.7705 95.9114 20.6108V8.79823C95.9114 8.75851 95.9114 8.71878 95.9171 8.67906C95.938 8.41206 96.0555 8.16183 96.2477 7.97525C96.4398 7.78867 96.6933 7.67853 96.9608 7.66547H97.5208C97.7545 7.68075 97.9779 7.76679 98.1615 7.91214C98.2928 8.01899 98.398 8.15428 98.4693 8.30779C98.5405 8.46131 98.5759 8.62901 98.5728 8.79823L98.5824 20.5525C98.583 20.7305 98.6541 20.901 98.7802 21.0267C98.9063 21.1523 99.0771 21.2228 99.2552 21.2226H102.285C102.457 21.2221 102.622 21.1552 102.746 21.0358C102.87 20.9164 102.943 20.7538 102.949 20.5819V8.78029C102.946 8.59344 102.989 8.40865 103.076 8.24295C103.162 8.07725 103.289 7.93595 103.444 7.83206C103.612 7.72512 103.804 7.66109 104.003 7.64561H104.561C104.85 7.66135 105.12 7.78868 105.316 8.00061C105.512 8.21253 105.618 8.49241 105.611 8.78093L105.623 20.5185C105.623 20.6067 105.64 20.694 105.673 20.7756C105.707 20.8572 105.756 20.9313 105.818 20.9938C105.88 21.0563 105.954 21.1059 106.036 21.1398C106.117 21.1737 106.204 21.1912 106.293 21.1912H109.322C109.41 21.1912 109.497 21.1737 109.579 21.1398C109.66 21.106 109.735 21.0564 109.797 20.9939C109.859 20.9315 109.909 20.8573 109.942 20.7757C109.976 20.6942 109.993 20.6068 109.993 20.5185V7.89677C110.019 7.35308 109.941 6.80944 109.763 6.29502" fill="#00B2F1"/>
<path d="M89.246 3.43344H87.5162V0.614372C87.5188 0.523358 87.5006 0.432948 87.4629 0.350056C87.4252 0.267164 87.3691 0.193986 87.2988 0.136117C87.2285 0.0782477 87.1459 0.0372196 87.0573 0.016172C86.9687 -0.00487566 86.8765 -0.00538438 86.7877 0.0146811C84.8656 0.541975 85.25 3.20343 81.7454 3.43088H81.402C81.3526 3.43147 81.3035 3.43705 81.2553 3.44753V3.44753C81.1072 3.48125 80.975 3.56429 80.8803 3.68304C80.7857 3.80179 80.7342 3.94919 80.7344 4.10105V7.12834C80.734 7.21651 80.7511 7.30388 80.7846 7.38545C80.8181 7.46701 80.8673 7.54116 80.9295 7.60365C80.9917 7.66615 81.0656 7.71576 81.147 7.74963C81.2284 7.78351 81.3157 7.80099 81.4039 7.80108H83.2331V20.6477C83.2329 20.7348 83.25 20.8211 83.2832 20.9017C83.3165 20.9822 83.3653 21.0554 83.4269 21.117C83.4886 21.1786 83.5617 21.2274 83.6423 21.2607C83.7228 21.294 83.8091 21.311 83.8962 21.3108H86.8908C86.9778 21.3107 87.0638 21.2935 87.1441 21.2601C87.2244 21.2267 87.2973 21.1778 87.3586 21.1163C87.42 21.0547 87.4686 20.9816 87.5017 20.9012C87.5348 20.8208 87.5517 20.7346 87.5514 20.6477V7.80108H89.2486C89.3367 7.80091 89.4239 7.78336 89.5053 7.74945C89.5866 7.71553 89.6604 7.66591 89.7226 7.60343C89.7847 7.54094 89.8339 7.46681 89.8673 7.38529C89.9008 7.30377 89.9178 7.21646 89.9175 7.12834V4.10105C89.9177 4.01308 89.9006 3.92592 89.8671 3.84458C89.8336 3.76324 89.7844 3.68932 89.7222 3.62706C89.6601 3.56479 89.5862 3.51541 89.505 3.48175C89.4237 3.44808 89.3366 3.4308 89.2486 3.43088" fill="#00B2F1"/>
<path d="M78.3438 3.4339H75.3153C75.2272 3.43373 75.1399 3.45094 75.0584 3.48454C74.977 3.51815 74.9029 3.56749 74.8406 3.62974C74.7782 3.69198 74.7287 3.76592 74.695 3.84731C74.6612 3.9287 74.6438 4.01596 74.6438 4.10407V10.3675C74.6412 10.5532 74.5659 10.7304 74.4342 10.8613C74.3025 10.9922 74.1247 11.0663 73.9391 11.0678H72.666C72.4773 11.0675 72.2964 10.9923 72.163 10.8587C72.0297 10.7251 71.9548 10.5441 71.9548 10.3554L71.9439 4.10279C71.9441 4.01479 71.9269 3.92762 71.8933 3.84628C71.8597 3.76493 71.8104 3.69101 71.7482 3.62876C71.686 3.5665 71.6122 3.51713 71.5309 3.48347C71.4496 3.44982 71.3624 3.43253 71.2744 3.43262H68.2426C68.1547 3.43262 68.0676 3.44996 67.9863 3.48366C67.9051 3.51735 67.8313 3.56674 67.7692 3.62898C67.7071 3.69123 67.6578 3.76512 67.6243 3.84642C67.5907 3.92772 67.5736 4.01484 67.5737 4.10279V10.9698C67.5501 11.5629 67.6495 12.1545 67.8657 12.7073C68.082 13.2602 68.4103 13.7622 68.8301 14.1819C69.2499 14.6016 69.7521 14.9298 70.3049 15.1459C70.8578 15.3619 71.4495 15.4612 72.0426 15.4374C72.0426 15.4374 74.0018 15.4374 74.0621 15.4483C74.2361 15.4645 74.3978 15.5448 74.516 15.6735C74.6341 15.8023 74.7002 15.9704 74.7014 16.1452C74.7026 16.3199 74.6388 16.4889 74.5225 16.6193C74.4061 16.7496 74.2454 16.8321 74.0717 16.8507C74.0563 16.8507 74.0416 16.8565 74.0223 16.8591L69.5906 16.8757C69.5026 16.8756 69.4153 16.8929 69.3339 16.9265C69.2525 16.9602 69.1785 17.0095 69.1161 17.0718C69.0538 17.134 69.0043 17.2079 68.9705 17.2892C68.9367 17.3706 68.9193 17.4578 68.9192 17.5459V20.5758C68.9199 20.7535 68.9909 20.9238 69.1167 21.0493C69.2425 21.1749 69.4129 21.2456 69.5906 21.2459H74.5432C75.1366 21.2698 75.7284 21.1706 76.2815 20.9545C76.8346 20.7384 77.3369 20.4101 77.7568 19.9903C78.1768 19.5705 78.5052 19.0683 78.7215 18.5152C78.9377 17.9622 79.0371 17.3704 79.0134 16.7771V4.10407C79.0135 4.01602 78.9963 3.92879 78.9627 3.84741C78.9291 3.76602 78.8797 3.69208 78.8175 3.62981C78.7552 3.56755 78.6813 3.51819 78.5999 3.48457C78.5185 3.45095 78.4313 3.43373 78.3432 3.4339" fill="#0C2756"/>
<path d="M49.2812 3.43569H42.6577C42.5714 3.43552 42.486 3.45237 42.4062 3.48526C42.3265 3.51816 42.254 3.56646 42.1929 3.6274C42.1319 3.68833 42.0834 3.76072 42.0504 3.8404C42.0173 3.92008 42.0003 4.0055 42.0003 4.09176V7.05884V7.07229V7.11906V20.5558C41.995 20.7255 42.056 20.8906 42.1703 21.0162C42.2846 21.1418 42.4433 21.2179 42.6128 21.2285H45.7003C45.7888 21.2289 45.8765 21.2118 45.9584 21.1782C46.0402 21.1445 46.1146 21.095 46.1772 21.0324C46.2398 20.9699 46.2894 20.8956 46.3231 20.8138C46.3569 20.7319 46.3741 20.6443 46.3737 20.5558L46.3846 15.9504H49.2831C49.8311 15.9771 50.3786 15.8888 50.8904 15.6912C51.4022 15.4937 51.867 15.1912 52.255 14.8032C52.6429 14.4153 52.9454 13.9505 53.143 13.4387C53.3405 12.9269 53.4288 12.3794 53.4022 11.8314V7.5573C53.4285 7.00926 53.34 6.46176 53.1423 5.94992C52.9447 5.43809 52.6423 4.9732 52.2545 4.58508C51.8666 4.19696 51.402 3.89417 50.8903 3.69612C50.3786 3.49808 49.8312 3.40916 49.2831 3.43505L49.2812 3.43569ZM49.0172 8.98477V10.8562C49.0169 11.0444 48.942 11.2248 48.8089 11.3578C48.6759 11.4909 48.4955 11.5658 48.3073 11.5661H46.3853V7.81806H48.3073C48.4006 7.81798 48.4929 7.83628 48.5791 7.87193C48.6653 7.90757 48.7436 7.95986 48.8095 8.0258C48.8754 8.09173 48.9277 8.17002 48.9634 8.25619C48.999 8.34236 49.0173 8.4347 49.0172 8.52795V8.98477Z" fill="#0C2756"/>
<path d="M61.1086 3.45084H56.9056C56.733 3.4453 56.5653 3.50829 56.439 3.62606C56.3127 3.74383 56.2381 3.9068 56.2316 4.07936V5.25632V5.27298V5.30565V6.92085C56.2383 7.1039 56.3173 7.27681 56.4514 7.40162C56.5855 7.52643 56.7636 7.59294 56.9466 7.58653H60.9497C61.1087 7.60742 61.2555 7.68261 61.3654 7.79938C61.4753 7.91614 61.5414 8.06729 61.5526 8.22723V8.61742C61.5412 8.77323 61.4764 8.92034 61.3692 9.03392C61.2619 9.1475 61.1187 9.22058 60.9638 9.24081H58.9841C56.3469 9.24081 54.4671 10.9918 54.4671 13.4508V16.9747C54.4357 17.5367 54.5241 18.0991 54.7265 18.6244C54.9288 19.1497 55.2405 19.626 55.6409 20.0217C56.0413 20.4174 56.5212 20.7235 57.0489 20.9197C57.5765 21.1159 58.1398 21.1977 58.7015 21.1597H64.1961C64.6537 21.1749 65.0986 21.0082 65.4335 20.6959C65.7683 20.3837 65.9657 19.9514 65.9824 19.4939V7.99915C65.9824 5.21019 64.5427 3.4502 61.1086 3.4502V3.45084ZM61.5923 16.0988V16.5717C61.591 16.6089 61.5865 16.646 61.5789 16.6825C61.5723 16.7159 61.5635 16.7489 61.5526 16.7812C61.5003 16.9175 61.4073 17.0343 61.2863 17.116C61.1652 17.1976 61.022 17.24 60.876 17.2374H59.6158C59.433 17.2432 59.2553 17.1765 59.1216 17.0518C58.9878 16.927 58.9089 16.7544 58.902 16.5717V15.9989V15.9842V14.4567V13.9775C58.9096 13.7952 58.9888 13.6232 59.1224 13.499C59.2561 13.3748 59.4334 13.3085 59.6158 13.3144H60.876C61.0593 13.3083 61.2376 13.3751 61.3718 13.5C61.506 13.625 61.5853 13.7981 61.5923 13.9813V16.0988Z" fill="#0C2756"/>
<path d="M44.8445 24.0909H43.1985V35H44.8445V24.0909ZM48.8563 30.142C48.8563 28.837 49.6553 28.0913 50.7633 28.0913C51.8446 28.0913 52.4998 28.7997 52.4998 29.9876V35H54.0925V29.7958C54.0925 27.7717 52.9792 26.7116 51.3066 26.7116C50.0761 26.7116 49.2718 27.2816 48.8936 28.1499H48.7924V26.8182H47.2636V35H48.8563V30.142ZM62.5095 28.8157C62.1793 27.5426 61.1832 26.7116 59.4147 26.7116C57.5663 26.7116 56.256 27.6864 56.256 29.1353C56.256 30.2965 56.9591 31.0689 58.4932 31.4098L59.8781 31.7134C60.6665 31.8892 61.034 32.2408 61.034 32.7521C61.034 33.386 60.3575 33.8814 59.3135 33.8814C58.36 33.8814 57.7474 33.4712 57.5557 32.6669L56.0163 32.9013C56.2826 34.3501 57.4864 35.1651 59.3241 35.1651C61.3004 35.1651 62.6693 34.1158 62.6693 32.6349C62.6693 31.479 61.9342 30.7653 60.4321 30.419L59.1324 30.1207C58.2322 29.9077 57.8433 29.604 57.8487 29.0501C57.8433 28.4215 58.5251 27.9741 59.4307 27.9741C60.4214 27.9741 60.8795 28.5227 61.066 29.0714L62.5095 28.8157ZM69.7534 31.6069C69.7587 32.9972 68.7253 33.6577 67.8304 33.6577C66.845 33.6577 66.1632 32.9439 66.1632 31.8306V26.8182H64.5705V32.0224C64.5705 34.0518 65.6838 35.1065 67.2551 35.1065C68.4856 35.1065 69.3219 34.4567 69.7001 33.5831H69.7853V35H71.3514V26.8182H69.7534V31.6069ZM73.6414 35H75.2341V30.0036C75.2341 28.9329 76.0597 28.1605 77.189 28.1605C77.5192 28.1605 77.8921 28.2191 78.0199 28.2564V26.733C77.8601 26.7116 77.5458 26.6957 77.3434 26.6957C76.3846 26.6957 75.5643 27.239 75.266 28.1179H75.1808V26.8182H73.6414V35ZM81.856 35.1811C83.209 35.1811 83.9707 34.494 84.2743 33.8814H84.3382V35H85.8936V29.5668C85.8936 27.1857 84.0186 26.7116 82.7189 26.7116C81.2381 26.7116 79.8745 27.3082 79.3418 28.7997L80.8386 29.1406C81.073 28.56 81.6696 28.0007 82.7402 28.0007C83.7683 28.0007 84.2956 28.5387 84.2956 29.4656V29.5028C84.2956 30.0835 83.699 30.0728 82.2289 30.2433C80.6788 30.4244 79.0914 30.8292 79.0914 32.6882C79.0914 34.2969 80.3006 35.1811 81.856 35.1811ZM82.2022 33.9027C81.302 33.9027 80.6522 33.4979 80.6522 32.7095C80.6522 31.8572 81.4086 31.5536 82.3301 31.4311C82.8468 31.3619 84.0719 31.2234 84.301 30.9943V32.049C84.301 33.0185 83.5286 33.9027 82.2022 33.9027ZM89.7577 30.142C89.7577 28.837 90.5567 28.0913 91.6646 28.0913C92.746 28.0913 93.4012 28.7997 93.4012 29.9876V35H94.9938V29.7958C94.9938 27.7717 93.8806 26.7116 92.208 26.7116C90.9775 26.7116 90.1732 27.2816 89.795 28.1499H89.6938V26.8182H88.165V35H89.7577V30.142ZM100.726 35.1651C102.66 35.1651 103.912 34.0039 104.087 32.4112H102.537C102.335 33.2955 101.648 33.8175 100.737 33.8175C99.3892 33.8175 98.521 32.6935 98.521 30.9091C98.521 29.1566 99.4052 28.054 100.737 28.054C101.749 28.054 102.367 28.6932 102.537 29.4602H104.087C103.917 27.8089 102.569 26.7116 100.71 26.7116C98.4038 26.7116 96.9123 28.4482 96.9123 30.9464C96.9123 33.4126 98.3505 35.1651 100.726 35.1651ZM109.467 35.1651C111.251 35.1651 112.514 34.2862 112.876 32.9545L111.369 32.6829C111.081 33.4553 110.388 33.8494 109.483 33.8494C108.119 33.8494 107.203 32.9652 107.16 31.3885H112.977V30.8239C112.977 27.8675 111.209 26.7116 109.355 26.7116C107.075 26.7116 105.573 28.4482 105.573 30.9624C105.573 33.5032 107.054 35.1651 109.467 35.1651ZM107.166 30.1953C107.23 29.0341 108.071 28.0273 109.366 28.0273C110.601 28.0273 111.411 28.9435 111.416 30.1953H107.166Z" fill="#002970"/>
<path d="M16.823 18.3818V30.24C16.823 30.2811 16.8641 30.3631 16.8641 30.4042C16.8641 30.4452 16.823 30.4863 16.823 30.5683C16.823 31.7993 15.7972 32.784 14.4842 32.784C13.1712 32.784 12.1454 31.7993 12.1454 30.5683C12.1454 29.9528 11.653 29.4604 11.0376 29.4604C10.4221 29.4604 9.92969 29.9528 9.92969 30.5683C9.92969 32.9892 11.9402 34.9997 14.4432 34.9997C16.9461 34.9997 18.9567 33.0302 18.9567 30.6093C18.9567 30.5683 18.9157 30.4862 18.9157 30.4452C18.9157 30.4042 18.9567 30.3631 18.9567 30.2811V18.3818C18.6284 18.3408 18.3002 18.3408 17.9719 18.3408C17.6026 18.3408 17.1923 18.3818 16.823 18.3818Z" fill="#213368"/>
<path d="M0.941742 16.3717C1.39309 16.2896 1.84446 16.2486 2.29581 16.2076C2.99335 9.31422 9.43535 2.13362 17.8879 2.17466C26.3405 2.17466 32.7824 9.35524 33.48 16.2486C33.8903 16.2896 34.3416 16.3307 34.793 16.4127C35.4085 16.4948 35.8188 17.0692 35.7367 17.6437C35.6547 18.095 35.3264 18.4233 34.9571 18.5464C35.4495 18.4233 35.7778 18.0129 35.7778 17.5206C35.7778 9.27317 28.1458 0 17.9289 0C7.712 0 0.0390625 9.23215 0.0390625 17.4795V17.5206C0.0390625 16.9461 0.408329 16.4538 0.941742 16.3717Z" fill="#213368"/>
<path d="M34.6739 18.5459C34.7559 18.5459 34.838 18.5049 34.9201 18.5049C34.797 18.5459 34.6739 18.5459 34.5508 18.5459C34.5918 18.5459 34.6328 18.5459 34.6739 18.5459Z" fill="#213368"/>
<path d="M35.7387 17.6026C35.8208 16.9871 35.4104 16.4537 34.795 16.3717C34.3436 16.2896 33.9333 16.2486 33.482 16.2075C33.0306 16.1665 32.6203 16.1665 32.21 16.1665C29.4198 16.1665 26.8348 16.823 25.0704 17.9719C23.265 16.864 20.639 16.1665 17.9719 16.1665C15.1407 16.1665 12.5147 16.864 10.7914 18.0129C8.86287 16.823 6.44201 16.1665 3.73391 16.1665C3.24153 16.1665 2.74913 16.2075 2.25675 16.2075C1.8054 16.2486 1.35405 16.2896 0.902705 16.3717C0.369291 16.4537 0 16.9461 0 17.4795C0 17.5205 0 17.5616 0 17.6436C0 17.7257 0.0410368 17.7667 0.0820686 17.8488C0.0820686 17.8488 0.0820586 17.8898 0.12309 17.8898C0.287218 18.3001 0.656514 18.5463 1.10786 18.5463C1.1489 18.5463 1.23097 18.5463 1.272 18.5463C2.05161 18.4232 2.87224 18.3412 3.73391 18.3412C6.27788 18.3412 8.57564 18.9977 10.1759 20.1876C10.2169 20.2286 10.258 20.2287 10.299 20.2697C10.34 20.3107 10.3811 20.3107 10.4221 20.3517C10.5042 20.3928 10.6272 20.3927 10.7503 20.4338C10.7914 20.4338 10.7914 20.4338 10.8324 20.4338C10.9965 20.4338 11.1607 20.3928 11.2837 20.3107C11.3248 20.3107 11.3248 20.2697 11.3248 20.2697C11.4069 20.2287 11.4479 20.1876 11.53 20.1466C12.6378 19.2028 14.5663 18.5873 16.741 18.3822C17.1513 18.3411 17.5206 18.3412 17.9309 18.3412C18.2592 18.3412 18.5874 18.3411 18.9157 18.3822C21.0904 18.5463 23.183 19.2028 24.3729 20.1466C24.4139 20.1876 24.4139 20.1876 24.455 20.1876C24.537 20.2286 24.6191 20.3107 24.7422 20.3107C24.7832 20.3107 24.7832 20.3107 24.8242 20.3107C24.9063 20.3107 24.9884 20.3517 25.0704 20.3517C25.3166 20.3517 25.5628 20.2697 25.768 20.1055C27.081 18.9977 29.5019 18.3001 32.1689 18.3001C32.8255 18.3001 33.6051 18.3822 34.4257 18.4643H34.4667C34.5898 18.4643 34.7129 18.4643 34.836 18.4233C34.836 18.4233 34.836 18.4233 34.877 18.4233C35.3284 18.3822 35.6567 18.054 35.7387 17.6026Z" fill="#00BDF2"/>
</svg>
