<svg width="61" height="61" viewBox="0 0 61 61" fill="none" xmlns="http://www.w3.org/2000/svg">
<rect x="0.5" y="0.5" width="60" height="60" rx="7.81818" fill="white" stroke="#F6F6F6"/>
<path d="M28.8529 44.6867C37.1357 44.6867 43.8503 37.9721 43.8503 29.6893C43.8503 21.4065 37.1357 14.6919 28.8529 14.6919C20.57 14.6919 13.8555 21.4065 13.8555 29.6893C13.8555 37.9721 20.57 44.6867 28.8529 44.6867Z" fill="white"/>
<path fill-rule="evenodd" clip-rule="evenodd" d="M17.4856 27.9916C17.8268 28.2877 18.1408 28.6136 18.424 28.9656L18.941 29.5762C19.045 29.6798 19.1299 29.8009 19.1917 29.934C19.2324 30.0898 19.2289 30.2536 19.1817 30.4076C18.941 31.562 18.5799 32.8714 19.2586 33.8364C19.4534 34.078 19.6607 34.3093 19.8793 34.5296C20.6909 35.7206 21.0913 37.1441 21.0193 38.5837C20.9461 40.0244 21.3676 41.4471 22.2139 42.6153C22.3443 42.7569 22.5972 42.8783 22.6996 42.7146C22.732 42.6489 22.7404 42.5739 22.7232 42.5027C22.5165 41.8528 22.3604 41.1877 22.2562 40.5136C22.3983 39.679 22.8049 38.912 23.4162 38.3262C24.3505 37.1532 25.0939 35.8404 25.6194 34.436C25.8602 33.9373 25.9212 33.3709 25.7921 32.8324C25.5804 32.2218 24.9619 31.8696 24.4214 31.5129C23.7518 31.0723 23.1373 30.5534 22.5906 29.9674C22.28 29.5781 21.9086 29.2417 21.4907 28.9711C21.2495 28.8101 20.9554 28.7488 20.6699 28.7998C20.3844 28.851 20.1299 29.0106 19.9595 29.2453C19.9221 29.3178 19.8705 29.3821 19.8077 29.4341C19.7448 29.4862 19.6722 29.5251 19.5941 29.5484C19.0947 29.6765 19.0258 28.9823 18.7092 28.657C18.5687 28.5154 18.3749 28.4451 18.2334 28.3081C18.1013 28.1426 18.0048 27.9515 17.9502 27.7469C17.8954 27.5423 17.8837 27.3285 17.9158 27.119C17.9189 27.092 17.9136 27.0647 17.9006 27.0409C17.8877 27.0169 17.8676 26.9976 17.8433 26.9853C17.819 26.9732 17.7916 26.9689 17.7646 26.9728C17.7377 26.9768 17.7126 26.9889 17.6929 27.0077C17.5396 27.1834 17.3595 27.3339 17.1591 27.4534C17.0958 27.4946 17.0204 27.5131 16.9452 27.5058C16.8691 27.479 16.8058 27.4243 16.7679 27.3531C16.4869 26.9492 16.3676 26.4546 16.4337 25.9669C16.507 25.6557 16.683 25.3785 16.9334 25.1799C17.1836 24.9813 17.4937 24.873 17.8133 24.8726C18.9789 24.8915 18.9789 25.607 19.3042 25.7841C19.3279 25.7956 19.3541 25.8007 19.3802 25.7989C19.4064 25.7972 19.4316 25.7887 19.4536 25.7741C19.4754 25.7596 19.493 25.7396 19.5049 25.7162C19.5166 25.6927 19.5219 25.6665 19.5205 25.6403C19.4299 25.1812 19.4457 24.7074 19.5665 24.2553C19.6871 23.8032 19.9097 23.3845 20.2169 23.0317C21.1374 22.0722 22.4534 21.5919 23.4419 20.7027C23.5835 20.6111 23.6941 20.4785 23.7586 20.3227C23.823 20.1669 23.8385 19.9949 23.803 19.8301C23.7621 19.6895 23.6873 19.5613 23.585 19.4565C23.4827 19.3518 23.3562 19.2738 23.2168 19.2294C22.9488 19.1702 22.6709 19.1713 22.4033 19.2329C22.1359 19.2943 21.8854 19.4146 21.67 19.585C21.2809 19.8799 20.8567 20.1257 20.4074 20.317C20.299 20.3787 20.1747 20.4068 20.0502 20.398C19.9258 20.3891 19.8066 20.3437 19.7079 20.2673C19.6092 20.191 19.5352 20.0871 19.4953 19.9689C19.4555 19.8506 19.4514 19.7232 19.4837 19.6028C19.5496 19.404 19.6588 19.2223 19.8036 19.0711C19.9483 18.9197 20.1248 18.8026 20.3206 18.7279C20.5918 18.6335 20.8261 18.4551 20.9892 18.2188C21.0872 18.0192 21.4683 16.263 20.9959 16.0034L20.2748 16.4301L19.8536 16.6797L19.4591 16.9685L18.6713 17.5456C18.4117 17.7452 18.181 17.978 17.9358 18.1919C17.6851 18.3998 17.4477 18.6232 17.2248 18.8605C16.7687 19.3289 16.3433 19.8262 15.9511 20.3494C15.7595 20.6135 15.5544 20.8686 15.3707 21.1373L14.8625 21.973L14.6083 22.3887L14.3966 22.8288L14.2852 23.0517C14.3058 23.9296 14.5325 24.7905 14.9471 25.5647C15.3615 26.339 15.9519 27.005 16.671 27.5091C16.9395 27.6719 17.2283 27.801 17.4823 27.9882L17.4856 27.9916Z" fill="#012B72"/>
<path fill-rule="evenodd" clip-rule="evenodd" d="M28.5327 16.4841C27.2861 16.2613 26.0016 16.4097 24.8386 16.9108L24.8285 16.9555C24.6558 17.3332 25.0013 17.6888 25.1518 18.1388C25.3021 18.5891 25.6565 19.0448 26.1268 19.0303C26.2755 19.0201 26.4209 18.9823 26.5558 18.9189C27.4789 18.5237 28.2468 17.8362 28.741 16.9621C28.8102 16.8385 28.8714 16.6691 28.7723 16.5654C28.7047 16.5106 28.6196 16.4817 28.5327 16.4841ZM29.9378 18.5188C29.9947 18.4326 30.0237 18.3311 30.021 18.228C30.0185 18.1248 29.9844 18.0249 29.9233 17.9417C29.861 17.8593 29.7812 17.7915 29.6898 17.7434C29.5983 17.6952 29.4974 17.6678 29.394 17.663L29.3706 17.6976C29.2699 17.8289 29.217 17.9908 29.2207 18.1564C29.2243 18.3218 29.2843 18.4813 29.3907 18.608C29.4762 18.6656 29.5806 18.6885 29.6826 18.672C29.7844 18.6555 29.8761 18.6008 29.9389 18.5188" fill="#00B7F3"/>
<path fill-rule="evenodd" clip-rule="evenodd" d="M39.6012 20.9911C38.9613 20.8291 38.3647 20.5285 37.8539 20.1108C37.3122 19.7375 34.5019 19.7765 34.0393 20.445C33.6079 21.1286 33.3458 21.9053 33.2749 22.7106C33.1122 23.6166 33.2 24.5499 33.5289 25.4095C33.7002 25.8343 33.9885 26.2017 34.3604 26.4691C34.7322 26.7364 35.1723 26.8926 35.6295 26.9195C36.0697 26.914 36.5801 26.7769 36.8955 27.0822C37.2109 27.3876 37.0904 27.9303 37.2565 28.3425C37.4074 28.6025 37.5789 28.8499 37.7691 29.0824C38.0424 29.7005 38.0962 30.3932 37.9218 31.046C37.7641 31.894 37.6894 32.7554 37.6989 33.618C37.6989 33.6658 37.7045 33.716 37.7079 33.7651L38.4522 33.3003C38.6678 33.1751 38.9138 33.1118 39.1631 33.1174C39.4123 33.1229 39.6553 33.1969 39.8653 33.3316C40.5758 32.6763 41.2037 31.9368 41.7352 31.1295C41.9327 30.8433 42.0814 30.5261 42.1753 30.1913C42.2129 29.662 42.2151 29.1307 42.182 28.6011C42.2934 27.3441 40.2464 21.0981 39.5978 20.99L39.6012 20.9911Z" fill="#012B72"/>
<path fill-rule="evenodd" clip-rule="evenodd" d="M37.9228 35.8558C37.9062 35.9266 37.9133 36.001 37.9429 36.0675C37.9774 36.1154 38.0291 36.1483 38.0872 36.159C38.1454 36.1699 38.2054 36.1578 38.2548 36.1254C38.3533 36.0564 38.428 35.9588 38.4689 35.8458C38.7092 35.3129 38.7826 34.7196 38.6795 34.1442L38.529 34.1006C38.147 34.6072 37.9348 35.2214 37.9228 35.8558Z" fill="#022B72"/>
<path fill-rule="evenodd" clip-rule="evenodd" d="M21.8456 27.0941C21.2885 26.8335 20.3578 26.4813 20.1741 26.7599L20.1562 26.7454C20.2758 27.0283 20.4693 27.2738 20.7167 27.456C20.9639 27.6381 21.2558 27.7504 21.5614 27.7807C21.6953 27.8197 21.8375 27.8197 21.9716 27.7807C22.038 27.7589 22.096 27.7169 22.1373 27.6606C22.1788 27.6042 22.2014 27.5363 22.2022 27.4664C22.1932 27.287 22.0117 27.1721 21.85 27.0952L21.8456 27.0941ZM23.8614 17.2265C23.3976 16.9988 22.8784 16.9087 22.3648 16.9669H22.2701C22.4461 17.1521 22.6842 17.2659 22.9388 17.2868C22.9919 17.289 23.0436 17.3035 23.0902 17.3289C23.1368 17.3545 23.1769 17.3903 23.2074 17.4338C23.2241 17.4847 23.2239 17.5397 23.2069 17.5905C23.1897 17.6413 23.1567 17.6852 23.1126 17.7157C23.0234 17.7743 22.9278 17.8223 22.8274 17.8584C22.7497 17.8947 22.6771 17.9407 22.6111 17.9954C22.5871 18.0122 22.5681 18.0354 22.5566 18.0624C22.5254 18.147 22.6234 18.2195 22.7093 18.2495C23.0421 18.3735 23.4007 18.4119 23.7523 18.3609C23.8784 18.3566 24.0011 18.3175 24.1064 18.2476C24.2117 18.1778 24.2955 18.0801 24.3484 17.9653C24.3658 17.8875 24.3647 17.8066 24.3453 17.7293C24.326 17.6519 24.2889 17.5801 24.237 17.5196C24.131 17.3979 23.9994 17.3013 23.8515 17.2366L23.8614 17.2265ZM29.6918 20.067C29.7167 20.1805 29.7656 20.2874 29.8356 20.3802C29.9189 20.4736 30.02 20.5494 30.133 20.6031C30.2628 20.6888 30.4168 20.7303 30.5722 20.7212C30.6716 20.7021 30.763 20.6538 30.8352 20.5826C30.9072 20.5114 30.9564 20.4203 30.9766 20.3211C31.0126 20.1207 30.9759 19.914 30.8731 19.7383L30.6713 19.6658C30.5223 19.559 30.3493 19.4901 30.1676 19.4653C30.0766 19.4532 29.984 19.4685 29.9019 19.5094C29.8196 19.5503 29.7514 19.6149 29.7063 19.6949C29.6597 19.815 29.6558 19.9476 29.6951 20.0705L29.6918 20.067ZM30.8696 18.0679C30.9118 18.0786 30.9558 18.0786 30.9978 18.0679C31.0707 18.0479 31.1369 18.0085 31.1893 17.9541C31.2417 17.8995 31.2783 17.8317 31.2954 17.7582C31.3099 17.6841 31.3074 17.608 31.2881 17.5351C31.2689 17.4623 31.2332 17.3949 31.1839 17.3379C31.1588 17.3038 31.1246 17.2775 31.0851 17.2622C31.0456 17.2467 31.0027 17.2429 30.961 17.2511L30.8385 17.2566C30.776 17.2663 30.7187 17.2966 30.6754 17.3427C30.6323 17.3886 30.6057 17.4478 30.6 17.5106C30.5843 17.596 30.5894 17.6838 30.6151 17.7667C30.6407 17.8496 30.686 17.925 30.7471 17.9866C30.7829 18.0245 30.8278 18.0529 30.8775 18.069" fill="#00B7F3"/>
<path fill-rule="evenodd" clip-rule="evenodd" d="M44.4406 29.7181C44.441 32.8273 43.5194 35.8667 41.7925 38.4521C40.0654 41.0376 37.6106 43.0528 34.7382 44.243C31.8659 45.4333 28.7051 45.7451 25.6556 45.1389C22.6061 44.5328 19.8049 43.0359 17.6059 40.8378C15.4072 38.6396 13.9096 35.8387 13.3025 32.7894C12.6955 29.74 13.0065 26.5792 14.1958 23.7065C15.3852 20.8338 17.3998 18.3783 19.9847 16.6506C22.5698 14.9229 25.6089 14.0005 28.7181 14C30.7825 13.9997 32.8267 14.406 34.7341 15.1958C36.6414 15.9855 38.3747 17.1433 39.8346 18.6028C41.2946 20.0624 42.4528 21.7952 43.2431 23.7024C44.0334 25.6096 44.4402 27.6536 44.4406 29.7181Z" stroke="#012B72" stroke-width="2.04438" stroke-linecap="round" stroke-linejoin="round"/>
<path fill-rule="evenodd" clip-rule="evenodd" d="M47.2585 46.2656H27.8117C27.462 46.2674 27.1258 46.1501 26.877 45.9393C26.628 45.7287 26.4869 45.4421 26.4844 45.1423V34.7604C26.4853 34.6119 26.5205 34.4649 26.5878 34.328C26.655 34.1912 26.7531 34.0669 26.8764 33.9626C26.9997 33.8582 27.1457 33.7756 27.3062 33.7196C27.4666 33.6636 27.6384 33.6353 27.8117 33.6363H47.2585C47.4318 33.6353 47.6036 33.6636 47.764 33.7196C47.9245 33.7756 48.0705 33.8582 48.1938 33.9626C48.3171 34.0669 48.4152 34.1912 48.4824 34.328C48.5497 34.4649 48.5849 34.6119 48.5858 34.7604V45.1423C48.5849 45.2908 48.5498 45.4378 48.4827 45.5747C48.4155 45.7115 48.3174 45.8358 48.1941 45.9401C48.0707 46.0445 47.9247 46.1269 47.7641 46.1828C47.6036 46.2387 47.4316 46.2668 47.2585 46.2656Z" fill="white"/>
<path fill-rule="evenodd" clip-rule="evenodd" d="M46.7836 46.3015H28.594C28.1559 46.3015 27.7356 46.1275 27.4257 45.8178C27.1158 45.508 26.9416 45.0881 26.9414 44.6499V34.7322C26.9414 34.2939 27.1155 33.8735 27.4254 33.5636C27.7353 33.2537 28.1557 33.0796 28.594 33.0796H46.7836C47.2218 33.0783 47.6426 33.2512 47.9534 33.56C48.2644 33.8688 48.4399 34.2884 48.4418 34.7266V44.6443C48.4422 44.8622 48.3997 45.078 48.3165 45.2793C48.2333 45.4806 48.1111 45.6635 47.957 45.8174C47.803 45.9714 47.62 46.0934 47.4185 46.1764C47.2173 46.2595 47.0015 46.3019 46.7836 46.3015Z" stroke="#00BDF2" stroke-width="2.04438" stroke-linecap="round" stroke-linejoin="round"/>
<path fill-rule="evenodd" clip-rule="evenodd" d="M26.8555 39.0322H48.9989V36.0791H26.8555V39.0322Z" fill="#00BDF2"/>
</svg>
