<svg width="61" height="61" viewBox="0 0 61 61" fill="none" xmlns="http://www.w3.org/2000/svg">
<rect x="0.5" y="0.5" width="60" height="60" rx="7.81818" fill="white" stroke="#F6F6F6"/>
<path d="M14.528 45.9166C14.6152 45.9169 14.7021 45.907 14.7869 45.8872C25.8457 43.3907 29.9092 45.7155 29.9327 45.7296C29.9563 45.7437 29.9763 45.7378 29.9951 45.7495C30.014 45.7613 29.9951 45.7554 30.0057 45.7589C30.0375 45.7766 30.0751 45.7696 30.1081 45.7849C30.2548 45.8572 30.4152 45.8973 30.5786 45.9025C30.6653 45.8918 30.7505 45.8717 30.8327 45.8425C30.9342 45.8319 31.0339 45.8082 31.1292 45.7719C31.1375 45.7719 31.141 45.7566 31.1492 45.7519C31.1574 45.7472 31.1798 45.7519 31.1928 45.7401C31.2328 45.7131 35.2916 43.3872 46.3539 45.8872C46.4388 45.9069 46.5257 45.9168 46.6128 45.9166C46.9248 45.9166 47.224 45.7927 47.4446 45.572C47.6653 45.3514 47.7892 45.0522 47.7892 44.7402V18.3613C47.7889 18.1327 47.722 17.9091 47.5966 17.718C47.4712 17.5268 47.2928 17.3763 47.0833 17.2848C41.7775 15.2491 35.9165 15.1894 30.5704 17.1166C25.2239 15.1914 19.3637 15.2511 14.0575 17.2848C13.848 17.3763 13.6696 17.5268 13.5442 17.718C13.4189 17.9091 13.3519 18.1327 13.3516 18.3613V44.7402C13.3516 45.0522 13.4755 45.3514 13.6962 45.572C13.9168 45.7927 14.216 45.9166 14.528 45.9166Z" fill="white" stroke="#002970" stroke-width="2.14286" stroke-miterlimit="10"/>
<path d="M30.5742 17.335V45.735" stroke="#012B72" stroke-width="2.14286" stroke-miterlimit="10"/>
<path d="M16.4375 36.439H24.1563" stroke="#002970" stroke-width="2.21429" stroke-miterlimit="10" stroke-linecap="round"/>
<path d="M16.4375 32.5801H25.8646" stroke="#002970" stroke-width="2.21429" stroke-miterlimit="10" stroke-linecap="round"/>
<path d="M19.978 28.5274C22.2872 28.5274 24.1592 26.6554 24.1592 24.3462C24.1592 22.037 22.2872 20.165 19.978 20.165C17.6689 20.165 15.7969 22.037 15.7969 24.3462C15.7969 26.6554 17.6689 28.5274 19.978 28.5274Z" fill="#00BAF2"/>
<path d="M18.9382 23.0499C18.9009 23.0525 18.8634 23.0471 18.8284 23.0341C18.7933 23.0211 18.7614 23.0009 18.7347 22.9746C18.6892 22.9267 18.6643 22.863 18.6653 22.797C18.6644 22.7335 18.6885 22.6723 18.7323 22.6264C18.7593 22.5999 18.7916 22.5794 18.8271 22.5662C18.8626 22.5531 18.9004 22.5475 18.9382 22.5499H20.8476C20.8849 22.5474 20.9224 22.5528 20.9574 22.5658C20.9925 22.5787 21.0245 22.599 21.0511 22.6252C21.0966 22.6731 21.1215 22.7369 21.1206 22.8029C21.1205 22.8655 21.0965 22.9257 21.0535 22.9711C21.0266 22.9977 20.9943 23.0182 20.9588 23.0312C20.9232 23.0442 20.8853 23.0494 20.8476 23.0464H20.6123C20.4986 23.0464 20.4064 23.0464 20.3358 23.0464H20.2182C20.2188 23.0477 20.219 23.0491 20.219 23.0505C20.219 23.0519 20.2188 23.0533 20.2182 23.0546C20.2177 23.0559 20.2174 23.0573 20.2174 23.0588C20.2174 23.0602 20.2177 23.0616 20.2182 23.0629C20.2798 23.0959 20.3365 23.1375 20.3864 23.1864C20.442 23.241 20.4867 23.3057 20.5182 23.377H20.8488C20.8861 23.3744 20.9235 23.3798 20.9586 23.3928C20.9937 23.4058 21.0256 23.4261 21.0523 23.4523C21.0977 23.5002 21.1227 23.5639 21.1217 23.6299C21.1217 23.6925 21.0977 23.7527 21.0547 23.7982C21.0278 23.8248 20.9955 23.8452 20.9599 23.8582C20.9244 23.8712 20.8865 23.8764 20.8488 23.8735H20.5794C20.5685 24.0109 20.5284 24.1445 20.4617 24.2652C20.4009 24.3674 20.3211 24.4568 20.2264 24.5288C20.1397 24.5961 20.0428 24.6493 19.9394 24.6864C19.8481 24.72 19.754 24.7452 19.6582 24.7617L20.6076 25.6287C20.6433 25.664 20.6745 25.7035 20.7006 25.7464C20.7279 25.7923 20.7421 25.8448 20.7417 25.8982C20.7432 25.9404 20.7357 25.9825 20.7196 26.0217C20.7036 26.0608 20.6795 26.0961 20.6488 26.1252C20.5828 26.1854 20.4957 26.2171 20.4064 26.2135C20.3343 26.2145 20.2634 26.194 20.2029 26.1546C20.1432 26.1156 20.0869 26.0715 20.0347 26.0229L18.9347 24.9911C18.8741 24.9344 18.819 24.8722 18.77 24.8052C18.7281 24.7466 18.7067 24.676 18.7088 24.604C18.7058 24.5606 18.7124 24.517 18.7281 24.4764C18.7437 24.4357 18.768 24.399 18.7994 24.3688C18.8642 24.312 18.9486 24.2825 19.0347 24.2864H19.0617C19.1465 24.2863 19.2311 24.2792 19.3147 24.2652C19.3932 24.2531 19.4696 24.2302 19.5417 24.197C19.6099 24.1649 19.6714 24.1202 19.7229 24.0652C19.7773 24.0083 19.8176 23.9394 19.8406 23.864H18.9429C18.9056 23.8666 18.8682 23.8612 18.8331 23.8482C18.798 23.8352 18.7661 23.815 18.7394 23.7888C18.7155 23.7652 18.6966 23.7372 18.6837 23.7063C18.6708 23.6754 18.6641 23.6422 18.6641 23.6088C18.6632 23.5453 18.6873 23.4841 18.7311 23.4382C18.7593 23.4136 18.7922 23.3952 18.8279 23.384C18.8635 23.3729 18.9011 23.3693 18.9382 23.3735H19.81C19.7438 23.2596 19.6449 23.1682 19.5262 23.1111C19.4075 23.0541 19.2744 23.034 19.1441 23.0535L18.9382 23.0499Z" fill="white"/>
</svg>
