<svg width="96" height="64" viewBox="0 0 96 64" fill="none" xmlns="http://www.w3.org/2000/svg">
<path d="M0.170898 47.7206H5.16369C6.87329 47.597 8.58486 47.9323 10.1215 48.6917C10.6324 49.0206 11.0452 49.4812 11.3165 50.025C11.5877 50.5687 11.7073 51.1756 11.6628 51.7816C11.6982 52.62 11.4619 53.4475 10.9891 54.1409C10.7796 54.4367 10.5128 54.6872 10.2044 54.8776C9.89596 55.068 9.55237 55.1944 9.19409 55.2491V55.3585C10.0599 55.4947 10.8441 55.9479 11.3945 56.63C11.8763 57.364 12.1127 58.232 12.0696 59.1089C12.1003 59.765 11.9722 60.4188 11.6963 61.0149C11.4204 61.6109 11.0047 62.1316 10.4846 62.5327C9.22698 63.4134 7.7101 63.8463 6.17712 63.762H0.170898V47.7206ZM3.57281 54.0753H5.54865C6.2434 54.1286 6.93872 53.9797 7.55073 53.6466C7.76554 53.4824 7.93511 53.2664 8.04351 53.0187C8.15191 52.771 8.1956 52.4999 8.17046 52.2307C8.19139 51.9695 8.13951 51.7077 8.02058 51.4742C7.90166 51.2407 7.72034 51.0448 7.49677 50.9081C6.83074 50.5955 6.0961 50.4575 5.36201 50.5071H3.57281V54.0753ZM3.57281 56.7758V60.9564H5.78925C6.52112 61.0137 7.25108 60.8243 7.86277 60.4184C8.09488 60.215 8.27635 59.9603 8.39279 59.6745C8.50923 59.3887 8.55742 59.0798 8.53353 58.7721C8.53353 57.4413 7.58233 56.7753 5.67989 56.7744L3.57281 56.7758Z" fill="#002970"/>
<path d="M23.7024 63.7646L23.2518 62.1956H23.0768C22.7068 62.7767 22.1744 63.2365 21.5457 63.5182C20.8399 63.8394 20.0712 63.9988 19.2958 63.9848C18.7019 64.0289 18.1054 63.9487 17.5442 63.7494C16.9831 63.55 16.4697 63.2359 16.0367 62.827C15.2522 61.9016 14.8588 60.707 14.9402 59.4965V51.497H18.294V58.6624C18.2459 59.3589 18.4106 60.0536 18.7665 60.6543C18.9416 60.8818 19.1709 61.0618 19.4336 61.1777C19.6962 61.2936 19.9838 61.3418 20.2698 61.3178C20.6604 61.3511 21.053 61.2821 21.4089 61.1178C21.7648 60.9534 22.0717 60.6992 22.2996 60.3802C22.7926 59.421 23.0092 58.3436 22.9252 57.2684V51.4955H26.279V63.7646H23.7024Z" fill="#002970"/>
<path d="M38.3394 60.121C38.3719 60.671 38.2693 61.2206 38.0405 61.7218C37.8118 62.2231 37.4638 62.6607 37.027 62.9965C35.8584 63.7358 34.4839 64.0818 33.1045 63.9837C32.3399 63.9942 31.5759 63.9336 30.8225 63.8029C30.2161 63.689 29.6236 63.5106 29.0552 63.2706V60.5001C29.7307 60.8096 30.4343 61.0537 31.1564 61.2292C31.8277 61.4104 32.5187 61.5083 33.2139 61.5208C34.4281 61.5208 35.0351 61.1699 35.0351 60.468C35.0401 60.3503 35.0212 60.2328 34.9796 60.1225C34.938 60.0123 34.8746 59.9116 34.7931 59.8264C34.5436 59.6005 34.2626 59.4118 33.959 59.2665C33.5643 59.0584 33.0374 58.8154 32.3783 58.5374C31.6443 58.2555 30.9462 57.8874 30.299 57.4408C29.8866 57.1405 29.5549 56.7427 29.3337 56.283C29.1188 55.7763 29.0158 55.2292 29.0318 54.6791C29.0112 54.1847 29.1167 53.6932 29.3384 53.2509C29.5601 52.8086 29.8906 52.4299 30.299 52.1506C31.3795 51.4967 32.6345 51.1898 33.8948 51.2713C35.3859 51.2742 36.8581 51.6037 38.2081 52.2366L37.1976 54.6513C36.5832 54.3879 36.0087 54.1721 35.4741 54.0039C34.9453 53.8368 34.394 53.7517 33.8394 53.7517C32.8518 53.7517 32.3579 54.019 32.3579 54.5537C32.3646 54.7133 32.4119 54.8686 32.4953 55.0048C32.5788 55.1411 32.6956 55.2538 32.8348 55.3323C33.5009 55.7194 34.2002 56.0463 34.9243 56.3093C35.6684 56.5847 36.376 56.95 37.0314 57.3971C37.4496 57.7007 37.7883 58.101 38.0186 58.5636C38.2413 59.052 38.3509 59.5843 38.3394 60.121Z" fill="#002970"/>
<path d="M40.8115 48.3241C40.8115 47.2343 41.4186 46.6895 42.6328 46.6895C43.847 46.6895 44.4545 47.2343 44.4555 48.3241C44.4688 48.5469 44.4353 48.77 44.3569 48.979C44.2785 49.188 44.1571 49.3782 44.0006 49.5373C43.6191 49.8548 43.1292 50.0117 42.6342 49.9748C41.4191 49.9718 40.8115 49.4216 40.8115 48.3241ZM44.3009 63.7647H40.9471V51.4956H44.3009V63.7647Z" fill="#002970"/>
<path d="M59.1381 63.7651H55.7843V56.5996C55.8325 55.9033 55.6683 55.2087 55.3133 54.6077C55.1381 54.3803 54.9087 54.2004 54.6461 54.0845C54.3835 53.9686 54.096 53.9204 53.8099 53.9442C53.4193 53.9111 53.0268 53.9801 52.671 54.1445C52.3151 54.3089 52.0081 54.563 51.7802 54.8818C51.2874 55.8411 51.0708 56.9184 51.1546 57.9936V63.7665H47.8008V51.4974H50.3584L50.8075 53.0664H50.9942C51.3644 52.4763 51.9006 52.0087 52.5355 51.722C53.2417 51.4083 54.0085 51.2545 54.7811 51.2714C55.3732 51.2292 55.9677 51.3103 56.5269 51.5096C57.0861 51.7089 57.5979 52.022 58.0299 52.4292C58.8232 53.3548 59.2212 54.5551 59.1381 55.7713V63.7651Z" fill="#002970"/>
<path d="M68.1341 63.9833C67.2925 64.0335 66.4493 63.9152 65.6541 63.6352C64.8588 63.3553 64.1275 62.9194 63.5029 62.353C62.923 61.7362 62.4757 61.0069 62.1888 60.2103C61.9019 59.4138 61.7814 58.5668 61.8348 57.7219C61.7241 55.9943 62.2751 54.2895 63.376 52.9536C63.9236 52.3826 64.588 51.9365 65.3239 51.6461C66.0598 51.3557 66.8498 51.2277 67.6397 51.2709C68.3802 51.2266 69.122 51.3353 69.8186 51.5901C70.5153 51.845 71.152 52.2407 71.6891 52.7524C72.1909 53.3039 72.5776 53.9499 72.8265 54.6528C73.0754 55.3556 73.1815 56.1011 73.1385 56.8455V58.4699H65.2265C65.2136 59.2933 65.5162 60.0905 66.0722 60.698C66.3676 60.9754 66.7166 61.1896 67.0977 61.3272C67.4789 61.4649 67.8841 61.5232 68.2886 61.4985C68.9936 61.5023 69.6967 61.425 70.384 61.2681C71.0953 61.0977 71.7869 60.8533 72.4474 60.5391V63.1288C71.852 63.4248 71.2214 63.6438 70.5707 63.7806C69.7677 63.9325 68.9511 64.0005 68.1341 63.9833ZM67.6616 53.6448C67.3511 53.6281 67.0406 53.6799 66.7524 53.7966C66.4641 53.9133 66.205 54.0919 65.9935 54.3199C65.5556 54.863 65.3123 55.537 65.3023 56.2345H69.9991C70.0302 55.5378 69.7992 54.8548 69.3517 54.3199C69.1348 54.0929 68.8716 53.9153 68.58 53.799C68.2884 53.6828 67.9752 53.6307 67.6616 53.6462V53.6448Z" fill="#002970"/>
<path d="M84.4219 60.1205C84.4543 60.6705 84.3517 61.2201 84.1229 61.7213C83.8942 62.2225 83.5462 62.6601 83.1095 62.996C81.9409 63.7353 80.5664 64.0812 79.187 63.9832C78.4224 63.9937 77.6585 63.9332 76.905 63.8024C76.2986 63.6886 75.7061 63.5102 75.1377 63.2702V60.4996C75.8132 60.8092 76.5168 61.0534 77.2389 61.2287C77.9102 61.4099 78.6012 61.5079 79.2964 61.5204C80.5106 61.5204 81.1182 61.1694 81.1191 60.4676C81.1241 60.3498 81.1052 60.2323 81.0636 60.122C81.022 60.0118 80.9586 59.9111 80.8771 59.826C80.6274 59.6003 80.3464 59.4117 80.043 59.266C79.6483 59.058 79.1214 58.8149 78.4623 58.5369C77.7283 58.255 77.0303 57.8869 76.383 57.4404C75.9706 57.1401 75.6389 56.7423 75.4177 56.2826C75.2028 55.7759 75.0998 55.2287 75.1158 54.6786C75.0952 54.1843 75.2007 53.6928 75.4224 53.2505C75.644 52.8081 75.9746 52.4295 76.383 52.1501C77.4614 51.4913 78.716 51.1793 79.9774 51.2562C81.4679 51.2593 82.9397 51.5888 84.2892 52.2215L83.2801 54.6363C82.6658 54.3728 82.0912 54.157 81.5566 53.9889C81.0278 53.8218 80.4765 53.7367 79.922 53.7366C78.9343 53.7366 78.4405 54.0039 78.4405 54.5386C78.4474 54.6983 78.495 54.8537 78.5787 54.9899C78.6624 55.1262 78.7794 55.2388 78.9187 55.3173C79.5854 55.7043 80.2851 56.0313 81.0098 56.2943C81.7544 56.5739 82.462 56.9436 83.1168 57.3952C83.5351 57.6988 83.8737 58.099 84.104 58.5617C84.3257 59.0509 84.4343 59.5836 84.4219 60.1205Z" fill="#002970"/>
<path d="M95.5918 60.1205C95.6242 60.6704 95.5216 61.22 95.2928 61.7212C95.0641 62.2224 94.7162 62.6601 94.2795 62.996C93.1108 63.7352 91.7363 64.0811 90.357 63.9832C89.5923 63.9937 88.8284 63.9331 88.0749 63.8023C87.4685 63.6884 86.8761 63.51 86.3076 63.2701V60.4996C86.9831 60.8091 87.6868 61.0532 88.4089 61.2287C89.0802 61.4098 89.7712 61.5077 90.4663 61.5203C91.6805 61.5203 92.2876 61.1694 92.2876 60.4675C92.2927 60.3499 92.2741 60.2324 92.2327 60.1222C92.1914 60.0119 92.1282 59.9112 92.047 59.8259C91.7973 59.6002 91.5164 59.4116 91.2129 59.266C90.8173 59.0579 90.2904 58.8149 89.6323 58.5369C88.8982 58.2549 88.2002 57.8868 87.5529 57.4403C87.1406 57.1398 86.809 56.7421 86.5876 56.2825C86.3727 55.7758 86.2698 55.2287 86.2857 54.6785C86.2651 54.1842 86.3706 53.6927 86.5923 53.2504C86.814 52.8081 87.1445 52.4294 87.5529 52.15C88.6314 51.4914 89.8859 51.1795 91.1473 51.2562C92.6383 51.2591 94.1106 51.5886 95.4606 52.2215L94.4501 54.6362C93.8357 54.3728 93.2612 54.157 92.7265 53.9888C92.1973 53.8216 91.6455 53.7365 91.0904 53.7365C90.1028 53.7365 89.6089 54.0039 89.6089 54.5385C89.6157 54.6981 89.6631 54.8534 89.7465 54.9896C89.8299 55.1259 89.9467 55.2386 90.0857 55.3172C90.7524 55.7043 91.4522 56.0312 92.1768 56.2942C92.9209 56.5695 93.6285 56.9348 94.2838 57.382C94.7023 57.6854 95.041 58.0857 95.271 58.5485C95.4959 59.0414 95.6056 59.5789 95.5918 60.1205Z" fill="#002970"/>
<path d="M33.0583 39.5446H0V41.8704H33.0583V39.5446Z" fill="#002970"/>
<path d="M33.0583 37.321H0V39.6468H33.0583V37.321Z" fill="#00BAF2"/>
<path d="M95.5373 39.5446H62.479V41.8704H95.5373V39.5446Z" fill="#002970"/>
<path d="M95.5373 37.321H62.479V39.6468H95.5373V37.321Z" fill="#00BAF2"/>
<path d="M94.831 8.78289C94.397 7.54378 93.5884 6.47028 92.5172 5.71107C91.4461 4.95186 90.1654 4.54451 88.8524 4.54543H88.7956C87.9425 4.5445 87.0981 4.71652 86.3134 5.05111C85.5287 5.38569 84.8199 5.8759 84.23 6.49209C83.6403 5.87601 82.9318 5.38586 82.1473 5.05127C81.3629 4.71669 80.5187 4.54461 79.6659 4.54543H79.609C78.0936 4.54383 76.6282 5.08784 75.481 6.07797V5.59386C75.4647 5.35877 75.36 5.13857 75.188 4.97758C75.0159 4.81659 74.7892 4.72679 74.5535 4.72624H70.3248C70.2018 4.72624 70.0799 4.7505 69.9662 4.79764C69.8526 4.84478 69.7493 4.91386 69.6624 5.00095C69.5754 5.08803 69.5065 5.1914 69.4595 5.30515C69.4126 5.4189 69.3885 5.54079 69.3887 5.66385V28.6651C69.3887 28.9134 69.4873 29.1515 69.6629 29.3271C69.8384 29.5026 70.0766 29.6013 70.3248 29.6013H74.5535C74.7794 29.6009 74.9975 29.5187 75.1674 29.3699C75.3374 29.2211 75.4477 29.0158 75.478 28.792V12.284C75.478 12.2286 75.478 12.1731 75.478 12.1177C75.5082 11.745 75.6727 11.3958 75.9409 11.1352C76.2091 10.8745 76.5627 10.72 76.9362 10.7004H77.7193C78.0447 10.7233 78.3557 10.8437 78.6117 11.046C78.7953 11.1953 78.9425 11.3846 79.0421 11.5993C79.1416 11.8141 79.1909 12.0488 79.1862 12.2854L79.2022 28.7133C79.2022 28.9617 79.3008 29.1999 79.4763 29.3757C79.6518 29.5515 79.89 29.6505 80.1384 29.6509H84.3671C84.6085 29.6523 84.8411 29.5604 85.0164 29.3944C85.1916 29.2283 85.296 29.001 85.3076 28.7599V12.2665C85.3021 12.0058 85.3624 11.748 85.4829 11.5168C85.6035 11.2856 85.7804 11.0886 85.9973 10.9439C86.231 10.793 86.4986 10.7028 86.776 10.6814H87.5576C87.9603 10.7026 88.339 10.88 88.6129 11.176C88.8869 11.4721 89.0345 11.8633 89.0245 12.2665L89.042 28.6724C89.042 28.9207 89.1406 29.1588 89.3162 29.3344C89.4918 29.5099 89.7299 29.6086 89.9782 29.6086H94.2069C94.3299 29.6088 94.4518 29.5847 94.5655 29.5377C94.6793 29.4908 94.7827 29.4218 94.8697 29.3349C94.9568 29.2479 95.0259 29.1447 95.0731 29.031C95.1202 28.9173 95.1445 28.7955 95.1445 28.6724V11.0285C95.1819 10.2678 95.073 9.50693 94.8237 8.78726" fill="#00BAF2"/>
<path d="M66.1575 4.7872H63.7355V0.860325C63.7361 0.747675 63.7144 0.636018 63.6717 0.531759C63.6291 0.4275 63.5662 0.332687 63.4868 0.25276C63.4075 0.172833 63.3131 0.109363 63.2091 0.065988C63.1052 0.0226133 62.9937 0.000190438 62.881 0C62.827 0.000634155 62.7732 0.00698913 62.7206 0.018957C60.0332 0.748046 60.5742 4.47514 55.6703 4.79303H55.1935C55.1248 4.79316 55.0563 4.80098 54.9893 4.81636C54.7826 4.86325 54.5978 4.97895 54.4654 5.14452C54.3329 5.31008 54.2606 5.51569 54.2603 5.72772V9.95643C54.2603 10.2049 54.3588 10.4431 54.5344 10.6189C54.7099 10.7947 54.948 10.8937 55.1964 10.894H57.7526V28.8515C57.7524 28.9731 57.7762 29.0935 57.8225 29.206C57.8689 29.3184 57.9369 29.4205 58.0228 29.5067C58.1086 29.5928 58.2106 29.6611 58.3228 29.7079C58.4351 29.7546 58.5555 29.7787 58.6771 29.7789H62.865C63.1107 29.7785 63.3462 29.6806 63.5198 29.5068C63.6934 29.3329 63.7909 29.0972 63.7909 28.8515V10.8955H66.1634C66.2863 10.8953 66.408 10.8709 66.5215 10.8237C66.635 10.7765 66.7381 10.7073 66.8249 10.6203C66.9117 10.5332 66.9805 10.4299 67.0273 10.3162C67.0742 10.2026 67.0982 10.0808 67.098 9.95789V5.72918C67.098 5.48128 66.9996 5.24354 66.8243 5.06825C66.649 4.89296 66.4113 4.79448 66.1634 4.79448" fill="#00BAF2"/>
<path d="M50.9231 4.78765H46.6944C46.4464 4.78765 46.2085 4.88608 46.0329 5.06133C45.8574 5.23657 45.7586 5.47431 45.7583 5.72234V14.4816C45.7544 14.7418 45.6485 14.9901 45.4632 15.1728C45.278 15.3556 45.0284 15.4582 44.7681 15.4586H42.9921C42.8617 15.4586 42.7327 15.4329 42.6123 15.383C42.4919 15.3331 42.3825 15.2599 42.2904 15.1677C42.1983 15.0754 42.1253 14.9659 42.0756 14.8455C42.0258 14.725 42.0003 14.5959 42.0005 14.4656L41.9816 5.71651C41.9812 5.46848 41.8824 5.23075 41.7069 5.0555C41.5313 4.88025 41.2934 4.78182 41.0454 4.78182H36.8167C36.6938 4.78163 36.572 4.80565 36.4583 4.85252C36.3447 4.89939 36.2414 4.96819 36.1543 5.05498C36.0672 5.14178 35.9981 5.24487 35.9509 5.35838C35.9037 5.47188 35.8793 5.59358 35.8791 5.71651V15.3142C35.845 16.1431 35.983 16.9701 36.2843 17.7431C36.5855 18.516 37.0436 19.2183 37.6296 19.8055C38.2156 20.3927 38.9168 20.8523 39.6892 21.1552C40.4615 21.4581 41.2882 21.5977 42.1172 21.5654C42.1172 21.5654 44.8542 21.5654 44.9387 21.5829C45.1804 21.6079 45.4043 21.7211 45.5676 21.901C45.7308 22.0809 45.8219 22.3147 45.8234 22.5576C45.8248 22.8005 45.7365 23.0354 45.5754 23.2172C45.4143 23.399 45.1917 23.5149 44.9504 23.5427L44.8804 23.5544L38.6861 23.5777C38.4378 23.5777 38.1997 23.6764 38.0241 23.8519C37.8486 24.0275 37.7499 24.2656 37.7499 24.5139V28.7426C37.7499 28.9909 37.8486 29.229 38.0241 29.4045C38.1997 29.5801 38.4378 29.6787 38.6861 29.6787H45.6168C46.446 29.7122 47.2731 29.5736 48.0461 29.2716C48.819 28.9696 49.5211 28.5108 50.1079 27.9241C50.6948 27.3374 51.1538 26.6354 51.4559 25.8625C51.7581 25.0897 51.8969 24.2626 51.8636 23.4334V5.72234C51.8636 5.59947 51.8394 5.47781 51.7923 5.36432C51.7453 5.25082 51.6763 5.14771 51.5894 5.0609C51.5024 4.97409 51.3992 4.90527 51.2856 4.85839C51.1721 4.8115 51.0504 4.78746 50.9275 4.78765" fill="#002970"/>
<path d="M10.3017 4.78585H1.04522C0.801577 4.78585 0.56791 4.88263 0.395629 5.05492C0.223349 5.2272 0.12656 5.46086 0.12656 5.7045V9.85156C0.125782 9.85688 0.125782 9.86228 0.12656 9.8676C0.12656 9.89676 0.12656 9.91572 0.12656 9.93759V28.7116C0.119287 28.9487 0.20456 29.1793 0.364324 29.3545C0.524088 29.5298 0.745797 29.636 0.982507 29.6507H5.29726C5.54555 29.6507 5.78365 29.5521 5.95921 29.3765C6.13478 29.2009 6.23341 28.9628 6.23341 28.7145L6.24945 22.2767H10.3017C11.0674 22.3136 11.8323 22.1899 12.5473 21.9136C13.2623 21.6373 13.9116 21.2145 14.4535 20.6724C14.9954 20.1302 15.4178 19.4807 15.6938 18.7655C15.9697 18.0504 16.093 17.2854 16.0557 16.5198V10.5413C16.0931 9.77521 15.97 9.00979 15.6942 8.29411C15.4185 7.57842 14.9961 6.92829 14.4543 6.38541C13.9126 5.84252 13.2633 5.41889 12.5482 5.14167C11.833 4.86445 11.0679 4.73978 10.3017 4.77564V4.78585ZM9.92988 12.5361V15.1491C9.92988 15.4122 9.82547 15.6646 9.63955 15.8508C9.45364 16.037 9.20144 16.1417 8.93832 16.1421H6.24945V10.9219H8.93832C9.20144 10.9222 9.45364 11.027 9.63955 11.2132C9.82547 11.3994 9.92988 11.6518 9.92988 11.9149V12.5361Z" fill="#002970"/>
<path d="M26.8268 4.81073H20.9518C20.7112 4.80322 20.4774 4.89087 20.301 5.05466C20.1247 5.21845 20.02 5.44518 20.0098 5.68564V7.33192V7.36546C20.0098 7.37567 20.0098 7.38733 20.0098 7.38733V9.65771C20.0193 9.91339 20.1297 10.1549 20.317 10.3293C20.5042 10.5036 20.7529 10.5967 21.0086 10.588H26.6037C26.8257 10.6171 27.0309 10.7222 27.1842 10.8854C27.3376 11.0486 27.4298 11.2599 27.445 11.4834V12.0287C27.4321 12.2471 27.3433 12.454 27.1939 12.6138C27.0445 12.7736 26.844 12.8761 26.627 12.9036H23.8565C23.0482 12.8437 22.2363 12.9516 21.4717 13.2205C20.7071 13.4894 20.0064 13.9135 19.4136 14.4662C18.8208 15.0189 18.3487 15.6882 18.0269 16.4321C17.7052 17.176 17.5408 17.9783 17.544 18.7888V23.7204C17.4996 24.5058 17.6227 25.2918 17.9053 26.026C18.1878 26.7603 18.6232 27.426 19.1827 27.9791C19.7421 28.5322 20.4128 28.9601 21.1502 29.2342C21.8876 29.5083 22.6749 29.6225 23.4598 29.5691H31.1415C31.7817 29.5904 32.4041 29.3565 32.8719 28.919C33.3398 28.4816 33.6148 27.8762 33.6364 27.236V11.1684C33.6364 7.27213 31.6271 4.81073 26.8268 4.81073ZM27.5019 22.4897V23.1502C27.5011 23.2027 27.4953 23.2549 27.4844 23.3063C27.4757 23.3531 27.4625 23.399 27.445 23.4433C27.3727 23.6336 27.2434 23.7969 27.0748 23.9109C26.9062 24.025 26.7066 24.0842 26.503 24.0805H24.7401C24.4843 24.0892 24.2355 23.9959 24.0485 23.8212C23.8614 23.6464 23.7515 23.4046 23.7427 23.1488V22.3497V22.3205V20.1945V19.5252C23.7533 19.2704 23.8641 19.0301 24.0508 18.8565C24.2375 18.6829 24.4852 18.5899 24.7401 18.5978H26.5045C26.7606 18.5895 27.0095 18.6831 27.1967 18.858C27.384 19.033 27.4942 19.275 27.5034 19.531L27.5019 22.4897Z" fill="#002970"/>
<path d="M43.5194 36.0582H42.1371V35.5916C42.1371 35.1206 42.3281 34.8436 42.8939 34.8436C43.1047 34.8459 43.314 34.8793 43.515 34.9427L43.8548 33.4918C43.4111 33.3667 42.9524 33.3024 42.4914 33.3008C42.1866 33.2712 41.8789 33.3088 41.5902 33.4111C41.3015 33.5135 41.0388 33.678 40.8207 33.893C40.6026 34.1081 40.4344 34.3684 40.328 34.6556C40.2216 34.9428 40.1796 35.2499 40.205 35.5552V36.0582H39.2222V37.5091H40.205V43.0196H42.1356V37.5091H43.518L43.5194 36.0582ZM47.7248 43.1552C48.1944 43.1763 48.6631 43.0966 49.0993 42.9215C49.5355 42.7463 49.9292 42.4798 50.2539 42.1398C50.5785 41.7998 50.8266 41.3943 50.9814 40.9505C51.1363 40.5066 51.1942 40.0347 51.1515 39.5666C51.1958 39.0977 51.139 38.6247 50.9848 38.1796C50.8307 37.7345 50.5828 37.3277 50.258 36.9865C49.9332 36.6454 49.539 36.378 49.102 36.2022C48.665 36.0265 48.1953 35.9466 47.7248 35.9678C47.2543 35.9466 46.7846 36.0265 46.3476 36.2022C45.9106 36.378 45.5164 36.6454 45.1916 36.9865C44.8667 37.3277 44.6189 37.7345 44.4648 38.1796C44.3106 38.6247 44.2538 39.0977 44.2981 39.5666C44.2553 40.0347 44.3133 40.5066 44.4682 40.9505C44.623 41.3943 44.8711 41.7998 45.1957 42.1398C45.5204 42.4798 45.914 42.7463 46.3503 42.9215C46.7865 43.0966 47.2552 43.1763 47.7248 43.1552ZM47.7335 41.6591C46.7595 41.6591 46.2608 40.7667 46.2608 39.552C46.2608 38.3374 46.7595 37.4406 47.7335 37.4406C48.7076 37.4406 49.1917 38.3374 49.1917 39.552C49.1917 40.7667 48.6901 41.6591 47.7335 41.6591ZM52.5382 43.0196H54.4689V39.0825C54.4629 38.8877 54.4975 38.6937 54.5705 38.513C54.6435 38.3323 54.7533 38.1687 54.8929 38.0327C55.0325 37.8967 55.1988 37.7911 55.3814 37.7229C55.5639 37.6546 55.7587 37.625 55.9533 37.636C56.2283 37.6358 56.5022 37.6706 56.7684 37.7395V36.0262C56.5692 35.982 56.3659 35.959 56.1618 35.9576C55.775 35.9521 55.398 36.0794 55.0936 36.3182C54.7892 36.557 54.576 36.893 54.4893 37.27H54.4164V36.0553H52.5382V43.0196Z" fill="#002970"/>
</svg>
