<svg width="102" height="39" viewBox="0 0 102 39" fill="none" xmlns="http://www.w3.org/2000/svg">
<path d="M42.1055 22.5845H44.9663V35.9913H51.9222V38.3847H42.1055V22.5845Z" fill="#242F62"/>
<path d="M53.5547 32.513C53.5547 28.8481 55.7611 26.3799 59.239 26.3799C62.7169 26.3799 64.9234 28.8294 64.9234 32.513C64.9234 36.1779 62.7169 38.6274 59.239 38.6274C55.7611 38.6274 53.5547 36.1779 53.5547 32.513ZM62.0812 32.513C62.0812 30.344 61.1463 28.605 59.2577 28.605C57.3318 28.605 56.3969 30.344 56.3969 32.513C56.3969 34.682 57.3318 36.4023 59.2577 36.4023C61.1463 36.3836 62.0812 34.682 62.0812 32.513Z" fill="#242F62"/>
<path d="M66.5039 35.0747C66.5039 32.4008 68.7103 31.7089 71.0102 31.4659C73.1045 31.2415 73.9459 31.2041 73.9459 30.4001V30.3627C73.9459 29.2034 73.2354 28.5302 71.9452 28.5302C70.5802 28.5302 69.7948 29.2221 69.5144 30.0261L66.8966 29.6521C67.5136 27.4831 69.4209 26.3799 71.9265 26.3799C74.189 26.3799 76.7507 27.3148 76.7507 30.4562V38.3843H74.0394V36.7575H73.9459C73.441 37.7486 72.3191 38.6274 70.468 38.6274C68.2055 38.6274 66.5039 37.3933 66.5039 35.0747ZM73.9459 34.1397V32.7374C73.5906 33.0365 72.1134 33.2235 71.3842 33.317C70.1314 33.4853 69.1965 33.9341 69.1965 35.0186C69.1965 36.047 70.0379 36.5706 71.1972 36.5706C72.8801 36.5892 73.9459 35.4673 73.9459 34.1397Z" fill="#242F62"/>
<path d="M82.122 38.4033H79.3359V26.5485H82.0098V28.5679H82.1407C82.683 27.2404 83.8984 26.3989 85.6747 26.3989C88.1242 26.3989 89.751 28.0257 89.7323 30.8679V38.422H86.9462V31.2979C86.9462 29.7086 86.0861 28.7736 84.6463 28.7736C83.1691 28.7736 82.1407 29.7646 82.1407 31.4662V38.4033H82.122Z" fill="#242F62"/>
<path d="M99.1962 29.9516C98.9718 29.1663 98.2986 28.4745 97.0084 28.4745C95.8491 28.4745 94.9516 29.0354 94.9703 29.8394C94.9703 30.5313 95.4378 30.9427 96.6532 31.2044L98.6726 31.6345C100.916 32.1207 102.001 33.1491 102.001 34.8506C102.001 37.0945 99.9067 38.6277 96.9336 38.6277C94.0167 38.6277 92.2029 37.3375 91.8477 35.1685L94.5776 34.9067C94.8207 35.9725 95.6434 36.5335 96.9336 36.5335C98.2612 36.5335 99.1401 35.9164 99.1401 35.1124C99.1401 34.4393 98.6352 34.0092 97.5507 33.7661L95.5313 33.3361C93.25 32.8686 92.1842 31.728 92.2029 29.989C92.2029 27.8013 94.1476 26.3989 96.9897 26.3989C99.7758 26.3989 101.365 27.6891 101.758 29.6899L99.1962 29.9516Z" fill="#242F62"/>
<path d="M101.759 6.20464C101.217 4.65267 99.7395 3.53076 98.0006 3.53076H97.9632C96.8413 3.53076 95.8129 3.99822 95.0836 4.76486C94.3544 4.01692 93.3447 3.53076 92.204 3.53076H92.1853C91.1943 3.53076 90.2781 3.88603 89.5863 4.50308V4.20391C89.5676 3.90473 89.3058 3.66165 89.0066 3.66165H86.3327C86.0149 3.66165 85.7344 3.92343 85.7344 4.26V18.7326C85.7344 19.0505 85.9962 19.331 86.3327 19.331H89.0066C89.3058 19.331 89.5489 19.1066 89.5863 18.8261V8.42976C89.5863 8.39237 89.5863 8.35497 89.5863 8.31757C89.6237 7.85011 89.9602 7.47614 90.5025 7.42004H90.596H90.8765H90.9886C91.213 7.43874 91.4 7.51354 91.5496 7.64443C91.774 7.83141 91.9049 8.11189 91.9049 8.42976L91.9236 18.77C91.9236 19.0879 92.1853 19.3684 92.5219 19.3684H95.1771C95.495 19.3684 95.7568 19.1253 95.7568 18.8074V8.42976C95.7568 8.09319 95.9063 7.77532 96.1868 7.58833C96.3177 7.49484 96.486 7.43874 96.673 7.42004H96.7665H97.047H97.1591C97.7388 7.47614 98.0754 7.90621 98.0754 8.41106L98.0941 18.7326C98.0941 19.0505 98.3558 19.331 98.6924 19.331H101.366C101.684 19.331 101.965 19.0692 101.965 18.7326C101.965 18.7326 101.965 8.44846 101.965 7.62573C101.965 6.85909 101.871 6.52252 101.759 6.20464Z" fill="#00B4EC"/>
<path d="M83.7207 3.68038H82.1875V1.21218C82.1875 0.913002 81.9444 0.669922 81.6452 0.669922C81.6078 0.669922 81.5704 0.669922 81.5517 0.68862C79.8689 1.15608 80.2054 3.49339 77.1202 3.69907H77.0454H76.821C76.7836 3.69907 76.7275 3.69907 76.6901 3.71777C76.4283 3.77387 76.2227 4.01695 76.2227 4.29743V6.97131C76.2227 7.28918 76.4844 7.56966 76.821 7.56966H78.4291V18.8635C78.4291 19.1814 78.6909 19.4432 79.0087 19.4432H81.6452C81.9631 19.4432 82.2249 19.1814 82.2249 18.8635V7.56966H83.7207C84.0386 7.56966 84.3191 7.30788 84.3191 6.97131V4.27873C84.3004 3.94215 84.0386 3.68038 83.7207 3.68038Z" fill="#00B4EC"/>
<path d="M74.1277 3.68115H71.4538C71.136 3.68115 70.8742 3.94293 70.8742 4.2795V9.79555C70.8742 10.1321 70.5937 10.4126 70.2571 10.4126H69.1352C68.7987 10.4126 68.5182 10.1321 68.5182 9.79555L68.4995 4.2982C68.4995 3.98033 68.2377 3.69985 67.9011 3.69985H65.2273C64.9094 3.69985 64.6289 3.96163 64.6289 4.2982V10.3378C64.6289 12.6377 66.2557 14.2645 68.5556 14.2645C68.5556 14.2645 70.2758 14.2645 70.3319 14.2832C70.6498 14.3206 70.8929 14.5824 70.8929 14.9002C70.8929 15.2181 70.6498 15.4799 70.3506 15.5173C70.3319 15.5173 70.3132 15.5173 70.3132 15.5173L66.4053 15.536C66.0874 15.536 65.8069 15.7978 65.8069 16.1343V18.8082C65.8069 19.1261 66.0687 19.3879 66.4053 19.3879H70.762C73.0619 19.3879 74.6887 17.7611 74.6887 15.4612V4.2795C74.7261 3.94293 74.4456 3.68115 74.1277 3.68115Z" fill="#242F62"/>
<path d="M48.5698 3.68066H42.7359C42.418 3.68066 42.1562 3.94244 42.1562 4.26032V6.8781V6.8968C42.1562 6.9155 42.1562 6.9342 42.1562 6.9342V15.3111V18.7516C42.1562 19.0695 42.3993 19.3313 42.6985 19.35H42.7546H45.4285C45.7464 19.35 46.0268 19.0882 46.0268 18.7516L46.0081 14.6941H48.5511C50.6828 14.6941 52.1786 13.2169 52.1786 11.0666V7.30817C52.1786 5.17654 50.7015 3.68066 48.5698 3.68066ZM48.3267 8.56097V9.81376V10.2064C48.3267 10.543 48.0463 10.8235 47.7097 10.8235H46.0268V7.55125H47.7097C48.0463 7.55125 48.3267 7.83172 48.3267 8.1683V8.56097Z" fill="#242F62"/>
<path d="M58.962 3.69873H55.2597C54.9418 3.69873 54.6613 3.94181 54.6613 4.25968V5.2881V5.3068V5.3255V6.74658C54.6613 7.06446 54.9418 7.32623 55.2971 7.32623H58.8124C59.0929 7.36363 59.3173 7.56931 59.336 7.88719V8.22376C59.2986 8.52294 59.0929 8.74732 58.8124 8.76602H57.0735C54.7548 8.76602 53.1094 10.2993 53.1094 12.4683V15.4975V15.5723C53.1094 17.7226 54.5305 19.2559 56.8304 19.2559H61.6733C62.5334 19.2559 63.2439 18.6014 63.2439 17.7974V7.7002C63.2439 5.2507 61.9911 3.69873 58.962 3.69873ZM59.3921 14.8243V15.2357C59.3921 15.2731 59.3921 15.3105 59.3734 15.3292C59.3734 15.3666 59.3547 15.3853 59.3547 15.4227C59.2799 15.6471 59.0368 15.8153 58.7563 15.8153H57.6531C57.2978 15.8153 57.0174 15.5536 57.0174 15.2357V14.7308V14.7121V13.3658V13.2163V12.9545C57.0174 12.6366 57.2978 12.3748 57.6531 12.3748H58.7563C59.1116 12.3748 59.3921 12.6366 59.3921 12.9545V14.8243Z" fill="#242F62"/>
<path d="M24.4401 21.0886C29.2456 21.0886 33.1535 17.1993 33.1535 12.3751C33.1535 7.5509 29.2456 3.66162 24.4401 3.66162C19.6345 3.66162 15.7266 7.5696 15.7266 12.3751C15.7266 17.1806 19.6345 21.0886 24.4401 21.0886Z" fill="#00B4EC"/>
<path d="M21.091 9.81344C20.9975 9.92563 20.9414 10.0565 20.9414 10.1874C20.9414 10.337 20.9975 10.4679 21.091 10.5801C21.1845 10.6923 21.3341 10.7484 21.5585 10.7484H24.7372C24.6811 11.0849 24.5689 11.3654 24.4006 11.5711C24.2323 11.7768 24.008 11.9638 23.7462 12.1134C23.4844 12.2629 23.2039 12.3564 22.886 12.4125C22.5682 12.4686 22.2503 12.506 21.9324 12.506H21.7267C21.5211 12.506 21.3715 12.5621 21.2406 12.693C21.1097 12.8239 21.0536 12.9922 21.0536 13.1792C21.0536 13.2914 21.0723 13.4036 21.1284 13.5157C21.1845 13.6279 21.2593 13.7401 21.3715 13.8336L25.5225 17.8912C25.6347 18.0034 25.7469 18.0782 25.8591 18.1156C25.9713 18.153 26.0835 18.1717 26.1957 18.1717C26.4201 18.1717 26.5883 18.0969 26.7192 17.966C26.8501 17.8351 26.9062 17.6668 26.9062 17.4611C26.9062 17.2554 26.8314 17.0685 26.6631 16.9002L23.1291 13.5157C23.4657 13.4783 23.821 13.4036 24.1762 13.2914C24.5315 13.1792 24.8681 13.0109 25.1673 12.7865C25.4664 12.5621 25.7095 12.2816 25.9339 11.9451C26.1396 11.6085 26.2705 11.1971 26.3266 10.711H27.355C27.5607 10.711 27.7103 10.6549 27.8224 10.5427C27.9159 10.4305 27.972 10.2996 27.972 10.1687C27.972 10.0191 27.9159 9.88824 27.8224 9.77605C27.729 9.66386 27.5607 9.60776 27.355 9.60776H26.2518C26.1396 9.27119 25.99 8.99071 25.7843 8.78503C25.5786 8.56065 25.3542 8.41106 25.1486 8.31757V8.26147C25.2047 8.28017 25.3542 8.28017 25.5973 8.29887C25.8404 8.31757 26.1583 8.31757 26.5136 8.31757H27.355C27.5607 8.31757 27.7103 8.26147 27.8224 8.14928C27.9159 8.03709 27.972 7.9062 27.972 7.77531C27.972 7.64442 27.9159 7.49483 27.8224 7.38264C27.729 7.27045 27.5607 7.21436 27.355 7.21436H21.5772C21.3715 7.21436 21.2219 7.27045 21.1097 7.38264C21.0162 7.49483 20.9601 7.62572 20.9601 7.75661C20.9601 7.9062 21.0162 8.03709 21.1097 8.14928C21.2032 8.26147 21.3528 8.31757 21.5772 8.31757H22.2877C23.6153 8.31757 24.4006 8.74763 24.6811 9.62646H21.5959C21.3341 9.64516 21.1845 9.70125 21.091 9.81344Z" fill="white"/>
<path d="M35.5084 26.7357C34.7792 25.0155 32.7784 24.1927 31.0395 24.9033L24.9999 27.3715L25.0186 26.9601C25.1121 25.539 24.1771 24.2114 22.8308 23.8562L17.2026 22.005C17.1278 21.9863 17.053 21.9676 16.9782 21.9676C15.6506 21.818 14.8279 22.0985 14.323 22.3416C13.4255 22.7343 12.6402 22.9773 11.8548 22.9399C10.6768 22.9399 9.92889 22.9212 9.40533 22.9399V22.8464C9.40533 21.4441 8.26473 20.3034 6.86234 20.3034H2.54299C1.14061 20.2848 0 21.4254 0 22.8277V35.8793C0 37.2817 1.14061 38.4223 2.54299 38.4223H6.89974C8.30212 38.4223 9.44273 37.2817 9.44273 35.8793V35.2622H11.9109C12.7524 35.2622 13.5938 35.4118 14.3791 35.711L19.6708 37.693C19.9887 37.8052 20.3065 37.8613 20.6431 37.8613C21.1106 37.8613 21.578 37.7491 21.9894 37.5247L33.9938 31.1112C35.5458 30.2697 36.2002 28.3999 35.5084 26.7357ZM7.25501 35.8793C7.25501 36.085 7.08672 36.2532 6.88104 36.2532H2.54299C2.33731 36.2532 2.16902 36.085 2.16902 35.8793V22.8277C2.16902 22.6221 2.33731 22.4538 2.54299 22.4538H6.89974C7.10542 22.4538 7.27371 22.6221 7.27371 22.8277V35.8793H7.25501ZM32.928 29.2039L20.9423 35.6175C20.774 35.711 20.5683 35.7297 20.4 35.6549L15.1271 33.6729C14.08 33.2802 12.9954 33.0932 11.8922 33.0932H9.42403V25.0903C9.89149 25.0903 10.6394 25.0903 11.8548 25.0903C12.9393 25.1277 14.0426 24.8472 15.2393 24.3049C15.5384 24.174 15.9498 24.0431 16.6603 24.0992L22.2138 25.9317C22.6065 26.0439 22.8869 26.4178 22.8495 26.8292L22.7747 27.9324L16.9595 27.465C16.3612 27.4463 15.8376 27.8576 15.7815 28.456C15.7254 29.0543 16.1742 29.5779 16.7725 29.634L23.5601 30.1949C23.6162 30.1949 23.6723 30.1949 23.7097 30.1949C23.9901 30.2136 24.2706 30.1201 24.4763 29.9332L31.8435 26.9227C32.4793 26.6609 33.2085 26.9601 33.489 27.5959C33.7694 28.1942 33.5264 28.9047 32.928 29.2039Z" fill="#242F62"/>
</svg>
