<svg width="61" height="61" viewBox="0 0 61 61" fill="none" xmlns="http://www.w3.org/2000/svg">
<rect x="0.5" y="0.5" width="60" height="60" rx="7.81818" fill="white" stroke="#F6F6F6"/>
<path d="M25.6 23.0007H14.4001C13.6269 23.0007 13 23.6276 13 24.4008V35.6008C13 36.374 13.6269 37.0007 14.4001 37.0007H25.6C26.3732 37.0007 27 36.374 27 35.6008V24.4008C27 23.6276 26.3732 23.0007 25.6 23.0007Z" fill="white"/>
<path d="M25.6008 24.0504H14.4008C14.2075 24.0504 14.0508 24.2072 14.0508 24.4004V35.6006C14.0508 35.7938 14.2075 35.9504 14.4008 35.9504H25.6008C25.7942 35.9504 25.9508 35.7938 25.9508 35.6006V24.4004C25.9508 24.2072 25.7942 24.0504 25.6008 24.0504Z" stroke="#002970" stroke-width="2.38"/>
<path d="M37.4383 20.8979H32.582V39.4555H37.4383" stroke="#002970" stroke-width="2.38"/>
<path d="M46.6008 16H38.2009C37.4277 16 36.8008 16.6269 36.8008 17.4001V25.8C36.8008 26.5732 37.4277 27.2 38.2009 27.2H46.6008C47.374 27.2 48.0007 26.5732 48.0007 25.8V17.4001C48.0007 16.6269 47.374 16 46.6008 16Z" fill="white"/>
<path d="M46.6016 17.0498H38.2016C38.0083 17.0498 37.8516 17.2066 37.8516 17.3998V25.7998C37.8516 25.9932 38.0083 26.1498 38.2016 26.1498H46.6016C46.795 26.1498 46.9516 25.9932 46.9516 25.7998V17.3998C46.9516 17.2066 46.795 17.0498 46.6016 17.0498Z" stroke="#00BAF2" stroke-width="2.38"/>
<path d="M46.6008 34.2002H38.2009C37.4277 34.2002 36.8008 34.8271 36.8008 35.6003V44.0002C36.8008 44.7734 37.4277 45.4002 38.2009 45.4002H46.6008C47.374 45.4002 48.0007 44.7734 48.0007 44.0002V35.6003C48.0007 34.8271 47.374 34.2002 46.6008 34.2002Z" fill="white"/>
<path d="M46.6016 35.2498H38.2016C38.0083 35.2498 37.8516 35.4065 37.8516 35.5998V43.9997C37.8516 44.1932 38.0083 44.3498 38.2016 44.3498H46.6016C46.795 44.3498 46.9516 44.1932 46.9516 43.9997V35.5998C46.9516 35.4065 46.795 35.2498 46.6016 35.2498Z" stroke="#00BAF2" stroke-width="2.38"/>
<path d="M26.9492 30.0004H32.262" stroke="#002970" stroke-width="2.38"/>
</svg>
