<svg width="61" height="61" viewBox="0 0 61 61" fill="none" xmlns="http://www.w3.org/2000/svg">
<rect x="0.5" y="0.5" width="60" height="60" rx="7.81818" fill="white" stroke="#FAFAFA"/>
<path d="M8 47.7766V29.2668C8 29.2203 8.00916 29.1743 8.02695 29.1314C8.04474 29.0884 8.07081 29.0494 8.10368 29.0165C8.13655 28.9836 8.17558 28.9576 8.21852 28.9398C8.26147 28.922 8.3075 28.9128 8.35399 28.9128H21.0465C21.1403 28.9128 21.2304 28.9501 21.2968 29.0165C21.3632 29.0829 21.4005 29.1729 21.4005 29.2668V32.3311C21.4005 32.425 21.3632 32.515 21.2968 32.5814C21.2304 32.6478 21.1403 32.6851 21.0465 32.6851H13.0003C12.9064 32.6851 12.8164 32.7224 12.75 32.7888C12.6836 32.8552 12.6463 32.9452 12.6463 33.0391V36.272C12.6463 36.3659 12.6836 36.4559 12.75 36.5223C12.8164 36.5887 12.9064 36.626 13.0003 36.626H20.362C20.4559 36.626 20.5459 36.6633 20.6123 36.7296C20.6787 36.796 20.716 36.8861 20.716 36.98V40.0535C20.716 40.1473 20.6787 40.2374 20.6123 40.3038C20.5459 40.3702 20.4559 40.4074 20.362 40.4074H13.0003C12.9064 40.4074 12.8164 40.4447 12.75 40.5111C12.6836 40.5775 12.6463 40.6676 12.6463 40.7614V44.0044C12.647 44.0978 12.6846 44.1872 12.7509 44.2531C12.8172 44.3189 12.9069 44.3559 13.0003 44.3559H21.0473C21.0937 44.3558 21.1398 44.3648 21.1827 44.3825C21.2256 44.4002 21.2647 44.4262 21.2976 44.459C21.3304 44.4918 21.3565 44.5308 21.3743 44.5737C21.3921 44.6166 21.4013 44.6626 21.4013 44.709V47.7741C21.4013 47.8206 21.3921 47.8666 21.3743 47.9095C21.3565 47.9524 21.3304 47.9913 21.2976 48.0241C21.2647 48.0569 21.2256 48.0829 21.1827 48.1006C21.1398 48.1183 21.0937 48.1274 21.0473 48.1273H8.35399C8.26062 48.1275 8.17095 48.0907 8.10462 48.025C8.03828 47.9593 8.00067 47.87 8 47.7766ZM24.6602 28.9128H29.8216C29.8918 28.9128 29.9604 28.9337 30.0186 28.9728C30.0769 29.012 30.1222 29.0676 30.1487 29.1326L34.8957 40.7086C34.9083 40.7394 34.9298 40.7657 34.9575 40.7842C34.9851 40.8027 35.0176 40.8126 35.0509 40.8126C35.0841 40.8126 35.1167 40.8027 35.1443 40.7842C35.1719 40.7657 35.1934 40.7394 35.2061 40.7086L39.953 29.1326C39.9796 29.0676 40.0248 29.012 40.0831 28.9728C40.1414 28.9337 40.21 28.9128 40.2802 28.9128H45.4407C45.5346 28.9128 45.6247 28.9501 45.691 29.0165C45.7574 29.0829 45.7947 29.1729 45.7947 29.2668V47.7766C45.7947 47.8231 45.7856 47.8691 45.7678 47.912C45.75 47.9549 45.7239 47.9939 45.691 48.0267C45.6581 48.0595 45.6191 48.0855 45.5761 48.1032C45.5332 48.1209 45.4872 48.1299 45.4407 48.1298H41.6282C41.5818 48.1299 41.5358 48.1209 41.4928 48.1032C41.4499 48.0855 41.4108 48.0595 41.378 48.0267C41.3451 47.9939 41.319 47.9549 41.3012 47.912C41.2834 47.8691 41.2742 47.8231 41.2742 47.7766V36.4204C41.2742 36.3953 41.2642 36.3712 41.2465 36.3534C41.2287 36.3356 41.2046 36.3257 41.1794 36.3257C41.1611 36.3264 41.1433 36.3325 41.1284 36.3433C41.1135 36.354 41.1021 36.3689 41.0955 36.3861L36.591 47.7842C36.5649 47.8502 36.5196 47.9068 36.461 47.9467C36.4024 47.9867 36.3331 48.0081 36.2622 48.0082H33.8497C33.7784 48.0083 33.7089 47.9869 33.65 47.9468C33.5912 47.9067 33.5459 47.8497 33.52 47.7834L29.0154 36.3198C29.0083 36.3021 28.996 36.2869 28.9802 36.2763C28.9643 36.2656 28.9456 36.26 28.9265 36.2602C28.9014 36.2602 28.8773 36.2702 28.8595 36.288C28.8417 36.3058 28.8317 36.3299 28.8317 36.355V47.7766C28.8317 47.8231 28.8226 47.8691 28.8048 47.912C28.787 47.9549 28.7609 47.9939 28.728 48.0267C28.6951 48.0595 28.6561 48.0855 28.6131 48.1032C28.5702 48.1209 28.5242 48.1299 28.4777 48.1298H24.6602C24.6137 48.1299 24.5677 48.1209 24.5248 48.1032C24.4818 48.0855 24.4428 48.0595 24.4099 48.0267C24.377 47.9939 24.351 47.9549 24.3332 47.912C24.3154 47.8691 24.3062 47.8231 24.3062 47.7766V29.2668C24.3062 29.1729 24.3435 29.0829 24.4099 29.0165C24.4763 28.9501 24.5663 28.9128 24.6602 28.9128ZM53.3485 29.2668V47.7766C53.3485 47.8231 53.3393 47.8691 53.3215 47.912C53.3037 47.9549 53.2776 47.9939 53.2447 48.0267C53.2119 48.0595 53.1728 48.0855 53.1299 48.1032C53.0869 48.1209 53.0409 48.1299 52.9945 48.1298H49.0603C49.0139 48.1299 48.9679 48.1209 48.9249 48.1032C48.882 48.0855 48.8429 48.0595 48.8101 48.0267C48.7772 47.9939 48.7511 47.9549 48.7333 47.912C48.7155 47.8691 48.7063 47.8231 48.7063 47.7766V29.2668C48.7063 29.1729 48.7436 29.0829 48.81 29.0165C48.8764 28.9501 48.9664 28.9128 49.0603 28.9128H52.997C53.0904 28.9135 53.1798 28.9511 53.2457 29.0174C53.3115 29.0837 53.3485 29.1734 53.3485 29.2668Z" fill="#002970"/>
<path d="M51.8332 13H9.5104C8.6765 13 8.00049 13.676 8.00049 14.5099V25.284C8.00049 26.1179 8.6765 26.7939 9.5104 26.7939H51.8332C52.6671 26.7939 53.3431 26.1179 53.3431 25.284V14.5099C53.3431 13.676 52.6671 13 51.8332 13Z" fill="url(#paint0_linear_4228_723)"/>
<path d="M17.9484 16.3513V23.5317H16.6372L13.5132 19.0124H13.4606V23.5317H11.9425V16.3513H13.2748L16.3742 20.8671H16.4373V16.3513H17.9484ZM21.6079 23.6369C21.0633 23.6369 20.5923 23.5212 20.195 23.2898C19.7999 23.0561 19.4949 22.7312 19.2799 22.3151C19.0648 21.8967 18.9573 21.4117 18.9573 20.8601C18.9573 20.3038 19.0648 19.8176 19.2799 19.4016C19.4949 18.9832 19.7999 18.6583 20.195 18.4269C20.5923 18.1931 21.0633 18.0763 21.6079 18.0763C22.1525 18.0763 22.6223 18.1931 23.0174 18.4269C23.4147 18.6583 23.7209 18.9832 23.9359 19.4016C24.151 19.8176 24.2585 20.3038 24.2585 20.8601C24.2585 21.4117 24.151 21.8967 23.9359 22.3151C23.7209 22.7312 23.4147 23.0561 23.0174 23.2898C22.6223 23.5212 22.1525 23.6369 21.6079 23.6369ZM21.6149 22.4799C21.8627 22.4799 22.0695 22.4098 22.2355 22.2695C22.4014 22.127 22.5265 21.933 22.6106 21.6875C22.6971 21.4421 22.7404 21.1628 22.7404 20.8496C22.7404 20.5364 22.6971 20.2571 22.6106 20.0116C22.5265 19.7662 22.4014 19.5722 22.2355 19.4296C22.0695 19.287 21.8627 19.2157 21.6149 19.2157C21.3648 19.2157 21.1545 19.287 20.9838 19.4296C20.8155 19.5722 20.6881 19.7662 20.6017 20.0116C20.5175 20.2571 20.4754 20.5364 20.4754 20.8496C20.4754 21.1628 20.5175 21.4421 20.6017 21.6875C20.6881 21.933 20.8155 22.127 20.9838 22.2695C21.1545 22.4098 21.3648 22.4799 21.6149 22.4799ZM33.8783 18.8651H32.3427C32.3146 18.6665 32.2573 18.49 32.1709 18.3357C32.0844 18.1791 31.9734 18.0459 31.8378 17.936C31.7022 17.8262 31.5456 17.742 31.368 17.6836C31.1927 17.6252 31.0022 17.5959 30.7965 17.5959C30.4248 17.5959 30.1011 17.6883 29.8253 17.8729C29.5495 18.0552 29.3356 18.3217 29.1837 18.6723C29.0317 19.0206 28.9558 19.4436 28.9558 19.9415C28.9558 20.4534 29.0317 20.8835 29.1837 21.2317C29.3379 21.58 29.553 21.843 29.8288 22.0206C30.1046 22.1983 30.4237 22.2871 30.786 22.2871C30.9893 22.2871 31.1775 22.2602 31.3504 22.2064C31.5257 22.1527 31.6812 22.0744 31.8167 21.9715C31.9523 21.8663 32.0645 21.739 32.1533 21.5894C32.2445 21.4398 32.3076 21.2691 32.3427 21.0775L33.8783 21.0845C33.8386 21.4141 33.7392 21.7319 33.5803 22.0381C33.4237 22.342 33.2122 22.6143 32.9457 22.8551C32.6816 23.0935 32.366 23.2828 31.9991 23.423C31.6344 23.561 31.2219 23.6299 30.7614 23.6299C30.121 23.6299 29.5483 23.485 29.0434 23.1952C28.5409 22.9053 28.1435 22.4858 27.8514 21.9365C27.5615 21.3872 27.4166 20.7222 27.4166 19.9415C27.4166 19.1585 27.5639 18.4923 27.8584 17.943C28.1529 17.3938 28.5526 16.9754 29.0575 16.6879C29.5623 16.398 30.1303 16.2531 30.7614 16.2531C31.1775 16.2531 31.5631 16.3115 31.9184 16.4284C32.276 16.5453 32.5928 16.7159 32.8686 16.9403C33.1444 17.1624 33.3688 17.4347 33.5417 17.7572C33.717 18.0798 33.8292 18.4491 33.8783 18.8651ZM37.3721 23.6369C36.8275 23.6369 36.3565 23.5212 35.9592 23.2898C35.5642 23.0561 35.2591 22.7312 35.0441 22.3151C34.8291 21.8967 34.7215 21.4117 34.7215 20.8601C34.7215 20.3038 34.8291 19.8176 35.0441 19.4016C35.2591 18.9832 35.5642 18.6583 35.9592 18.4269C36.3565 18.1931 36.8275 18.0763 37.3721 18.0763C37.9167 18.0763 38.3866 18.1931 38.7816 18.4269C39.1789 18.6583 39.4851 18.9832 39.7002 19.4016C39.9152 19.8176 40.0227 20.3038 40.0227 20.8601C40.0227 21.4117 39.9152 21.8967 39.7002 22.3151C39.4851 22.7312 39.1789 23.0561 38.7816 23.2898C38.3866 23.5212 37.9167 23.6369 37.3721 23.6369ZM37.3791 22.4799C37.6269 22.4799 37.8338 22.4098 37.9997 22.2695C38.1657 22.127 38.2907 21.933 38.3749 21.6875C38.4614 21.4421 38.5046 21.1628 38.5046 20.8496C38.5046 20.5364 38.4614 20.2571 38.3749 20.0116C38.2907 19.7662 38.1657 19.5722 37.9997 19.4296C37.8338 19.287 37.6269 19.2157 37.3791 19.2157C37.129 19.2157 36.9187 19.287 36.7481 19.4296C36.5798 19.5722 36.4524 19.7662 36.3659 20.0116C36.2817 20.2571 36.2397 20.5364 36.2397 20.8496C36.2397 21.1628 36.2817 21.4421 36.3659 21.6875C36.4524 21.933 36.5798 22.127 36.7481 22.2695C36.9187 22.4098 37.129 22.4799 37.3791 22.4799ZM45.4747 19.6821L44.1073 19.7662C44.084 19.6493 44.0337 19.5442 43.9566 19.4507C43.8794 19.3548 43.7778 19.2789 43.6515 19.2228C43.5277 19.1643 43.3792 19.1351 43.2063 19.1351C42.9749 19.1351 42.7797 19.1842 42.6207 19.2824C42.4618 19.3782 42.3823 19.5068 42.3823 19.668C42.3823 19.7966 42.4338 19.9053 42.5366 19.9941C42.6394 20.0829 42.8159 20.1542 43.066 20.208L44.0407 20.4043C44.5643 20.5118 44.9546 20.6848 45.2117 20.9232C45.4689 21.1616 45.5974 21.4748 45.5974 21.8628C45.5974 22.2158 45.4934 22.5255 45.2854 22.792C45.0797 23.0584 44.7969 23.2664 44.4369 23.416C44.0793 23.5633 43.6667 23.6369 43.1993 23.6369C42.4863 23.6369 41.9184 23.4885 41.4953 23.1916C41.0746 22.8925 40.828 22.4858 40.7555 21.9715L42.2246 21.8944C42.269 22.1118 42.3765 22.2777 42.5471 22.3923C42.7177 22.5045 42.9363 22.5606 43.2028 22.5606C43.4645 22.5606 43.6749 22.5103 43.8339 22.4098C43.9951 22.3069 44.0769 22.1749 44.0793 22.0136C44.0769 21.878 44.0197 21.767 43.9075 21.6805C43.7953 21.5917 43.6223 21.5239 43.3886 21.4772L42.456 21.2914C41.93 21.1862 41.5385 21.0039 41.2814 20.7444C41.0266 20.485 40.8993 20.1542 40.8993 19.7522C40.8993 19.4062 40.9928 19.1082 41.1797 18.8581C41.3691 18.608 41.6344 18.4152 41.9756 18.2796C42.3192 18.1441 42.7213 18.0763 43.1817 18.0763C43.8619 18.0763 44.3972 18.22 44.7875 18.5075C45.1802 18.795 45.4093 19.1865 45.4747 19.6821ZM49.4024 18.1464V19.2683H46.1593V18.1464H49.4024ZM46.8955 16.8562H48.3891V21.8769C48.3891 22.0148 48.4102 22.1223 48.4522 22.1994C48.4943 22.2742 48.5528 22.3268 48.6275 22.3572C48.7047 22.3876 48.7935 22.4028 48.894 22.4028C48.9641 22.4028 49.0343 22.3969 49.1044 22.3852C49.1745 22.3712 49.2283 22.3607 49.2657 22.3537L49.5006 23.4651C49.4258 23.4885 49.3206 23.5154 49.185 23.5458C49.0494 23.5785 48.8847 23.5984 48.6907 23.6054C48.3307 23.6194 48.0152 23.5715 47.744 23.4616C47.4752 23.3518 47.266 23.1811 47.1164 22.9497C46.9668 22.7183 46.8932 22.4262 46.8955 22.0732V16.8562Z" fill="white"/>
<defs>
<linearGradient id="paint0_linear_4228_723" x1="8.00049" y1="19.8954" x2="53.3431" y2="19.8954" gradientUnits="userSpaceOnUse">
<stop offset="0.35" stop-color="#F48120"/>
<stop offset="1" stop-color="#EC0677"/>
</linearGradient>
</defs>
</svg>
