<svg width="175" height="59" viewBox="0 0 175 59" fill="none" xmlns="http://www.w3.org/2000/svg">
<path d="M17.7556 23.8662H157.21C167.008 23.8662 174.966 31.7398 174.966 41.4331C174.966 51.1265 167.008 59.0001 157.21 59.0001H17.7556C7.95811 59.0001 0 51.1265 0 41.4331C0 31.7398 7.95811 23.8662 17.7556 23.8662Z" fill="#D3EEFB"/>
<path d="M122.819 35.1372H127.775C130.703 35.1372 132.016 36.6228 131.003 39.1483V39.1854C129.914 41.8966 127.249 43.3079 124.396 43.3079H122.782L121.468 46.5761H118.277L122.819 35.1372ZM125.297 40.8567C126.348 40.8938 127.324 40.2996 127.737 39.3711V39.334C128.112 38.3683 127.624 37.8112 126.498 37.8112H124.997L123.758 40.8567H125.297Z" fill="#00BAF2"/>
<path d="M132.092 40.8935C133.405 37.5881 137.159 34.9141 140.725 34.9141C144.291 34.9141 145.906 37.551 144.592 40.8564V40.8935C143.278 44.1989 139.562 46.8358 135.958 46.8358C132.354 46.8358 130.815 44.1989 132.092 40.8935ZM141.288 40.8935C141.964 39.2222 141.326 37.7738 139.562 37.7738C137.797 37.7738 136.071 39.1851 135.432 40.8192V40.8564C134.794 42.5276 135.395 43.9389 137.159 43.9389C138.924 43.9761 140.65 42.5648 141.288 40.8935Z" fill="#00BAF2"/>
<path d="M144.629 44.9046L147.257 42.7876C148.045 43.7161 149.246 44.1989 150.485 44.1618C151.348 44.1618 151.911 43.8647 152.137 43.3818V43.3447C152.324 42.8619 152.061 42.6019 150.635 42.2305C148.383 41.6734 146.769 40.9678 147.707 38.628V38.5909C148.533 36.4739 150.86 34.9141 153.638 34.9141C155.59 34.9141 156.941 35.434 157.805 36.4368L155.327 38.6651C154.577 37.9595 153.563 37.551 152.549 37.551C151.761 37.551 151.273 37.8852 151.085 38.2937V38.3309C150.86 38.8508 151.198 39.0737 152.662 39.4451C155.102 40.0022 156.416 40.8564 155.553 43.0104V43.0476C154.539 45.4245 152.099 46.7987 149.284 46.7987C147.257 46.7987 145.53 46.1673 144.629 44.9046Z" fill="#00BAF2"/>
<path d="M23.663 34.9824H26.1405L26.5534 46.6813H23.8882L23.8507 44.0816H18.8956L16.7935 46.6813H14.0156L23.663 34.9824ZM23.8131 41.8161L23.7756 37.9907L20.735 41.8161H23.8131Z" fill="#002970"/>
<path d="M33.0992 35.0645H35.6893L32.0106 44.3493H35.7644L34.826 46.6519H28.5195L33.0992 35.0645Z" fill="#002970"/>
<path d="M41.5172 35.0649H44.1073L40.4286 44.3498H44.1824L43.2439 46.6524H36.9375L41.5172 35.0649Z" fill="#002970"/>
<path d="M54.3023 35.0645H56.8925L52.3128 46.6519H49.7227L54.3023 35.0645Z" fill="#002970"/>
<path d="M60.8609 35.0645H63.2258L65.7409 42.4552L68.6689 35.0645H71.2215L66.6418 46.6519H64.4646L61.8369 39.0384L58.8339 46.6519H56.2812L60.8609 35.0645Z" fill="#002970"/>
<path d="M75.7623 41.7375C76.2128 38.2464 79.4786 34.8667 83.6829 34.8667C86.9112 34.8667 88.7881 37.0951 88.4127 39.9919C87.9998 43.4459 84.734 46.8627 80.5297 46.8627C77.2639 46.8627 75.4245 44.6344 75.7623 41.7375ZM85.71 40.1776C85.9352 38.4692 85.0343 37.2436 83.0823 37.2436C80.6048 37.2065 78.7279 39.5463 78.4651 41.5518C78.2399 43.2602 79.1408 44.4858 81.0928 44.4858C83.5328 44.5229 85.4472 42.1832 85.71 40.1776Z" fill="#002970"/>
<path d="M93.0211 35.0645H95.386L97.9011 42.4552L100.829 35.0645H103.382L98.802 46.6519H96.6247L93.9971 39.0384L90.994 46.6519H88.4414L93.0211 35.0645Z" fill="#002970"/>
<path d="M106.459 35.0645H115.205L114.304 37.33H108.11L107.172 39.7069H112.615L111.714 41.9352H106.308L105.332 44.3864H111.639L110.738 46.6519H101.879L106.459 35.0645Z" fill="#002970"/>
<path d="M47.917 41.2246H45.7773L46.5656 39.293H48.7053L47.917 41.2246Z" fill="#002970"/>
<path d="M73.417 41.2246H71.2773L72.0656 39.293H74.2053L73.417 41.2246Z" fill="#002970"/>
<path d="M117.35 5.4865C116.787 3.92665 115.285 2.84961 113.559 2.84961H113.521C112.432 2.84961 111.381 3.29528 110.631 4.07521C109.88 3.29528 108.829 2.84961 107.74 2.84961H107.703C106.727 2.84961 105.826 3.18386 105.075 3.81523V3.51812C105.037 3.221 104.812 2.96103 104.474 2.96103H101.847C101.509 2.96103 101.246 3.221 101.246 3.55526V17.9653C101.246 18.2996 101.509 18.5596 101.847 18.5596H104.512C104.812 18.5596 105.075 18.3367 105.113 18.0396V7.71487C105.113 7.67773 105.113 7.64059 105.113 7.60345C105.15 7.12064 105.563 6.74924 106.051 6.7121H106.539C106.727 6.7121 106.952 6.78638 107.102 6.93494C107.327 7.12064 107.477 7.41775 107.477 7.71487V18.0025C107.477 18.3367 107.74 18.5967 108.078 18.5967H110.743C111.044 18.5967 111.306 18.3367 111.344 18.0396V7.71487C111.344 7.38061 111.494 7.0835 111.794 6.8978C111.945 6.78638 112.095 6.74924 112.282 6.74924H112.77C113.296 6.78638 113.709 7.23206 113.709 7.75201V18.0396C113.709 18.3739 113.972 18.6338 114.309 18.6338H116.975C117.312 18.6338 117.575 18.3739 117.575 18.0396V6.8978C117.575 6.41499 117.5 5.96932 117.35 5.4865Z" fill="#00BAF2"/>
<path d="M99.2132 3.00829H97.6741V0.557091C97.6741 0.259976 97.4113 0 97.111 0C97.0735 0 97.0359 0 96.9984 0C95.3092 0.482812 95.6846 2.78545 92.5689 3.00829H92.2686C92.231 3.00829 92.1935 3.00829 92.156 3.00829C91.8557 3.08257 91.668 3.3054 91.668 3.60252V6.23941C91.668 6.57367 91.9307 6.83364 92.2686 6.83364H93.8827V18.0869C93.8827 18.4211 94.1455 18.6811 94.4833 18.6811H97.1486C97.4864 18.6811 97.7492 18.4211 97.7492 18.0869V6.83364H99.2507C99.5885 6.83364 99.8513 6.57367 99.8513 6.23941V3.60252C99.8138 3.26826 99.5135 3.00829 99.2132 3.00829Z" fill="#00BAF2"/>
<path d="M89.5568 3.00098H86.8916C86.5537 3.00098 86.2909 3.26095 86.2909 3.59521V9.09183C86.2909 9.42609 85.9906 9.68606 85.6528 9.68606H84.5266C84.1888 9.68606 83.8885 9.38895 83.8885 9.05469V3.59521C83.8885 3.26095 83.6257 3.00098 83.2879 3.00098H80.6227C80.2848 3.00098 80.022 3.26095 80.022 3.59521V9.61178C79.947 11.6916 81.5611 13.4371 83.6633 13.5114C83.7759 13.5114 83.851 13.5114 83.9636 13.5114C83.9636 13.5114 85.6903 13.5114 85.7654 13.5114C86.1032 13.5486 86.366 13.8457 86.3285 14.1799C86.2909 14.477 86.0657 14.6999 85.8029 14.737H85.7654H81.8614C81.5236 14.737 81.2608 14.997 81.2608 15.3312V17.9681C81.2608 18.3024 81.5236 18.5624 81.8614 18.5624H86.2534C88.3555 18.6367 90.1198 17.0397 90.1949 14.9599C90.1949 14.8484 90.1949 14.7742 90.1949 14.6627V3.59521C90.1574 3.26095 89.8946 3.00098 89.5568 3.00098Z" fill="#002970"/>
<path d="M63.855 3.00098H57.9615C57.6612 3.00098 57.3984 3.26095 57.3984 3.55807V6.15782V6.19496V17.9681C57.3984 18.2653 57.6237 18.5252 57.924 18.5624H60.6643C61.0021 18.5624 61.2649 18.3024 61.2649 17.9681V13.92H63.8175C65.7319 13.9942 67.3836 12.5458 67.4587 10.6517C67.4587 10.5403 67.4587 10.4289 67.4587 10.3174V6.6035C67.5713 4.70939 66.1073 3.07526 64.1553 3.00098C64.0427 3.00098 63.9676 3.00098 63.855 3.00098ZM63.5923 7.86623V9.50037C63.5923 9.83462 63.3295 10.1317 62.9541 10.1317H61.2649V6.86347H62.9541C63.2919 6.86347 63.5923 7.16059 63.5923 7.49484V7.86623Z" fill="#002970"/>
<path d="M74.3232 3.01611H70.5694C70.2691 3.01611 70.0063 3.23895 70.0063 3.5732V4.61311V4.65025V6.06154C70.0063 6.3958 70.3066 6.65577 70.6444 6.65577H74.173C74.4733 6.69291 74.6986 6.91575 74.6986 7.21286V7.54712C74.6986 7.84423 74.4733 8.06707 74.173 8.10421H72.4087C70.0814 8.06707 68.4297 9.62692 68.4297 11.781V14.8636C68.4297 17.0177 69.8561 18.5404 72.1835 18.5404H77.0635C77.8893 18.5775 78.6026 17.909 78.6401 17.0919V6.99003C78.6026 4.53883 77.3638 3.01611 74.3232 3.01611ZM74.7361 14.0836V14.4922C74.7361 14.5293 74.7361 14.5665 74.7361 14.6036C74.7361 14.6407 74.7361 14.6779 74.6986 14.6779C74.586 14.9379 74.3607 15.0864 74.098 15.0864H72.9718C72.634 15.0864 72.3337 14.8264 72.3337 14.4922V14.0094V12.6724V12.2638C72.3337 11.9296 72.634 11.6696 72.9718 11.6696H74.098C74.4358 11.6696 74.7361 11.9296 74.7361 12.2638V14.0836Z" fill="#002970"/>
</svg>
