<svg width="128" height="129" viewBox="0 0 128 129" fill="none" xmlns="http://www.w3.org/2000/svg">
<g filter="url(#filter0_d)">
<rect x="20" y="15.0547" width="88" height="88" rx="18.0513" fill="white"/>
</g>
<path d="M36.3945 68.0018H39.2883C40.2791 67.9302 41.2711 68.1245 42.1617 68.5647C42.4578 68.7553 42.6971 69.0223 42.8543 69.3374C43.0115 69.6526 43.0808 70.0043 43.055 70.3555C43.0755 70.8415 42.9386 71.3211 42.6646 71.7229C42.5432 71.8944 42.3885 72.0396 42.2097 72.1499C42.031 72.2603 41.8319 72.3335 41.6242 72.3652V72.4286C42.126 72.5076 42.5805 72.7702 42.8995 73.1656C43.1788 73.591 43.3158 74.094 43.2908 74.6023C43.3086 74.9826 43.2344 75.3615 43.0744 75.707C42.9145 76.0524 42.6736 76.3542 42.3722 76.5867C41.6433 77.0971 40.7641 77.348 39.8756 77.2991H36.3945V68.0018ZM38.3662 71.6849H39.5114C39.914 71.7158 40.317 71.6295 40.6717 71.4364C40.7962 71.3413 40.8945 71.2161 40.9574 71.0725C41.0202 70.929 41.0455 70.7718 41.0309 70.6158C41.0431 70.4644 41.013 70.3127 40.9441 70.1773C40.8751 70.042 40.77 69.9285 40.6405 69.8493C40.2545 69.6681 39.8287 69.5881 39.4032 69.6169H38.3662V71.6849ZM38.3662 73.2501V75.6731H39.6508C40.075 75.7063 40.4981 75.5965 40.8526 75.3612C40.9871 75.2434 41.0923 75.0958 41.1598 74.9301C41.2273 74.7645 41.2552 74.5854 41.2414 74.4071C41.2414 73.6358 40.6901 73.2498 39.5874 73.2492L38.3662 73.2501Z" fill="#002970"/>
<path d="M50.0337 77.3004L49.7726 76.391H49.6712C49.4567 76.7278 49.1481 76.9943 48.7838 77.1576C48.3747 77.3437 47.9291 77.4361 47.4797 77.428C47.1355 77.4536 46.7898 77.4071 46.4646 77.2916C46.1393 77.176 45.8418 76.994 45.5908 76.757C45.1361 76.2206 44.9082 75.5283 44.9553 74.8267V70.1903H46.8991V74.3433C46.8712 74.747 46.9667 75.1496 47.1729 75.4977C47.2744 75.6296 47.4074 75.7339 47.5596 75.8011C47.7118 75.8682 47.8785 75.8962 48.0443 75.8823C48.2707 75.9016 48.4982 75.8616 48.7044 75.7663C48.9107 75.6711 49.0886 75.5237 49.2207 75.3389C49.5064 74.7829 49.632 74.1585 49.5833 73.5353V70.1895H51.5271V77.3004H50.0337Z" fill="#002970"/>
<path d="M58.517 75.1893C58.5359 75.5081 58.4764 75.8266 58.3439 76.1171C58.2113 76.4077 58.0096 76.6613 57.7564 76.8559C57.0791 77.2844 56.2825 77.4849 55.483 77.4281C55.0398 77.4342 54.5971 77.3991 54.1604 77.3233C53.8089 77.2573 53.4655 77.1539 53.1361 77.0148V75.409C53.5276 75.5884 53.9354 75.7299 54.3539 75.8316C54.743 75.9366 55.1435 75.9934 55.5464 76.0006C56.2501 76.0006 56.602 75.7972 56.602 75.3905C56.6048 75.3222 56.5939 75.2541 56.5698 75.1902C56.5457 75.1263 56.5089 75.0679 56.4617 75.0186C56.3171 74.8876 56.1542 74.7783 55.9783 74.6941C55.7495 74.5735 55.4441 74.4326 55.0621 74.2715C54.6367 74.1081 54.2321 73.8948 53.857 73.636C53.6179 73.4619 53.4257 73.2314 53.2975 72.9649C53.173 72.6712 53.1133 72.3541 53.1226 72.0353C53.1106 71.7488 53.1718 71.4639 53.3002 71.2076C53.4287 70.9512 53.6203 70.7317 53.857 70.5698C54.4832 70.1908 55.2106 70.013 55.9411 70.0602C56.8052 70.0619 57.6585 70.2528 58.441 70.6197L57.8553 72.0192C57.4992 71.8665 57.1662 71.7414 56.8564 71.644C56.5499 71.5471 56.2304 71.4978 55.909 71.4978C55.3365 71.4978 55.0503 71.6527 55.0503 71.9626C55.0542 72.0551 55.0816 72.1451 55.1299 72.2241C55.1783 72.3031 55.246 72.3684 55.3267 72.4139C55.7128 72.6382 56.118 72.8277 56.5377 72.9801C56.969 73.1397 57.3791 73.3515 57.759 73.6106C58.0014 73.7866 58.1976 74.0185 58.3311 74.2867C58.4602 74.5698 58.5237 74.8783 58.517 75.1893Z" fill="#002970"/>
<path d="M59.9492 68.3507C59.9492 67.7191 60.3011 67.4033 61.0048 67.4033C61.7085 67.4033 62.0606 67.7191 62.0612 68.3507C62.0689 68.4798 62.0495 68.6092 62.004 68.7303C61.9586 68.8514 61.8883 68.9617 61.7975 69.0539C61.5764 69.2379 61.2925 69.3288 61.0056 69.3074C60.3014 69.3057 59.9492 68.9868 59.9492 68.3507ZM61.9716 77.2998H60.0278V70.1889H61.9716V77.2998Z" fill="#002970"/>
<path d="M70.5709 77.3001H68.6271V73.1472C68.655 72.7436 68.5598 72.341 68.3541 71.9927C68.2526 71.8609 68.1196 71.7567 67.9674 71.6895C67.8152 71.6223 67.6486 71.5943 67.4828 71.6082C67.2564 71.5889 67.0289 71.6289 66.8227 71.7242C66.6164 71.8195 66.4385 71.9668 66.3064 72.1516C66.0208 72.7076 65.8953 73.3319 65.9438 73.9551V77.301H64V70.19H65.4824L65.7427 71.0994H65.8508C66.0654 70.7574 66.3762 70.4863 66.7441 70.3202C67.1535 70.1384 67.5979 70.0492 68.0457 70.059C68.3889 70.0346 68.7334 70.0816 69.0575 70.1971C69.3816 70.3126 69.6782 70.4941 69.9286 70.7301C70.3884 71.2666 70.6191 71.9622 70.5709 72.6671V77.3001Z" fill="#002970"/>
<path d="M75.788 77.4272C75.3002 77.4563 74.8115 77.3877 74.3506 77.2254C73.8897 77.0632 73.4658 76.8105 73.1038 76.4823C72.7677 76.1248 72.5085 75.7021 72.3422 75.2404C72.1759 74.7788 72.1061 74.2879 72.137 73.7982C72.0728 72.7969 72.3922 71.8088 73.0303 71.0346C73.3476 70.7036 73.7327 70.4451 74.1593 70.2768C74.5858 70.1084 75.0436 70.0343 75.5015 70.0593C75.9306 70.0336 76.3605 70.0966 76.7643 70.2443C77.1681 70.3921 77.5371 70.6214 77.8484 70.918C78.1392 71.2376 78.3634 71.612 78.5076 72.0194C78.6519 72.4268 78.7133 72.8588 78.6885 73.2902V74.2317H74.1028C74.0953 74.709 74.2707 75.171 74.5929 75.5231C74.7641 75.6839 74.9664 75.808 75.1873 75.8878C75.4082 75.9676 75.6431 76.0014 75.8775 75.9871C76.2861 75.9892 76.6936 75.9444 77.092 75.8535C77.5043 75.7547 77.9051 75.6131 78.2879 75.431V76.9319C77.9428 77.1035 77.5773 77.2304 77.2002 77.3097C76.7348 77.3978 76.2615 77.4371 75.788 77.4272ZM75.5141 71.4352C75.3341 71.4255 75.1542 71.4555 74.9872 71.5232C74.8201 71.5908 74.6699 71.6943 74.5473 71.8265C74.2936 72.1412 74.1525 72.5319 74.1467 72.9361H76.8689C76.8869 72.5324 76.753 72.1365 76.4937 71.8265C76.368 71.6949 76.2154 71.5919 76.0464 71.5246C75.8774 71.4572 75.6959 71.427 75.5141 71.436V71.4352Z" fill="#002970"/>
<path d="M85.2271 75.1881C85.2459 75.5069 85.1864 75.8254 85.0538 76.1159C84.9213 76.4064 84.7196 76.6601 84.4665 76.8547C83.7892 77.2832 82.9925 77.4837 82.1931 77.4269C81.7499 77.433 81.3072 77.3979 80.8705 77.3221C80.519 77.2561 80.1756 77.1527 79.8462 77.0136V75.4079C80.2377 75.5873 80.6455 75.7288 81.064 75.8304C81.4531 75.9355 81.8536 75.9922 82.2565 75.9995C82.9602 75.9995 83.3124 75.7961 83.3129 75.3893C83.3158 75.3211 83.3048 75.2529 83.2807 75.189C83.2566 75.1251 83.2198 75.0668 83.1726 75.0174C83.0279 74.8866 82.8651 74.7773 82.6892 74.6929C82.4605 74.5723 82.1551 74.4315 81.7731 74.2703C81.3476 74.1069 80.9431 73.8936 80.5679 73.6348C80.3289 73.4607 80.1367 73.2302 80.0084 72.9638C79.8839 72.6701 79.8242 72.353 79.8335 72.0341C79.8216 71.7476 79.8827 71.4628 80.0112 71.2064C80.1397 70.95 80.3312 70.7306 80.5679 70.5686C81.193 70.1868 81.9201 70.006 82.6512 70.0506C83.515 70.0524 84.3681 70.2433 85.1502 70.6101L84.5654 72.0096C84.2093 71.8569 83.8763 71.7318 83.5664 71.6344C83.26 71.5375 82.9405 71.4882 82.6191 71.4881C82.0466 71.4881 81.7604 71.6431 81.7604 71.953C81.7644 72.0456 81.792 72.1356 81.8405 72.2145C81.889 72.2935 81.9568 72.3588 82.0376 72.4043C82.424 72.6286 82.8295 72.8181 83.2495 72.9705C83.6811 73.1326 84.0912 73.3469 84.4707 73.6086C84.7131 73.7846 84.9094 74.0165 85.0429 74.2847C85.1714 74.5682 85.2343 74.877 85.2271 75.1881Z" fill="#002970"/>
<path d="M91.6998 75.1881C91.7186 75.5069 91.6591 75.8254 91.5265 76.1159C91.3939 76.4064 91.1923 76.66 90.9392 76.8547C90.2619 77.2832 89.4652 77.4837 88.6658 77.4269C88.2226 77.433 87.7798 77.3979 87.3431 77.3221C86.9917 77.256 86.6483 77.1526 86.3188 77.0136V75.4078C86.7104 75.5872 87.1182 75.7287 87.5367 75.8304C87.9257 75.9354 88.3262 75.9922 88.7292 75.9994C89.4329 75.9994 89.7847 75.7961 89.7847 75.3893C89.7877 75.3211 89.7769 75.253 89.7529 75.1891C89.729 75.1252 89.6923 75.0668 89.6453 75.0174C89.5005 74.8866 89.3377 74.7773 89.1619 74.6929C88.9326 74.5723 88.6272 74.4314 88.2457 74.2703C87.8203 74.1069 87.4158 73.8935 87.0406 73.6348C86.8016 73.4606 86.6095 73.2301 86.4811 72.9637C86.3566 72.67 86.2969 72.3529 86.3062 72.0341C86.2942 71.7476 86.3554 71.4627 86.4838 71.2064C86.6123 70.95 86.8039 70.7305 87.0406 70.5686C87.6657 70.1869 88.3928 70.0061 89.1238 70.0506C89.988 70.0522 90.8413 70.2432 91.6237 70.61L91.0381 72.0096C90.682 71.8569 90.349 71.7318 90.0391 71.6343C89.7324 71.5374 89.4126 71.4881 89.0909 71.4881C88.5184 71.4881 88.2322 71.6431 88.2322 71.9529C88.2362 72.0454 88.2636 72.1354 88.312 72.2144C88.3603 72.2933 88.428 72.3587 88.5086 72.4042C88.8949 72.6286 89.3005 72.8181 89.7205 72.9705C90.1518 73.1301 90.5619 73.3418 90.9417 73.6009C91.1842 73.7768 91.3805 74.0088 91.5139 74.2771C91.6442 74.5627 91.7078 74.8743 91.6998 75.1881Z" fill="#002970"/>
<path d="M55.4569 63.2637H36.2969V64.6117H55.4569V63.2637Z" fill="#002970"/>
<path d="M55.4569 61.9746H36.2969V63.3226H55.4569V61.9746Z" fill="#00BAF2"/>
<path d="M91.6678 63.2637H72.5078V64.6117H91.6678V63.2637Z" fill="#002970"/>
<path d="M91.6678 61.9746H72.5078V63.3226H91.6678V61.9746Z" fill="#00BAF2"/>
<path d="M91.2576 45.4345C91.0061 44.7163 90.5374 44.0941 89.9166 43.6541C89.2958 43.2141 88.5535 42.978 87.7926 42.9785H87.7596C87.2652 42.978 86.7758 43.0777 86.321 43.2716C85.8662 43.4655 85.4554 43.7496 85.1135 44.1068C84.7717 43.7497 84.3611 43.4656 83.9064 43.2717C83.4518 43.0778 82.9625 42.978 82.4682 42.9785H82.4353C81.5569 42.9776 80.7076 43.2929 80.0427 43.8668V43.5862C80.0333 43.4499 79.9726 43.3223 79.8729 43.229C79.7731 43.1357 79.6418 43.0836 79.5052 43.0833H77.0543C76.983 43.0833 76.9123 43.0974 76.8465 43.1247C76.7806 43.152 76.7207 43.1921 76.6703 43.2425C76.62 43.293 76.58 43.3529 76.5528 43.4188C76.5256 43.4848 76.5116 43.5554 76.5117 43.6267V56.9579C76.5117 57.1018 76.5689 57.2398 76.6706 57.3415C76.7724 57.4433 76.9104 57.5004 77.0543 57.5004H79.5052C79.6361 57.5002 79.7625 57.4525 79.861 57.3663C79.9595 57.2801 80.0234 57.1611 80.041 57.0314V47.4636C80.041 47.4315 80.041 47.3994 80.041 47.3673C80.0585 47.1512 80.1538 46.9489 80.3093 46.7978C80.4647 46.6467 80.6697 46.5572 80.8861 46.5458H81.34C81.5286 46.5591 81.7088 46.6289 81.8572 46.7461C81.9636 46.8327 82.049 46.9424 82.1067 47.0668C82.1644 47.1913 82.1929 47.3273 82.1902 47.4645L82.1995 56.9857C82.1995 57.1297 82.2566 57.2678 82.3583 57.3697C82.4601 57.4716 82.5981 57.5289 82.742 57.5292H85.1929C85.3328 57.53 85.4677 57.4767 85.5692 57.3805C85.6708 57.2843 85.7313 57.1525 85.738 57.0128V47.4535C85.7348 47.3024 85.7698 47.153 85.8396 47.019C85.9095 46.885 86.0121 46.7708 86.1378 46.687C86.2732 46.5995 86.4283 46.5472 86.5891 46.5348H87.0421C87.2755 46.5471 87.495 46.6499 87.6538 46.8215C87.8125 46.9931 87.8981 47.2198 87.8923 47.4535L87.9024 56.9621C87.9024 57.106 87.9596 57.244 88.0613 57.3457C88.1631 57.4475 88.3011 57.5047 88.445 57.5047H90.8959C90.9672 57.5048 91.0379 57.4908 91.1038 57.4636C91.1697 57.4364 91.2296 57.3964 91.2801 57.346C91.3306 57.2956 91.3706 57.2358 91.3979 57.1699C91.4252 57.104 91.4393 57.0334 91.4393 56.9621V46.736C91.461 46.2951 91.3979 45.8541 91.2534 45.437" fill="#00BAF2"/>
<path d="M74.6415 43.1183H73.2378V40.8424C73.2381 40.7771 73.2256 40.7124 73.2008 40.6519C73.1761 40.5915 73.1397 40.5366 73.0937 40.4902C73.0476 40.4439 72.993 40.4071 72.9327 40.382C72.8724 40.3569 72.8078 40.3439 72.7425 40.3438C72.7112 40.3441 72.6801 40.3478 72.6496 40.3547C71.092 40.7773 71.4055 42.9375 68.5633 43.1217H68.287C68.2472 43.1218 68.2075 43.1263 68.1687 43.1352C68.0488 43.1624 67.9418 43.2295 67.865 43.3254C67.7882 43.4214 67.7463 43.5405 67.7461 43.6634V46.1143C67.7461 46.2583 67.8032 46.3964 67.905 46.4983C68.0067 46.6002 68.1447 46.6575 68.2887 46.6577H69.7702V57.0656C69.7701 57.136 69.7839 57.2058 69.8107 57.271C69.8376 57.3361 69.877 57.3954 69.9268 57.4453C69.9765 57.4952 70.0356 57.5348 70.1007 57.5619C70.1658 57.589 70.2355 57.6029 70.306 57.6031H72.7332C72.8756 57.6028 73.0121 57.5461 73.1128 57.4453C73.2134 57.3446 73.2699 57.208 73.2699 57.0656V46.6586H74.6449C74.7162 46.6585 74.7867 46.6443 74.8525 46.617C74.9183 46.5896 74.978 46.5495 75.0283 46.4991C75.0786 46.4486 75.1185 46.3887 75.1457 46.3229C75.1728 46.257 75.1868 46.1864 75.1866 46.1152V43.6643C75.1866 43.5206 75.1296 43.3828 75.028 43.2812C74.9264 43.1796 74.7886 43.1225 74.6449 43.1225" fill="#00BAF2"/>
<path d="M65.812 43.1186H63.3611C63.2174 43.1186 63.0795 43.1757 62.9778 43.2772C62.876 43.3788 62.8188 43.5166 62.8186 43.6603V48.7371C62.8163 48.8879 62.7549 49.0317 62.6476 49.1377C62.5402 49.2436 62.3955 49.3031 62.2447 49.3033H61.2153C61.1398 49.3033 61.065 49.2884 60.9952 49.2595C60.9254 49.2305 60.8621 49.1881 60.8087 49.1347C60.7553 49.0812 60.713 49.0178 60.6842 48.9479C60.6553 48.8781 60.6405 48.8033 60.6407 48.7278L60.6297 43.657C60.6294 43.5132 60.5722 43.3754 60.4704 43.2739C60.3687 43.1723 60.2308 43.1152 60.0871 43.1152H57.6362C57.565 43.1151 57.4944 43.129 57.4285 43.1562C57.3626 43.1834 57.3028 43.2232 57.2523 43.2736C57.2018 43.3239 57.1618 43.3836 57.1344 43.4494C57.107 43.5152 57.0929 43.5857 57.0928 43.657V49.2196C57.073 49.7 57.153 50.1793 57.3276 50.6273C57.5022 51.0753 57.7677 51.4823 58.1073 51.8227C58.447 52.163 58.8534 52.4294 59.301 52.6049C59.7487 52.7805 60.2278 52.8614 60.7083 52.8427C60.7083 52.8427 62.2946 52.8427 62.3436 52.8529C62.4836 52.8673 62.6134 52.9329 62.708 53.0372C62.8027 53.1414 62.8555 53.277 62.8563 53.4178C62.8571 53.5585 62.806 53.6947 62.7126 53.8001C62.6192 53.9054 62.4902 53.9726 62.3504 53.9887L62.3098 53.9955L58.7197 54.009C58.5758 54.009 58.4378 54.0662 58.336 54.1679C58.2342 54.2697 58.1771 54.4077 58.1771 54.5516V57.0025C58.1771 57.1464 58.2342 57.2844 58.336 57.3861C58.4378 57.4879 58.5758 57.545 58.7197 57.545H62.7366C63.2172 57.5644 63.6965 57.4841 64.1445 57.3091C64.5925 57.134 64.9994 56.8681 65.3396 56.5281C65.6797 56.188 65.9457 55.7812 66.1208 55.3332C66.296 54.8853 66.3764 54.4059 66.3571 53.9253V43.6603C66.3571 43.5891 66.3431 43.5186 66.3158 43.4528C66.2885 43.3871 66.2486 43.3273 66.1982 43.277C66.1478 43.2267 66.088 43.1868 66.0221 43.1596C65.9563 43.1324 65.8858 43.1185 65.8146 43.1186" fill="#002970"/>
<path d="M42.2688 43.1168H36.9039C36.7627 43.1168 36.6272 43.1729 36.5274 43.2728C36.4275 43.3726 36.3714 43.5081 36.3714 43.6493V46.0528C36.371 46.0559 36.371 46.059 36.3714 46.0621C36.3714 46.079 36.3714 46.09 36.3714 46.1027V56.9838C36.3672 57.1212 36.4166 57.2548 36.5092 57.3564C36.6018 57.458 36.7303 57.5195 36.8675 57.528H39.3683C39.5122 57.528 39.6502 57.4709 39.7519 57.3691C39.8537 57.2674 39.9109 57.1294 39.9109 56.9855L39.9202 53.2542H42.2688C42.7125 53.2756 43.1558 53.2039 43.5703 53.0438C43.9847 52.8836 44.361 52.6386 44.6751 52.3244C44.9891 52.0101 45.234 51.6337 45.3939 51.2192C45.5538 50.8047 45.6253 50.3614 45.6037 49.9176V46.4526C45.6254 46.0086 45.554 45.5649 45.3942 45.1501C45.2343 44.7354 44.9896 44.3585 44.6756 44.0439C44.3616 43.7293 43.9852 43.4837 43.5708 43.3231C43.1563 43.1624 42.7128 43.0901 42.2688 43.1109V43.1168ZM42.0533 47.6087V49.1232C42.0533 49.2757 41.9927 49.4219 41.885 49.5299C41.7772 49.6378 41.6311 49.6985 41.4786 49.6987H39.9202V46.6731H41.4786C41.6311 46.6734 41.7772 46.7341 41.885 46.842C41.9927 46.9499 42.0533 47.0962 42.0533 47.2487V47.6087Z" fill="#002970"/>
<path d="M51.8462 43.1321H48.4411C48.3017 43.1277 48.1662 43.1785 48.064 43.2735C47.9618 43.3684 47.9011 43.4998 47.8952 43.6392V44.5933V44.6128C47.8952 44.6187 47.8952 44.6254 47.8952 44.6254V45.9413C47.9007 46.0895 47.9647 46.2295 48.0732 46.3305C48.1817 46.4316 48.3259 46.4855 48.4741 46.4805H51.7169C51.8456 46.4974 51.9645 46.5583 52.0534 46.6529C52.1423 46.7475 52.1957 46.8699 52.2045 46.9994V47.3155C52.197 47.4421 52.1456 47.562 52.059 47.6546C51.9724 47.7472 51.8562 47.8066 51.7304 47.8226H50.1246C49.6562 47.7879 49.1856 47.8504 48.7425 48.0062C48.2993 48.1621 47.8932 48.4079 47.5497 48.7282C47.2061 49.0485 46.9324 49.4365 46.746 49.8676C46.5595 50.2988 46.4642 50.7638 46.4661 51.2335V54.0918C46.4403 54.547 46.5117 55.0025 46.6754 55.4281C46.8392 55.8536 47.0916 56.2395 47.4158 56.5601C47.7401 56.8806 48.1288 57.1286 48.5562 57.2875C48.9836 57.4464 49.4398 57.5125 49.8948 57.4816H54.3469C54.718 57.4939 55.0787 57.3584 55.3499 57.1048C55.621 56.8513 55.7804 56.5004 55.793 56.1294V46.8169C55.793 44.5587 54.6284 43.1321 51.8462 43.1321ZM52.2375 53.3785V53.7613C52.237 53.7917 52.2336 53.822 52.2273 53.8518C52.2223 53.8789 52.2147 53.9055 52.2045 53.9312C52.1626 54.0415 52.0877 54.1361 51.99 54.2022C51.8922 54.2683 51.7765 54.3027 51.6586 54.3005H50.6368C50.4885 54.3055 50.3443 54.2515 50.2359 54.1502C50.1275 54.0489 50.0638 53.9088 50.0587 53.7605V53.2974V53.2805V52.0482V51.6603C50.0649 51.5127 50.1291 51.3734 50.2373 51.2728C50.3455 51.1721 50.4891 51.1182 50.6368 51.1228H51.6594C51.8078 51.118 51.9521 51.1723 52.0606 51.2737C52.1691 51.375 52.233 51.5153 52.2383 51.6637L52.2375 53.3785Z" fill="#002970"/>
<path d="M61.5219 61.2425H60.7207V60.9721C60.7207 60.6991 60.8314 60.5385 61.1593 60.5385C61.2815 60.5399 61.4028 60.5592 61.5193 60.596L61.7162 59.7551C61.4591 59.6825 61.1932 59.6453 60.926 59.6444C60.7494 59.6272 60.571 59.649 60.4037 59.7083C60.2364 59.7676 60.0842 59.863 59.9577 59.9876C59.8313 60.1122 59.7339 60.2631 59.6722 60.4296C59.6105 60.5961 59.5862 60.774 59.6009 60.9509V61.2425H59.0312V62.0834H59.6009V65.2772H60.7198V62.0834H61.521L61.5219 61.2425ZM63.9592 65.3558C64.2314 65.368 64.503 65.3218 64.7559 65.2203C65.0087 65.1188 65.2369 64.9643 65.425 64.7673C65.6132 64.5702 65.757 64.3352 65.8467 64.078C65.9364 63.8207 65.9701 63.5472 65.9453 63.2759C65.971 63.0041 65.938 62.73 65.8487 62.472C65.7593 62.2141 65.6157 61.9783 65.4274 61.7805C65.2392 61.5828 65.0107 61.4278 64.7574 61.326C64.5041 61.2241 64.2319 61.1778 63.9592 61.1901C63.6865 61.1778 63.4143 61.2241 63.161 61.326C62.9077 61.4278 62.6793 61.5828 62.491 61.7805C62.3027 61.9783 62.1591 62.2141 62.0698 62.472C61.9804 62.73 61.9475 63.0041 61.9732 63.2759C61.9484 63.5472 61.982 63.8207 62.0717 64.078C62.1615 64.3352 62.3053 64.5702 62.4934 64.7673C62.6816 64.9643 62.9097 65.1188 63.1626 65.2203C63.4154 65.3218 63.687 65.368 63.9592 65.3558ZM63.9643 64.4887C63.3997 64.4887 63.1107 63.9715 63.1107 63.2675C63.1107 62.5635 63.3997 62.0437 63.9643 62.0437C64.5288 62.0437 64.8094 62.5635 64.8094 63.2675C64.8094 63.9715 64.5187 64.4887 63.9643 64.4887ZM66.749 65.2772H67.868V62.9953C67.8645 62.8824 67.8846 62.77 67.9269 62.6653C67.9692 62.5605 68.0328 62.4657 68.1137 62.3869C68.1946 62.308 68.291 62.2469 68.3968 62.2073C68.5026 62.1677 68.6155 62.1506 68.7283 62.157C68.8877 62.1569 69.0464 62.177 69.2007 62.217V61.2239C69.0853 61.1983 68.9674 61.185 68.8492 61.1842C68.625 61.181 68.4064 61.2548 68.23 61.3932C68.0536 61.5316 67.93 61.7263 67.8798 61.9448H67.8375V61.2408H66.749V65.2772Z" fill="#002970"/>
<defs>
<filter id="filter0_d" x="0" y="0.0546875" width="128" height="128" filterUnits="userSpaceOnUse" color-interpolation-filters="sRGB">
<feFlood flood-opacity="0" result="BackgroundImageFix"/>
<feColorMatrix in="SourceAlpha" type="matrix" values="0 0 0 0 0 0 0 0 0 0 0 0 0 0 0 0 0 0 127 0"/>
<feOffset dy="5"/>
<feGaussianBlur stdDeviation="10"/>
<feColorMatrix type="matrix" values="0 0 0 0 0 0 0 0 0 0.160784 0 0 0 0 0.439216 0 0 0 0.1 0"/>
<feBlend mode="normal" in2="BackgroundImageFix" result="effect1_dropShadow"/>
<feBlend mode="normal" in="SourceGraphic" in2="effect1_dropShadow" result="shape"/>
</filter>
</defs>
</svg>
