<svg width="169" height="58" viewBox="0 0 169 58" fill="none" xmlns="http://www.w3.org/2000/svg">
<path d="M18.0001 22H150.996C160.907 22 168.996 30.0891 168.996 40C168.996 49.9109 160.907 58 150.996 58H18.0001C8.08912 58 0 49.9109 0 40C0 30.0891 8.01625 22 18.0001 22Z" fill="#D3EEFB"/>
<path d="M133.796 44.7373C132.557 45.3932 131.099 45.7576 129.715 45.8304C125.998 45.8304 124.322 43.0612 125.634 39.5632C127.019 36.0653 130.954 33.2231 134.67 33.2231C138.387 33.2231 140.063 35.9924 138.751 39.4904C138.241 40.8021 137.367 42.041 136.274 42.9883L137.075 44.0814L134.67 45.9762L133.796 44.7373ZM132.265 42.624L131.172 41.1665L133.65 39.2717L134.743 40.7292C135.035 40.3648 135.253 40.0005 135.399 39.5632C136.128 37.8142 135.399 36.2839 133.577 36.2839C131.755 36.2839 129.934 37.8142 129.205 39.5632C128.549 41.3122 129.132 42.8426 131.027 42.8426C131.391 42.8426 131.828 42.7697 132.265 42.624Z" fill="#24B8EB"/>
<path d="M143.707 33.4414H149.464C151.286 33.4414 152.379 33.9515 152.889 34.7532C153.326 35.4819 153.326 36.3564 152.889 37.5953C152.16 39.3443 150.703 40.7289 148.954 41.3119L150.193 45.5386H146.33L145.31 41.8949H143.853L142.395 45.5386H139.043L143.707 33.4414ZM147.059 39.2714C148.079 39.3442 149.027 38.7612 149.391 37.8139C149.755 36.8665 149.245 36.3564 148.152 36.3564H145.966L144.8 39.2714H147.059Z" fill="#24B8EB"/>
<path d="M26.4512 33.2231H29.0747L29.5119 45.6118H26.7428L26.6698 42.8426H21.4957L19.3095 45.6118H16.3945L26.4512 33.2231ZM26.597 40.5106L26.5241 36.4296L23.3176 40.5106H26.597Z" fill="#24326B"/>
<path d="M36.3644 33.2959H39.0607L35.1984 43.134H39.1337L38.1862 45.6117H31.5547L36.3644 33.2959Z" fill="#24326B"/>
<path d="M45.1808 33.2959H47.8772L44.0148 43.134H47.9501L47.0027 45.6117H40.3711L45.1808 33.2959Z" fill="#24326B"/>
<path d="M58.5949 33.2959H61.2912L56.4815 45.6117H53.7852L58.5949 33.2959Z" fill="#24326B"/>
<path d="M65.4412 33.2959H67.919L70.5425 41.0935L73.6031 33.2959H76.2996L71.4898 45.6117H69.1578L66.3886 37.5226L63.255 45.6117H60.5586L65.4412 33.2959Z" fill="#24326B"/>
<path d="M81.1111 40.3646C81.6941 36.2108 85.265 33.15 89.4188 33.0771C92.844 33.0771 94.7386 35.4091 94.3743 38.5427C93.7913 42.6966 90.2204 45.7573 86.0666 45.8302C82.6415 45.8302 80.6739 43.4982 81.1111 40.3646ZM91.4593 38.7614C91.6779 36.9395 90.7306 35.6278 88.6901 35.6278C86.1395 35.6278 84.0989 38.1055 83.8803 40.2189C83.6617 42.0407 84.6091 43.3525 86.6496 43.3525C89.2731 43.3525 91.2407 40.8747 91.4593 38.7614Z" fill="#24326B"/>
<path d="M99.1794 33.2959H101.657L104.281 41.0935L107.341 33.2959H110.038L105.228 45.6117H102.896L100.127 37.5226L96.9932 45.6117H94.2969L99.1794 33.2959Z" fill="#24326B"/>
<path d="M113.245 33.2959H122.427L121.48 35.7007H114.994L114.046 38.1785H119.731L118.783 40.5833H113.099L112.079 43.2068H118.71L117.763 45.6117H108.508L113.245 33.2959Z" fill="#24326B"/>
<path d="M51.8881 39.8545H49.6289L50.4306 37.814H52.6897L51.8881 39.8545Z" fill="#24326B"/>
<path d="M78.556 39.8545H76.2969L77.0985 37.814H79.3576L78.556 39.8545Z" fill="#24326B"/>
<path d="M113.344 5.35559C112.8 3.83274 111.35 2.78125 109.682 2.78125H109.646C108.594 2.78125 107.579 3.21635 106.854 3.97777C106.128 3.21635 105.113 2.78125 104.062 2.78125H104.025C103.083 2.78125 102.213 3.10757 101.487 3.72397V3.4339C101.451 3.14383 101.234 2.89002 100.907 2.89002H98.3692C98.0429 2.89002 97.7891 3.14383 97.7891 3.47016V17.5384C97.7891 17.8647 98.0429 18.1185 98.3692 18.1185H100.944C101.234 18.1185 101.487 17.901 101.524 17.6109V7.53109C101.524 7.49483 101.524 7.45857 101.524 7.42231C101.56 6.95096 101.959 6.58837 102.43 6.55211H102.901C103.083 6.55211 103.3 6.62463 103.445 6.76966C103.663 6.95096 103.808 7.24102 103.808 7.53109V17.5746C103.808 17.901 104.062 18.1548 104.388 18.1548H106.962C107.252 18.1548 107.506 17.901 107.543 17.6109V7.53109C107.543 7.20476 107.688 6.9147 107.978 6.73341C108.123 6.62463 108.268 6.58837 108.449 6.58837H108.92C109.428 6.62463 109.827 7.05973 109.827 7.56735V17.6109C109.827 17.9372 110.081 18.191 110.407 18.191H112.981C113.308 18.191 113.561 17.9372 113.561 17.6109V6.73341C113.561 6.26205 113.489 5.82695 113.344 5.35559Z" fill="#00BAF2"/>
<path d="M95.827 2.93692H94.3404V0.543875C94.3404 0.253808 94.0866 0 93.7965 0C93.7603 0 93.724 0 93.6877 0C92.0561 0.471358 92.4187 2.71937 89.4093 2.93692H89.1192C89.0829 2.93692 89.0467 2.93692 89.0104 2.93692C88.7204 3.00944 88.5391 3.22699 88.5391 3.51706V6.0914C88.5391 6.41772 88.7929 6.67153 89.1192 6.67153H90.6783V17.6578C90.6783 17.9841 90.9321 18.2379 91.2584 18.2379H93.8328C94.1591 18.2379 94.4129 17.9841 94.4129 17.6578V6.67153H95.8632C96.1896 6.67153 96.4434 6.41772 96.4434 6.0914V3.51706C96.4071 3.19073 96.1171 2.93692 95.827 2.93692Z" fill="#00BAF2"/>
<path d="M86.505 2.93018H83.9307C83.6043 2.93018 83.3505 3.18398 83.3505 3.51031V8.87654C83.3505 9.20286 83.0605 9.45667 82.7341 9.45667H81.6464C81.3201 9.45667 81.03 9.1666 81.03 8.84028V3.51031C81.03 3.18398 80.7762 2.93018 80.4499 2.93018H77.8755C77.5492 2.93018 77.2954 3.18398 77.2954 3.51031V9.38415C77.2229 11.4146 78.782 13.1188 80.8125 13.1913C80.9212 13.1913 80.9937 13.1913 81.1025 13.1913C81.1025 13.1913 82.7704 13.1913 82.8429 13.1913C83.1692 13.2275 83.4231 13.5176 83.3868 13.8439C83.3505 14.134 83.133 14.3515 82.8792 14.3878H82.8429H79.0721C78.7457 14.3878 78.4919 14.6416 78.4919 14.9679V17.5423C78.4919 17.8686 78.7457 18.1224 79.0721 18.1224H83.3143C85.3447 18.1949 87.0489 16.6358 87.1214 14.6054C87.1214 14.4966 87.1214 14.4241 87.1214 14.3153V3.51031C87.0851 3.18398 86.8313 2.93018 86.505 2.93018Z" fill="#002970"/>
<path d="M61.6778 2.92969H55.9853C55.6952 2.92969 55.4414 3.1835 55.4414 3.47356V6.01164V6.0479V17.5418C55.4414 17.8319 55.659 18.0857 55.949 18.1219H58.5959C58.9222 18.1219 59.176 17.8681 59.176 17.5418V13.5896H61.6416C63.4908 13.6621 65.0861 12.2481 65.1586 10.3989C65.1586 10.2901 65.1586 10.1813 65.1586 10.0726V6.44674C65.2674 4.59757 63.8533 3.0022 61.9679 2.92969C61.8591 2.92969 61.7866 2.92969 61.6778 2.92969ZM61.424 7.67953V9.27489C61.424 9.60122 61.1702 9.89128 60.8076 9.89128H59.176V6.70055H60.8076C61.134 6.70055 61.424 6.99062 61.424 7.31694V7.67953Z" fill="#002970"/>
<path d="M71.7863 2.94434H68.1605C67.8704 2.94434 67.6166 3.16189 67.6166 3.48821V4.50344V4.5397V5.91752C67.6166 6.24384 67.9067 6.49765 68.233 6.49765H71.6413C71.9313 6.53391 72.1489 6.75146 72.1489 7.04153V7.36785C72.1489 7.65792 71.9313 7.87547 71.6413 7.91172H69.9371C67.6891 7.87547 66.0938 9.39832 66.0938 11.5013V14.5107C66.0938 16.6137 67.4716 18.1003 69.7196 18.1003H74.4332C75.2308 18.1366 75.9198 17.4839 75.956 16.6862V6.82398C75.9198 4.43093 74.7232 2.94434 71.7863 2.94434ZM72.1851 13.7493V14.1482C72.1851 14.1844 72.1851 14.2207 72.1851 14.2569C72.1851 14.2932 72.1851 14.3294 72.1489 14.3294C72.0401 14.5833 71.8226 14.7283 71.5688 14.7283H70.481C70.1547 14.7283 69.8646 14.4745 69.8646 14.1482V13.6768V12.3715V11.9727C69.8646 11.6463 70.1547 11.3925 70.481 11.3925H71.5688C71.8951 11.3925 72.1851 11.6463 72.1851 11.9727V13.7493Z" fill="#002970"/>
</svg>
