<svg width="120" height="120" viewBox="0 0 120 120" fill="none" xmlns="http://www.w3.org/2000/svg">
<rect opacity="0.13" width="120" height="120" rx="22.5" fill="white"/>
<rect x="9.08984" y="9.09082" width="101" height="101" rx="16" fill="white"/>
<path d="M91.8186 44.6475L61.5664 31.1557C61.2036 30.993 60.8107 30.9089 60.4132 30.9089C60.0156 30.9089 59.6227 30.993 59.26 31.1557L29.015 44.6475C28.5305 44.8635 28.1164 45.2112 27.8199 45.651C27.5234 46.0908 27.3563 46.605 27.3377 47.1351C27.3191 47.6652 27.4496 48.1899 27.7145 48.6494C27.9794 49.1089 28.368 49.4848 28.8361 49.7343L59.087 65.8669C59.4976 66.0858 59.9558 66.2004 60.4211 66.2004C60.8865 66.2004 61.3447 66.0858 61.7553 65.8669L92.009 49.7343C92.4774 49.4848 92.8662 49.1087 93.1311 48.6489C93.3961 48.189 93.5264 47.664 93.5073 47.1337C93.4882 46.6033 93.3204 46.089 93.0231 45.6494C92.7258 45.2098 92.311 44.8627 91.8259 44.6475H91.8186Z" fill="#00BAF2"/>
<path d="M89.333 56.7176L60.4106 72.1453L31.4882 56.7176C30.8259 56.3688 30.0525 56.2965 29.3369 56.5163C28.6213 56.736 28.0218 57.2301 27.6694 57.8906C27.317 58.551 27.2404 59.324 27.4563 60.0408C27.6721 60.7576 28.1628 61.3598 28.8213 61.7158L59.072 77.8484C59.4827 78.067 59.941 78.1813 60.4063 78.1813C60.8716 78.1813 61.3298 78.067 61.7405 77.8484L91.9926 61.7158C92.3208 61.5406 92.6112 61.3025 92.8474 61.015C93.0835 60.7275 93.2608 60.3964 93.369 60.0404C93.4771 59.6845 93.5142 59.3107 93.4779 58.9404C93.4416 58.5702 93.3327 58.2107 93.1575 57.8825C92.9823 57.5543 92.7442 57.2638 92.4567 57.0277C92.1692 56.7915 91.8381 56.6144 91.4822 56.5062C91.1262 56.398 90.7524 56.361 90.3822 56.3973C90.0119 56.4336 89.6525 56.5424 89.3243 56.7176H89.333Z" fill="#002970"/>
<path d="M89.3392 67.7835L60.4168 83.2068L31.4944 67.7835C31.1656 67.5986 30.8033 67.4813 30.4285 67.4383C30.0537 67.3954 29.6741 67.4278 29.312 67.5335C28.9499 67.6393 28.6125 67.8163 28.3198 68.0541C28.027 68.292 27.7847 68.586 27.6071 68.9188C27.4295 69.2516 27.3201 69.6165 27.2854 69.9921C27.2507 70.3678 27.2915 70.7465 27.4052 71.1062C27.5189 71.4659 27.7033 71.7993 27.9475 72.0867C28.1918 72.3742 28.4909 72.61 28.8275 72.7802L59.0782 88.9128C59.4886 89.1324 59.947 89.2473 60.4125 89.2473C60.878 89.2473 61.3363 89.1324 61.7467 88.9128L91.9988 72.7802C92.3329 72.6084 92.6295 72.3719 92.8713 72.0844C93.1131 71.7969 93.2953 71.4641 93.4073 71.1054C93.5193 70.7468 93.5589 70.3695 93.5237 69.9955C93.4884 69.6215 93.3792 69.2582 93.2022 68.9268C93.0252 68.5954 92.784 68.3025 92.4927 68.0652C92.2015 67.8279 91.8661 67.6509 91.5058 67.5445C91.1454 67.4381 90.7675 67.4044 90.3941 67.4455C90.0206 67.4865 89.6591 67.6014 89.3305 67.7835H89.3392Z" fill="#00BAF2"/>
<path d="M54.5599 48.4952V48.4711C54.5686 48.1442 54.5075 47.8192 54.3807 47.5165C54.2589 47.2486 54.0763 47.0111 53.8467 46.8219C53.5853 46.6084 53.2913 46.4361 52.9753 46.3111C52.5939 46.1577 52.2021 46.0305 51.8025 45.9304C51.43 45.8338 51.1218 45.749 50.8777 45.6759C50.6787 45.6204 50.4868 45.5432 50.3056 45.4456C50.184 45.3831 50.0829 45.2885 50.0138 45.1726C49.9574 45.0651 49.928 44.9461 49.928 44.8253V44.8012C49.9266 44.697 49.9512 44.5941 49.9997 44.5012C50.0482 44.4084 50.1191 44.3284 50.2064 44.2682C50.4547 44.1098 50.7495 44.0354 51.0455 44.0564C51.4294 44.0584 51.8091 44.1342 52.1629 44.2793C52.565 44.4438 52.9485 44.6486 53.3071 44.8903L54.3006 43.4881C53.8588 43.1442 53.3613 42.8743 52.8284 42.6895C52.2638 42.499 51.6697 42.4048 51.0722 42.4109C50.6546 42.4078 50.2392 42.4705 49.8422 42.5966C49.4926 42.7078 49.1688 42.8845 48.8888 43.1167C48.623 43.338 48.4091 43.6122 48.2614 43.9209C48.1087 44.2491 48.0325 44.6062 48.0383 44.9665V44.9906C48.0261 45.352 48.0958 45.7115 48.2423 46.0437C48.3731 46.3202 48.5691 46.5626 48.8144 46.7513C49.0893 46.9548 49.3948 47.1158 49.7202 47.2286C50.1102 47.3678 50.5081 47.485 50.912 47.5796C51.2124 47.6499 51.509 47.7348 51.8006 47.8341C51.987 47.8956 52.166 47.9765 52.3345 48.0755C52.4445 48.1371 52.5349 48.2271 52.5958 48.3355C52.643 48.4363 52.6664 48.5461 52.6644 48.6568V48.681C52.6674 48.7984 52.6385 48.9146 52.5806 49.0176C52.5226 49.1207 52.4378 49.207 52.3345 49.2678C52.0538 49.4241 51.7325 49.4977 51.4097 49.4796C50.9367 49.4845 50.4683 49.3894 50.0367 49.201C49.5985 49.005 49.1878 48.7553 48.8144 48.4581L47.6836 49.7767C48.1881 50.2261 48.7792 50.5733 49.4227 50.7982C50.0478 51.0177 50.7071 51.1302 51.3716 51.1306C51.8084 51.1357 52.2436 51.0768 52.6625 50.9561C53.0279 50.8507 53.3691 50.6779 53.6675 50.4472C53.9486 50.2257 54.1737 49.9442 54.3254 49.6244C54.4893 49.2698 54.5694 48.884 54.5599 48.4952ZM64.2337 46.7661V46.742C64.24 46.1684 64.1258 45.5995 63.8981 45.0705C63.6788 44.5652 63.3541 44.1098 62.9446 43.7333C62.5213 43.3457 62.0236 43.0434 61.4801 42.8437C60.883 42.6247 60.2493 42.5158 59.6113 42.5224H56.2227V50.9876H59.6132C60.2518 50.9947 60.8859 50.8837 61.482 50.6608C62.0251 50.4575 62.5224 50.1535 62.9465 49.7656C63.357 49.3877 63.6818 48.9303 63.9 48.4228C64.1234 47.8972 64.2363 47.3332 64.2318 46.7643L64.2337 46.7661ZM62.2352 46.7903C62.2411 47.1421 62.1764 47.4916 62.0445 47.8192C61.9221 48.117 61.7407 48.3883 61.5106 48.6178C61.2773 48.8474 60.9956 49.0248 60.6849 49.1378C60.3438 49.2635 59.9817 49.3264 59.617 49.3236H58.1392V44.2124H59.617C59.9819 44.2074 60.3444 44.2705 60.6849 44.3982C60.995 44.5149 61.2764 44.694 61.5106 44.9238C61.7426 45.1561 61.9242 45.4314 62.0445 45.7335C62.1749 46.0615 62.2396 46.4108 62.2352 46.7624V46.7903ZM73.8445 50.9969L70.1432 46.1254L73.6824 42.5316H71.3731L67.8454 46.2331V42.5316H65.9384V50.9969H67.8454V48.4098L68.8465 47.3939L71.5467 50.9969H73.8445Z" fill="#F6F6F6"/>
</svg>
