<svg width="60" height="50" viewBox="0 0 60 50" fill="none" xmlns="http://www.w3.org/2000/svg">
<path d="M6.58868 21.1768H3.80022C3.32277 21.1768 2.86487 21.3805 2.52727 21.7432C2.18966 22.1058 2 22.5977 2 23.1106V30.8671C2 31.38 2.18966 31.8718 2.52727 32.2345C2.86487 32.5972 3.32277 32.8009 3.80022 32.8009H6.58868" fill="white"/>
<path d="M6.58868 21.1768H3.80022C3.32277 21.1768 2.86487 21.3805 2.52727 21.7432C2.18966 22.1058 2 22.5977 2 23.1106V30.8671C2 31.38 2.18966 31.8718 2.52727 32.2345C2.86487 32.5972 3.32277 32.8009 3.80022 32.8009H6.58868" stroke="#00BAF2" stroke-width="3.11405" stroke-linecap="round"/>
<path d="M54.2337 21.1768H56.1986C56.6761 21.1768 57.1339 21.3805 57.4715 21.7432C57.8092 22.1058 57.9988 22.5977 57.9988 23.1106V30.8671C57.9988 31.38 57.8092 31.8718 57.4715 32.2345C57.1339 32.5972 56.6761 32.8009 56.1986 32.8009H53.4102" fill="white"/>
<path d="M54.2337 21.1768H56.1986C56.6761 21.1768 57.1339 21.3805 57.4715 21.7432C57.8092 22.1058 57.9988 22.5977 57.9988 23.1106V30.8671C57.9988 31.38 57.8092 31.8718 57.4715 32.2345C57.1339 32.5972 56.6761 32.8009 56.1986 32.8009H53.4102" stroke="#00BAF2" stroke-width="3.11405" stroke-linecap="round"/>
<path d="M40.4351 45.8503H44.0942C48.2253 42.8448 51.2927 38.5973 52.8508 33.725C54.4089 28.8527 54.3765 23.6093 52.7582 18.7568C51.14 13.9042 48.0202 9.69517 43.8522 6.74122C39.6842 3.78728 34.6851 2.2423 29.5812 2.33075C24.4773 2.41919 19.5345 4.13646 15.4708 7.23305C11.4072 10.3296 8.43448 14.6443 6.98457 19.55C5.53466 24.4558 5.68307 29.6971 7.40828 34.5125C9.13348 39.3279 12.3456 43.4666 16.5779 46.3272" fill="white"/>
<path d="M40.4351 45.8503H44.0942C48.2253 42.8448 51.2927 38.5973 52.8508 33.725C54.4089 28.8527 54.3765 23.6093 52.7582 18.7568C51.14 13.9042 48.0202 9.69517 43.8522 6.74122C39.6843 3.78728 34.6851 2.2423 29.5812 2.33075C24.4773 2.41919 19.5345 4.13646 15.4708 7.23305C11.4072 10.3296 8.43448 14.6443 6.98457 19.55C5.53466 24.4558 5.68307 29.6971 7.40828 34.5125C9.13348 39.3279 12.3456 43.4666 16.5779 46.3272" stroke="#00BAF2" stroke-width="3" stroke-linecap="round"/>
<path d="M37.5828 48.1521H27.9114C27.4052 48.1498 26.9203 47.9438 26.5623 47.5788C26.2043 47.2138 26.0022 46.7193 26 46.2031V45.949C26.0025 45.4328 26.2046 44.9386 26.5626 44.5736C26.9205 44.2087 27.4052 44.0025 27.9114 44H37.5828C38.0891 44.0022 38.574 44.2083 38.932 44.5733C39.29 44.9383 39.492 45.4328 39.4942 45.949V46.2031C39.4923 46.7194 39.2903 47.214 38.9323 47.5791C38.5742 47.9442 38.0892 48.1501 37.5828 48.1521V48.1521Z" stroke="#00BAF2" stroke-width="3" stroke-linecap="round"/>
<path d="M15.1839 31.1895H21.4055V29.6809H17.7408V29.6213L19.0149 28.3727C20.809 26.7363 21.2905 25.9181 21.2905 24.9252C21.2905 23.4125 20.0547 22.3429 18.1839 22.3429C16.3516 22.3429 15.0945 23.438 15.0987 25.1511H16.8501C16.8459 24.3159 17.3743 23.8045 18.1712 23.8045C18.9382 23.8045 19.5092 24.2818 19.5092 25.0488C19.5092 25.7434 19.0831 26.2207 18.2905 26.9835L15.1839 29.8599V31.1895ZM22.4229 29.6554H26.6119V31.1895H28.3761V29.6554H29.4585V28.1767H28.3761V22.4622H26.0664L22.4229 28.2022V29.6554ZM26.646 28.1767H24.2809V28.1085L26.5778 24.4735H26.646V28.1767ZM36.0444 29.9792L37.1651 28.8585L35.1793 26.877L37.1651 24.8954L36.0444 23.7662L34.0586 25.752L32.0685 23.7662L30.9521 24.8954L32.9336 26.877L30.9521 28.8585L32.0685 29.9792L34.0586 27.9934L36.0444 29.9792ZM39.1893 31.1895H41.0941L44.7163 23.992V22.4622H38.5927V23.9707H42.8072V24.0304L39.1893 31.1895Z" fill="#00BAF2"/>
</svg>
