<svg width="152" height="59" viewBox="0 0 152 59" fill="none" xmlns="http://www.w3.org/2000/svg">
<g clip-path="url(#clip0)">
<path d="M105.078 5.45886C104.529 3.89694 103.03 2.83887 101.383 2.83887H101.333C100.284 2.83887 99.2355 3.29232 98.5364 4.04809C97.7874 3.29232 96.7887 2.83887 95.7401 2.83887H95.6901C94.7414 2.83887 93.8426 3.19155 93.1435 3.79617V3.49387C93.1435 3.19157 92.8938 2.93964 92.5942 2.93964H89.9976C89.698 2.93964 89.3984 3.19155 89.3984 3.54424V17.8534C89.3984 18.1557 89.6481 18.458 89.9976 18.458H92.5942C92.8938 18.458 93.1435 18.2565 93.1435 17.9542V7.67576C93.1435 7.62538 93.1435 7.62537 93.1435 7.57499C93.1934 7.07114 93.543 6.71846 94.0423 6.66808H94.5417C94.7414 6.66808 94.9411 6.76884 95.0909 6.86961C95.3406 7.07115 95.4405 7.32307 95.4405 7.62537V17.8534C95.4405 18.1557 95.6901 18.458 96.0397 18.458H98.6363C98.9359 18.458 99.1855 18.2061 99.2355 17.9038V7.67576C99.2355 7.32307 99.3853 7.02076 99.6849 6.86961C99.8347 6.76884 99.9845 6.71846 100.184 6.71846H100.684C101.183 6.76885 101.582 7.17192 101.582 7.72615V17.9038C101.582 18.2061 101.832 18.5084 102.182 18.5084H104.778C105.078 18.5084 105.377 18.2565 105.377 17.9038V6.92C105.278 6.36577 105.228 5.91231 105.078 5.45886Z" fill="#00BCF1"/>
<path d="M87.3981 2.98978H85.9001V0.57132C85.9001 0.269014 85.6504 0.0170898 85.3508 0.0170898C85.3009 0.0170898 85.3008 0.0170898 85.2509 0.0170898C83.6031 0.470548 83.9526 2.78824 80.9066 2.98978H80.607C80.5571 2.98978 80.5072 2.98978 80.4572 2.98978C80.2075 3.04016 80.0078 3.29207 80.0078 3.54399V6.16398C80.0078 6.46629 80.2575 6.7686 80.607 6.7686H82.2049V17.9539C82.2049 18.2562 82.4546 18.5081 82.7542 18.5081H85.3508C85.6504 18.5081 85.9001 18.2562 85.9001 17.9539V6.7686H87.3482C87.6478 6.7686 87.9474 6.51667 87.9474 6.16398V3.54399C87.9973 3.24168 87.7476 2.98978 87.3981 2.98978Z" fill="#00BCF1"/>
<path d="M78.0149 2.98975H75.4183C75.1187 2.98975 74.8191 3.24166 74.8191 3.59435V9.03586C74.8191 9.38855 74.5195 9.64046 74.2199 9.64046H73.1213C72.7718 9.64046 72.5221 9.38855 72.5221 9.03586V3.59435C72.5221 3.29204 72.2724 2.98975 71.9229 2.98975H69.3263C69.0267 2.98975 68.7271 3.24166 68.7271 3.59435V9.5397C68.6272 11.6055 70.2251 13.3185 72.2724 13.4193C72.3723 13.4193 72.4722 13.4193 72.572 13.4193C72.572 13.4193 74.2698 13.4193 74.3197 13.4193C74.6693 13.4697 74.919 13.772 74.869 14.0743C74.8191 14.3766 74.6194 14.5781 74.3197 14.6285H74.2698H70.4748C70.1752 14.6285 69.8756 14.8804 69.8756 15.2331V17.8531C69.8756 18.1554 70.1253 18.4577 70.4748 18.4577H74.7192C76.7665 18.5585 78.4643 16.9462 78.5642 14.8804C78.5642 14.7797 78.5642 14.6789 78.5642 14.5781V3.54396C78.6141 3.24166 78.3644 2.98975 78.0149 2.98975Z" fill="#213368"/>
<path d="M52.9957 2.98975H47.3032C47.0036 2.98975 46.7539 3.24166 46.7539 3.54396V6.11356V6.16395V17.8531C46.7539 18.1554 46.9537 18.4073 47.3032 18.4577H49.9497C50.2493 18.4577 50.5489 18.2058 50.5489 17.8531V13.8727H53.0456C54.8932 13.9735 56.4911 12.5124 56.591 10.6481C56.591 10.5474 56.591 10.4466 56.591 10.2955V6.56702C56.6908 4.7028 55.2427 3.09051 53.3452 2.98975C53.1954 2.98975 53.0956 2.98975 52.9957 2.98975ZM52.746 7.77625V9.38854C52.746 9.74123 52.4963 9.99316 52.1468 9.99316H50.499V6.71818H52.1468C52.4963 6.71818 52.746 6.97009 52.746 7.32278V7.77625Z" fill="#213368"/>
<path d="M63.1839 2.98975H59.5886C59.289 2.98975 59.0393 3.24166 58.9894 3.54396V4.55165V5.96242C58.9894 6.31511 59.289 6.56703 59.5886 6.51665H63.0341C63.3337 6.56703 63.5334 6.76856 63.5334 7.07086V7.42356C63.5334 7.72586 63.2837 7.9274 63.0341 7.97779H61.3363C59.0892 7.97779 57.4414 9.48931 57.4414 11.6558V14.7293C57.4414 16.8454 58.8396 18.357 61.0866 18.357H65.8304C66.6293 18.4073 67.3284 17.7523 67.3783 16.8958V6.91972C67.3783 4.50127 66.13 2.98975 63.1839 2.98975ZM63.5833 13.9735V14.3766C63.5833 14.427 63.5833 14.427 63.5833 14.4774C63.5833 14.5277 63.5833 14.5278 63.5833 14.5781C63.4835 14.8301 63.2837 14.9812 62.9841 14.9812H61.8855C61.536 14.9812 61.2864 14.7293 61.2864 14.427V13.9231V12.6131V12.2101C61.2864 11.8574 61.5859 11.6055 61.8855 11.6558H62.9841C63.3336 11.6558 63.5833 11.9078 63.5833 12.2101V13.9735Z" fill="#213368"/>
<path d="M17.8148 22.9907H134.162C143.999 22.9907 151.988 31.0522 151.988 40.9779C151.988 50.9036 143.999 58.9651 134.162 58.9651H17.8148C7.97776 58.9651 -0.0117188 50.9036 -0.0117188 40.9779C-0.0117188 31.0522 7.97776 22.9907 17.8148 22.9907Z" fill="#D3EEFB"/>
<path d="M18.1094 44.7826L20.9057 42.5153C21.7546 43.523 23.0029 44.0269 24.3012 43.9765C25.2 43.9765 25.7993 43.6742 26.0489 43.12V43.0696C26.2487 42.5657 25.9491 42.2634 24.451 41.9107C22.0542 41.3061 20.3564 40.5504 21.3551 38.0311V37.9807C22.2539 35.6631 24.7007 34.0508 27.6468 34.0508C29.7441 34.0508 31.1422 34.605 32.041 35.7135L29.3945 38.1319C28.5956 37.3761 27.547 36.9227 26.4484 36.9227C25.6495 36.9227 25.1002 37.2754 24.9004 37.7288V37.7792C24.7007 38.3334 25.0003 38.5854 26.5483 38.9884C29.1449 39.593 30.4931 40.5 29.5943 42.8176V42.868C28.5956 45.3872 26.0489 46.8988 23.1028 46.8988C20.9057 46.8484 19.1081 46.143 18.1094 44.7826Z" fill="#213368"/>
<path d="M32.5906 40.4497C33.9887 36.8724 37.9335 34.0005 41.7286 34.0005C45.5236 34.0005 47.2213 36.822 45.8232 40.3993V40.4497C44.425 43.9766 40.4802 46.8989 36.7351 46.8989C32.8902 46.8485 31.1924 44.027 32.5906 40.4497ZM42.3278 40.4497C43.0268 38.6359 42.3777 37.0739 40.4802 37.0739C38.6326 37.0739 36.7851 38.5855 36.086 40.3993V40.4497C35.3869 42.2131 36.086 43.775 37.9335 43.775C39.7811 43.775 41.6287 42.2635 42.3278 40.4497Z" fill="#213368"/>
<path d="M47.9691 41.2055L50.6655 34.2524H54.111L51.4645 41.1047C50.7654 42.8682 51.3147 43.7247 52.7128 43.7247C54.061 43.7247 55.3094 42.9186 55.9585 41.2055L58.655 34.2524H62.1005L59.4539 41.1047C57.906 45.0851 54.9599 46.8485 51.4645 46.8485C47.9691 46.8485 46.471 45.0851 47.9691 41.2055Z" fill="#213368"/>
<path d="M64.9452 34.2524H68.091L70.5878 40.8024L73.1344 34.2524H76.48L71.6863 46.5966H68.6903L66.0937 39.8451L63.4472 46.647H60.1016L64.9452 34.2524Z" fill="#213368"/>
<path d="M79.5289 34.2524H84.2727C88.6669 34.2524 90.1649 36.7717 88.8167 40.3489V40.3993C87.4185 43.9766 83.8233 46.5966 79.4291 46.5966H74.7852L79.5289 34.2524ZM80.6774 43.5735C82.7247 43.6239 84.5223 42.3643 85.2714 40.4497V40.3993C86.0204 38.4343 85.1216 37.2755 83.1242 37.2755H81.726L79.2792 43.5735H80.6774Z" fill="#213368"/>
<path d="M93.7594 34.2524H100.051C101.599 34.2524 102.498 34.6555 102.947 35.3609C103.247 35.8647 103.297 36.5197 102.947 37.3763V37.4267C102.398 38.8374 101.25 39.694 100.001 40.1978C101.299 40.7016 101.899 41.5582 101.25 43.2209V43.2712C100.451 45.3874 98.2035 46.6974 95.3073 46.6974H89.0156L93.7594 34.2524ZM95.9565 43.8758C97.0051 43.8758 97.7541 43.4728 98.0038 42.7674V42.717C98.2535 42.062 97.9039 41.6086 96.7554 41.6086H94.1589L93.26 43.8758H95.9565ZM97.3047 39.1901C98.3533 39.1901 99.0524 38.8374 99.352 38.132V38.0817C99.6017 37.4267 99.2521 37.0236 98.2035 37.0236H96.0064L95.1575 39.1901H97.3047Z" fill="#213368"/>
<path d="M104.297 40.4497C105.695 36.8724 109.64 34.0005 113.435 34.0005C117.23 34.0005 118.928 36.822 117.53 40.3993V40.4497C116.131 43.9766 112.187 46.8989 108.442 46.8989C104.696 46.8989 102.899 44.027 104.297 40.4497ZM113.984 40.4497C114.683 38.6359 114.034 37.0739 112.137 37.0739C110.289 37.0739 108.442 38.5855 107.742 40.3993V40.4497C107.043 42.2131 107.742 43.775 109.59 43.775C111.488 43.775 113.285 42.2635 113.984 40.4497Z" fill="#213368"/>
<path d="M123.473 40.3489L121.825 34.2524H125.72L126.519 37.729L130.065 34.2524H133.86L127.468 40.2986L129.216 46.5966H125.321L124.422 42.8682L120.627 46.5966H116.832L123.473 40.3489Z" fill="#213368"/>
</g>
<defs>
<clipPath id="clip0">
<rect width="152" height="59" fill="white"/>
</clipPath>
</defs>
</svg>
