<svg width="61" height="61" viewBox="0 0 61 61" fill="none" xmlns="http://www.w3.org/2000/svg">
<rect x="0.5" y="0.5" width="60" height="60" rx="7.81818" fill="white" stroke="#F6F6F6"/>
<path d="M39.8907 17.1302H21.3319C19.0258 17.1302 17.1562 18.9998 17.1562 21.306V40.3287C17.1562 42.6349 19.0258 44.5044 21.3319 44.5044H39.8907C42.1969 44.5044 44.0663 42.6349 44.0663 40.3287V21.306C44.0663 18.9998 42.1969 17.1302 39.8907 17.1302Z" fill="white"/>
<path d="M43.1423 51.0002C47.2423 51.0002 50.5658 47.5728 50.5658 43.3446C50.5658 39.1166 47.2423 35.6892 43.1423 35.6892C39.0424 35.6892 35.7188 39.1166 35.7188 43.3446C35.7188 47.5728 39.0424 51.0002 43.1423 51.0002Z" fill="white"/>
<path d="M22.5832 31.5665C23.5179 31.5665 24.2757 30.8088 24.2757 29.8739C24.2757 28.9392 23.5179 28.1814 22.5832 28.1814C21.6483 28.1814 20.8906 28.9392 20.8906 29.8739C20.8906 30.8088 21.6483 31.5665 22.5832 31.5665Z" fill="#20336B"/>
<path d="M22.5832 39.608C23.5179 39.608 24.2757 38.8503 24.2757 37.9154C24.2757 36.9807 23.5179 36.2229 22.5832 36.2229C21.6483 36.2229 20.8906 36.9807 20.8906 37.9154C20.8906 38.8503 21.6483 39.608 22.5832 39.608Z" fill="#20336B"/>
<path d="M29.7785 39.608C30.7133 39.608 31.471 38.8503 31.471 37.9154C31.471 36.9807 30.7133 36.2229 29.7785 36.2229C28.8438 36.2229 28.0859 36.9807 28.0859 37.9154C28.0859 38.8503 28.8438 39.608 29.7785 39.608Z" fill="#20336B"/>
<path d="M30.2042 31.5665C31.1391 31.5665 31.8968 30.8088 31.8968 29.8739C31.8968 28.9392 31.1391 28.1814 30.2042 28.1814C29.2695 28.1814 28.5117 28.9392 28.5117 29.8739C28.5117 30.8088 29.2695 31.5665 30.2042 31.5665Z" fill="#20336B"/>
<path d="M37.8175 31.5665C38.7522 31.5665 39.5101 30.8088 39.5101 29.8739C39.5101 28.9392 38.7522 28.1814 37.8175 28.1814C36.8827 28.1814 36.125 28.9392 36.125 29.8739C36.125 30.8088 36.8827 31.5665 37.8175 31.5665Z" fill="#20336B"/>
<path d="M43.3526 33.3436C43.4314 30.1808 43.3526 21.1135 43.3526 21.1135C43.3526 21.1135 43.2254 18.2748 40.3367 18.1003C40.1079 18.1148 37.3242 18.1003 37.3242 18.1003" stroke="#20336B" stroke-width="2.32738"/>
<path d="M22.2629 18.0986H19.2471C19.2471 18.0986 16.1848 18.0142 16.235 21.1116C16.2851 24.2091 16.235 40.6911 16.235 40.6911C16.3006 41.5185 16.6278 42.3035 17.1694 42.9325C17.711 43.5615 18.4386 44.0016 19.2471 44.1894C22.2425 44.3986 34.3168 44.1894 34.3168 44.1894" stroke="#20336B" stroke-width="2.32738"/>
<path d="M23.6602 15.2747V21.3006" stroke="#20336B" stroke-width="2.32738"/>
<path d="M43.3106 24.1248H16.4688" stroke="#20336B" stroke-width="2.32738"/>
<path d="M34.3161 18.0989H25.1758" stroke="#20336B" stroke-width="2.32738"/>
<path d="M36.0938 15.2747V21.3006" stroke="#20336B" stroke-width="2.32738"/>
<path d="M50.4524 43.7796C50.109 45.4484 49.1881 46.9428 47.8514 47.9998C46.5143 49.0562 44.8476 49.6075 43.1446 49.556C41.4414 49.5045 39.8109 48.854 38.5403 47.7187C37.2697 46.5832 36.4404 45.0359 36.1983 43.3494C35.9564 41.6627 36.3173 39.9446 37.2174 38.4979C38.1174 37.051 39.4993 35.9683 41.1193 35.44C42.7393 34.9118 44.4937 34.9722 46.0735 35.6103C47.6537 36.2485 48.9579 37.4237 49.7564 38.9288" stroke="#00BAF2" stroke-width="2.32738" stroke-miterlimit="10" stroke-linecap="round"/>
<path d="M50.7706 37.2588L50.0356 39.8219L47.4727 39.0869" stroke="#00BAF2" stroke-width="2.32738" stroke-miterlimit="10" stroke-linecap="round"/>
<path fill-rule="evenodd" clip-rule="evenodd" d="M42.3097 42.7577V42.7464C42.772 42.7248 43.2224 42.5937 43.6241 42.3641C43.9324 42.198 44.1933 41.9566 44.3827 41.6621C44.5513 41.3899 44.6575 41.0839 44.6947 40.7657L45.5734 40.7417C45.5799 40.7417 45.7279 40.499 46.0183 40.0138C46.0183 40.0025 46.0105 39.996 45.9928 39.9929L44.6399 40.03C44.58 39.7444 44.4509 39.4777 44.2639 39.2537L45.5335 39.2199C45.6982 38.9808 45.85 38.7329 45.9881 38.4775V38.4678L41.2352 38.595C41.2254 38.595 41.0747 38.8376 40.7852 39.3178V39.346L42.0379 39.3122C42.281 39.3122 42.5224 39.3519 42.7528 39.4295C43.0762 39.5312 43.349 39.7516 43.516 40.0466V40.0577L41.2727 40.1172C41.2662 40.1172 41.1131 40.3609 40.8134 40.8483C40.8134 40.8614 40.82 40.8678 40.8343 40.8678L43.6589 40.7923C43.6636 40.9024 43.648 41.0126 43.6125 41.1171C43.3762 41.8336 42.7378 42.206 41.6973 42.2338C41.5042 42.2407 41.3108 42.2338 41.1186 42.2129L41.109 42.2384L41.1284 42.9293C41.1284 42.9404 42.0873 44.0587 44.005 46.284L45.0366 46.2567C45.0528 46.2567 45.0608 46.2489 45.0608 46.2358L45.0575 46.0966L42.6313 43.1835C42.5044 43.0583 42.3962 42.9155 42.3097 42.7595" fill="#00BAF2"/>
</svg>
