<svg width="135" height="135" viewBox="0 0 135 135" fill="none" xmlns="http://www.w3.org/2000/svg">
<rect width="135" height="135" rx="24" fill="white" fill-opacity="0.06"/>
<rect x="9.375" y="9.375" width="116" height="116" rx="24" fill="white" fill-opacity="0.2"/>
<rect x="19.6875" y="19.6875" width="95.625" height="95.625" rx="16" fill="white"/>
<g clip-path="url(#clip0)">
<path d="M101.216 54.1634C100.897 53.2524 100.303 52.463 99.5157 51.9046C98.7283 51.3461 97.7868 51.0462 96.8215 51.0464H96.778C96.1508 51.0457 95.5299 51.1722 94.9528 51.4181C94.3758 51.6641 93.8546 52.0245 93.4208 52.4775C92.987 52.0244 92.4658 51.664 91.8888 51.418C91.3117 51.172 90.6908 51.0456 90.0635 51.0464H90.02C88.9054 51.0447 87.8274 51.4447 86.9837 52.1731V51.8231C86.9712 51.6502 86.8938 51.4884 86.7671 51.3701C86.6404 51.2518 86.4736 51.1858 86.3003 51.1852H83.1936C83.0107 51.1852 82.8353 51.2578 82.7059 51.3872C82.5766 51.5165 82.5039 51.6919 82.5039 51.8748V68.7938C82.5039 68.9767 82.5766 69.1521 82.7059 69.2815C82.8353 69.4108 83.0107 69.4835 83.1936 69.4835H86.3003C86.4665 69.4829 86.6268 69.4222 86.7517 69.3126C86.8766 69.2029 86.9576 69.0517 86.9796 68.887V56.7399C86.9766 56.6992 86.9766 56.6584 86.9796 56.6177C87.0029 56.3441 87.1247 56.0884 87.3224 55.8979C87.5201 55.7074 87.7803 55.5952 88.0545 55.5821H88.6303C88.8697 55.5996 89.0983 55.6883 89.2868 55.8369C89.4202 55.9476 89.5268 56.0871 89.5985 56.245C89.6703 56.4028 89.7053 56.5749 89.7011 56.7482L89.7135 68.8311C89.7135 69.014 89.7861 69.1894 89.9155 69.3188C90.0448 69.4481 90.2202 69.5208 90.4031 69.5208H93.5098C93.6866 69.5204 93.8564 69.452 93.984 69.3297C94.1117 69.2075 94.1874 69.0408 94.1954 68.8642V56.7213C94.1909 56.5294 94.2351 56.3395 94.3238 56.1692C94.4126 55.999 94.5429 55.8541 94.7028 55.7478C94.8743 55.637 95.0708 55.5708 95.2744 55.5552H95.8502C96.1461 55.5708 96.4243 55.701 96.6258 55.9183C96.8273 56.1357 96.9361 56.4229 96.9292 56.7192L96.9396 68.7876C96.9396 68.9705 97.0123 69.1459 97.1416 69.2753C97.2709 69.4046 97.4463 69.4773 97.6293 69.4773H100.736C100.919 69.4773 101.094 69.4046 101.224 69.2753C101.353 69.1459 101.426 68.9705 101.426 68.7876V55.8141C101.454 55.2515 101.372 54.6887 101.185 54.1572L101.216 54.1634Z" fill="#00BAF2"/>
<path d="M80.236 51.3131H78.4548V48.4321C78.4548 48.2673 78.3894 48.1093 78.2728 47.9928C78.1563 47.8763 77.9983 47.8108 77.8335 47.8108C77.7938 47.8111 77.7543 47.8152 77.7154 47.8232C75.7396 48.3617 76.1352 51.0914 72.5376 51.3193H72.1876C72.1368 51.3193 72.0861 51.3249 72.0364 51.3358C71.8846 51.3697 71.7488 51.4541 71.6513 51.5753C71.5539 51.6965 71.5005 51.8472 71.5 52.0027V55.1094C71.5 55.1999 71.5179 55.2895 71.5526 55.373C71.5872 55.4566 71.6381 55.5325 71.7021 55.5964C71.7662 55.6602 71.8422 55.7108 71.9259 55.7453C72.0096 55.7797 72.0992 55.7973 72.1897 55.797H74.0702V68.9465C74.0702 69.0359 74.0879 69.1244 74.1222 69.207C74.1564 69.2895 74.2067 69.3645 74.27 69.4276C74.3333 69.4907 74.4084 69.5407 74.4911 69.5748C74.5737 69.6088 74.6623 69.6261 74.7517 69.6259H77.8314C78.0098 69.6248 78.1806 69.5536 78.3069 69.4277C78.4332 69.3017 78.5049 69.1311 78.5066 68.9528V55.7805H80.2525C80.4349 55.7805 80.6098 55.708 80.7388 55.5791C80.8677 55.4501 80.9401 55.2752 80.9401 55.0928V51.9862C80.9383 51.8957 80.9186 51.8065 80.8821 51.7236C80.8457 51.6408 80.7932 51.5659 80.7278 51.5034C80.6624 51.4409 80.5853 51.3919 80.5009 51.3592C80.4165 51.3265 80.3264 51.3109 80.236 51.3131Z" fill="#00BAF2"/>
<path d="M69.0943 51.228H65.9877C65.8051 51.2286 65.6302 51.3015 65.5013 51.4308C65.3724 51.5601 65.3 51.7352 65.3 51.9177V58.3589C65.2973 58.5504 65.2193 58.7332 65.0829 58.8677C64.9465 59.0022 64.7626 59.0776 64.571 59.0776H63.2662C63.0729 59.0765 62.8877 58.999 62.7512 58.8621C62.6147 58.7252 62.5377 58.5398 62.5372 58.3465L62.5248 51.926C62.5242 51.7435 62.4513 51.5686 62.322 51.4397C62.1928 51.3108 62.0176 51.2384 61.8351 51.2384H58.7284C58.5455 51.2384 58.3701 51.3111 58.2407 51.4404C58.1114 51.5697 58.0387 51.7452 58.0387 51.9281V58.974C58.0142 59.584 58.1163 60.1925 58.3386 60.7611C58.5609 61.3296 58.8986 61.846 59.3304 62.2776C59.7622 62.7092 60.2787 63.0466 60.8474 63.2687C61.416 63.4907 62.0245 63.5926 62.6345 63.5678C62.6345 63.5678 64.6476 63.5678 64.7056 63.5802C64.8979 63.5802 65.0823 63.6566 65.2182 63.7925C65.3542 63.9284 65.4305 64.1128 65.4305 64.3051C65.4305 64.4973 65.3542 64.6817 65.2182 64.8176C65.0823 64.9536 64.8979 65.03 64.7056 65.03H64.6539L60.0974 65.0465C59.9166 65.0471 59.7433 65.1185 59.6147 65.2456C59.4861 65.3726 59.4125 65.5451 59.4098 65.7259V68.8325C59.4104 69.0151 59.4833 69.19 59.6125 69.3189C59.7418 69.4478 59.9169 69.5201 60.0995 69.5201H65.1923C65.8023 69.545 66.4109 69.4431 66.9795 69.2211C67.5482 68.999 68.0647 68.6616 68.4965 68.23C68.9283 67.7984 69.266 67.282 69.4883 66.7135C69.7106 66.1449 69.8127 65.5364 69.7882 64.9264V51.9157C69.7879 51.8249 69.7697 51.7351 69.7347 51.6514C69.6996 51.5677 69.6484 51.4917 69.584 51.4278C69.5195 51.364 69.4431 51.3134 69.3591 51.2791C69.2751 51.2449 69.1851 51.2275 69.0943 51.228Z" fill="#002970"/>
<path d="M39.3466 51.2384H32.5389C32.3598 51.2384 32.188 51.3095 32.0614 51.4361C31.9348 51.5628 31.8637 51.7345 31.8637 51.9136V54.9664C31.8633 54.9698 31.8633 54.9733 31.8637 54.9767V68.8367C31.8578 69.0099 31.9193 69.1786 32.0351 69.3076C32.1509 69.4365 32.3121 69.5157 32.485 69.5284H35.6579C35.8409 69.5284 36.0163 69.4558 36.1456 69.3264C36.275 69.1971 36.3476 69.0217 36.3476 68.8387L36.3601 64.1042H39.3466C39.9097 64.1314 40.4724 64.0405 40.9983 63.8374C41.5243 63.6343 42.0019 63.3234 42.4006 62.9248C42.7993 62.5261 43.1101 62.0484 43.3132 61.5225C43.5163 60.9966 43.6072 60.4339 43.58 59.8708V55.4655C43.6057 54.9031 43.5137 54.3414 43.31 53.8165C43.1062 53.2916 42.7952 52.815 42.3968 52.4171C41.9983 52.0193 41.5212 51.7089 40.996 51.506C40.4708 51.303 39.909 51.2119 39.3466 51.2384ZM39.0732 56.9464V58.8684C39.0727 59.0617 38.9958 59.2471 38.8592 59.384C38.7227 59.5209 38.5376 59.5984 38.3442 59.5995H36.3642V55.7348H38.34C38.5331 55.7359 38.7179 55.813 38.8543 55.9495C38.9908 56.086 39.068 56.2708 39.0691 56.4638L39.0732 56.9464Z" fill="#002970"/>
<path d="M51.4345 51.2452H47.1121C46.9348 51.2396 46.7625 51.3044 46.6328 51.4255C46.5032 51.5466 46.4268 51.7141 46.4203 51.8914V53.1341C46.4208 53.1396 46.4208 53.1451 46.4203 53.1506V54.8075C46.4268 54.9956 46.5077 55.1734 46.6451 55.302C46.7826 55.4305 46.9654 55.4992 47.1535 55.4931H51.2688C51.4325 55.5142 51.5839 55.5913 51.6971 55.7114C51.8104 55.8315 51.8786 55.987 51.8902 56.1517V56.5514C51.8795 56.7111 51.8138 56.8622 51.7043 56.9788C51.5948 57.0955 51.4482 57.1707 51.2895 57.1914H49.2515C48.657 57.1471 48.0597 57.2263 47.4972 57.424C46.9347 57.6217 46.4192 57.9336 45.9831 58.3402C45.547 58.7467 45.1997 59.2391 44.9631 59.7863C44.7265 60.3335 44.6056 60.9238 44.6081 61.52V65.1445C44.5754 65.7221 44.6658 66.3 44.8735 66.84C45.0811 67.3799 45.4012 67.8695 45.8125 68.2763C46.2238 68.6831 46.717 68.9978 47.2592 69.1995C47.8014 69.4012 48.3803 69.4853 48.9574 69.4462H54.6075C55.0778 69.4618 55.5351 69.2903 55.8791 68.9692C56.2231 68.6481 56.4257 68.2037 56.4425 67.7334V55.928C56.4445 53.0533 54.9658 51.2452 51.4345 51.2452ZM51.9316 64.2477V64.7344C51.9309 64.7727 51.9268 64.8108 51.9191 64.8483C51.9119 64.8828 51.9022 64.9167 51.8902 64.9498C51.8383 65.0902 51.7445 65.2112 51.6215 65.2964C51.4985 65.3816 51.3522 65.4269 51.2025 65.4262H49.906C49.7179 65.4323 49.5351 65.3636 49.3976 65.235C49.2602 65.1065 49.1793 64.9287 49.1728 64.7406V62.0668C49.1804 61.8795 49.2617 61.7027 49.3991 61.5751C49.5364 61.4474 49.7186 61.3792 49.906 61.3854H51.2025C51.3906 61.3793 51.5735 61.448 51.7109 61.5765C51.8484 61.705 51.9292 61.8829 51.9357 62.0709L51.9316 64.2477Z" fill="#002970"/>
<path d="M31.9336 74.7043V85.568H34.1536V78.4712H34.2447L37.0569 85.5121H38.5748L41.4016 78.4961H41.4927V85.568H43.7106V74.7043H40.8776L37.8811 82.0041H37.7589L34.7748 74.7043H31.9336ZM45.4066 85.568H47.6659V77.4192H45.4066V85.568ZM46.5414 76.3693C46.8555 76.3788 47.1607 76.2638 47.3903 76.0493C47.62 75.8347 47.7555 75.5381 47.7674 75.2241C47.7544 74.9108 47.6184 74.6153 47.3889 74.4016C47.1594 74.188 46.8548 74.0735 46.5414 74.0831C46.2289 74.0747 45.9257 74.1897 45.6974 74.4033C45.4691 74.6168 45.3341 74.9117 45.3217 75.2241C45.333 75.5376 45.4678 75.8339 45.6967 76.0484C45.9256 76.2629 46.2299 76.3782 46.5435 76.3693H46.5414ZM51.5798 80.8568C51.5579 80.6436 51.5818 80.4281 51.6499 80.2248C51.7181 80.0215 51.829 79.8352 51.9751 79.6783C52.1212 79.5213 52.2992 79.3975 52.4971 79.3151C52.695 79.2326 52.9083 79.1934 53.1226 79.2002C53.3279 79.1906 53.5327 79.2263 53.7226 79.3049C53.9124 79.3835 54.0826 79.503 54.221 79.6548C54.3594 79.8067 54.4627 79.9872 54.5234 80.1835C54.5841 80.3798 54.6007 80.5871 54.5722 80.7906V85.5763H56.8315V80.3888C56.8775 79.9966 56.8385 79.5991 56.717 79.2234C56.5955 78.8476 56.3945 78.5025 56.1276 78.2114C55.8608 77.9204 55.5343 77.6903 55.1705 77.5368C54.8066 77.3833 54.414 77.31 54.0193 77.3219C53.5003 77.2874 52.9838 77.418 52.5437 77.6952C52.1036 77.9723 51.7625 78.3817 51.5695 78.8647H51.4742V77.4275H49.3205V85.5763H51.5798V80.8568ZM58.4592 85.568H60.7185V77.4192H58.4613L58.4592 85.568ZM59.594 76.3693C59.9081 76.3788 60.2133 76.2638 60.4429 76.0493C60.6726 75.8347 60.8081 75.5381 60.82 75.2241C60.807 74.9108 60.671 74.6153 60.4415 74.4016C60.212 74.188 59.9075 74.0735 59.594 74.0831C59.2815 74.0747 58.9783 74.1897 58.75 74.4033C58.5217 74.6168 58.3867 74.9117 58.3743 75.2241C58.3856 75.5376 58.5204 75.8339 58.7493 76.0484C58.9782 76.2629 59.2826 76.3782 59.5961 76.3693H59.594ZM67.602 85.568L68.4076 83.083H72.3277L73.1333 85.568H75.5955L71.8432 74.7043H68.8922L65.1419 85.568H67.602ZM68.9916 81.2979L70.3294 77.1873H70.4143L71.752 81.2979H68.9916ZM76.7097 88.6246H78.969V84.2634H79.0373C79.2328 84.7084 79.5584 85.0838 79.9713 85.3403C80.3841 85.5968 80.8649 85.7224 81.3505 85.7006C83.2142 85.7006 84.6638 84.2303 84.6638 81.505C84.6638 78.7031 83.1521 77.3136 81.365 77.3136C80.8742 77.2927 80.3889 77.4229 79.9746 77.6866C79.5602 77.9503 79.2367 78.3347 79.0477 78.7881H78.9462V77.4192H76.7117L76.7097 88.6246ZM78.9213 81.4947C78.9213 80.0451 79.5426 79.1132 80.6339 79.1132C81.7253 79.1132 82.3465 80.0844 82.3465 81.4947C82.3465 82.9049 81.7419 83.9031 80.6339 83.9031C79.526 83.9031 78.9234 82.9484 78.9234 81.4947H78.9213ZM86.0078 88.6246H88.2671V84.2634H88.3355C88.531 84.7084 88.8566 85.0838 89.2694 85.3403C89.6823 85.5968 90.1631 85.7224 90.6486 85.7006C92.5124 85.7006 93.962 84.2303 93.962 81.505C93.962 78.7031 92.4503 77.3136 90.6631 77.3136C90.1724 77.2927 89.6871 77.4229 89.2727 77.6866C88.8583 77.9503 88.5348 78.3347 88.3458 78.7881H88.2443V77.4192H86.0099L86.0078 88.6246ZM88.2195 81.4947C88.2195 80.0451 88.8408 79.1132 89.9321 79.1132C91.0234 79.1132 91.6447 80.0844 91.6447 81.4947C91.6447 82.9049 91.04 83.9031 89.9321 83.9031C88.8242 83.9031 88.2216 82.9484 88.2216 81.4947H88.2195ZM102.094 79.7448C101.887 78.2434 100.684 77.3157 98.6256 77.3157C96.5671 77.3157 95.1672 78.2807 95.1714 79.8504C95.1714 81.0701 95.9355 81.8612 97.5259 82.1801L98.9362 82.4618C99.6465 82.6046 99.9716 82.8656 99.9716 83.2735C99.9613 83.756 99.4353 84.1019 98.6463 84.1019C98.318 84.1495 97.9839 84.0724 97.7097 83.8857C97.4356 83.699 97.2414 83.4162 97.1656 83.0934L94.9436 83.2093C95.1507 84.7687 96.4822 85.7296 98.6401 85.7296C100.752 85.7296 102.264 84.6527 102.268 83.0375C102.268 81.8591 101.494 81.155 99.9136 80.8299L98.4392 80.5338C97.6812 80.3702 97.4037 80.1196 97.4037 79.7179C97.4037 79.2291 97.9505 78.9123 98.6463 78.9123C98.9501 78.8816 99.2549 78.9611 99.505 79.1364C99.7551 79.3116 99.934 79.5709 100.009 79.867L102.094 79.7448Z" fill="#231F20"/>
</g>
<defs>
<clipPath id="clip0">
<rect width="70.4091" height="70.4091" fill="white" transform="translate(31.875 31.875)"/>
</clipPath>
</defs>
</svg>
