<svg width="61" height="61" viewBox="0 0 61 61" fill="none" xmlns="http://www.w3.org/2000/svg">
<rect x="0.5" y="0.5" width="60" height="60" rx="7.81818" fill="white" stroke="#F6F6F6"/>
<path d="M40.591 16.2271H19.8946C15.6856 16.2271 12.2734 19.6392 12.2734 23.8482V38.1061C12.2734 42.3151 15.6856 45.7272 19.8946 45.7272H40.591C44.8 45.7272 48.2121 42.3151 48.2121 38.1061V23.8482C48.2121 19.6392 44.8 16.2271 40.591 16.2271Z" fill="white"/>
<path d="M32.4873 26.2773C33.7309 26.2773 34.9746 26.2773 36.2182 26.2773C36.8965 26.2773 37.0759 26.5108 36.8999 27.1711C36.6609 28.0662 36.415 28.9586 36.1614 29.851C36.1164 30.1213 35.9688 30.3637 35.7493 30.5277C35.5298 30.6916 35.2555 30.7644 34.9835 30.7309C33.0055 30.735 31.0275 30.7468 29.0494 30.7205C28.6372 30.7149 28.4758 30.8452 28.3857 31.2311C28.2153 31.9579 27.9866 32.6715 27.8023 33.3948C27.74 33.6422 27.6291 33.7371 27.3721 33.7149C27.1027 33.6959 26.8322 33.6959 26.5628 33.7149C26.3016 33.7288 26.2511 33.6082 26.3127 33.3872C26.673 32.0916 27.0388 30.7988 27.3873 29.5011C27.4601 29.2295 27.6409 29.2572 27.8356 29.2572C30.0083 29.2572 32.1817 29.2496 34.3531 29.2739C34.4272 29.2874 34.5034 29.2851 34.5766 29.2672C34.6498 29.2492 34.7184 29.216 34.7778 29.1697C34.8373 29.1233 34.8863 29.065 34.9216 28.9984C34.957 28.9318 34.9778 28.8585 34.9829 28.7833C35.2558 27.7171 35.2725 27.7212 34.1923 27.7212C32.2288 27.7212 30.2667 27.7171 28.3032 27.7268C27.9915 27.7268 27.8806 27.6886 27.9831 27.3339C28.2908 26.2829 28.2755 26.278 29.3875 26.278L32.4873 26.2773Z" fill="#605F5D"/>
<path d="M27.3017 26.2773C26.6539 28.608 26.0282 30.866 25.4005 33.1239C25.3631 33.3022 25.2614 33.4606 25.1149 33.5689C24.9684 33.6772 24.7873 33.7279 24.6058 33.7115C22.1484 33.7115 19.6916 33.7115 17.2341 33.7115C16.6583 33.7115 16.4498 33.426 16.6036 32.8683C17.1766 30.7939 17.7572 28.7231 18.326 26.6487C18.3987 26.3847 18.4985 26.2427 18.811 26.2718C19.165 26.3058 19.5239 26.2801 19.9237 26.2801C19.4512 27.9789 18.998 29.6341 18.5318 31.2852C18.2636 32.2385 18.2546 32.235 19.2246 32.235C20.7378 32.235 22.2509 32.2253 23.7641 32.2433C23.8246 32.2543 23.8868 32.2525 23.9466 32.2381C24.0065 32.2237 24.0627 32.197 24.1117 32.1598C24.1607 32.1225 24.2014 32.0754 24.2312 32.0216C24.2611 31.9678 24.2794 31.9083 24.2851 31.847C24.7555 30.1025 25.255 28.3655 25.7234 26.6196C25.7961 26.348 25.9042 26.2559 26.1765 26.2732C26.5298 26.294 26.8894 26.2773 27.3017 26.2773Z" fill="#605F5D"/>
<path d="M39.6963 26.2565L37.9476 32.5571C37.9392 32.5855 37.9288 32.6139 37.9198 32.643C37.6081 33.7342 37.6081 33.7301 36.4649 33.6677C36.2633 33.656 36.1628 33.6393 36.2335 33.3906C36.8801 31.0922 37.518 28.7923 38.1471 26.4907C38.1887 26.3438 38.2392 26.253 38.4111 26.2558C38.8254 26.2627 39.2418 26.2565 39.6963 26.2565Z" fill="#605F5D"/>
<path d="M40.5813 32.0957C40.0271 32.5287 39.5871 33.1024 38.8984 33.5721L40.9187 26.3015C41.2222 26.8627 41.4903 27.3595 41.7598 27.8555C41.9871 28.44 42.2612 29.0051 42.5795 29.5454C42.6253 29.6055 42.658 29.6745 42.6756 29.748C42.6932 29.8215 42.6952 29.8978 42.6815 29.9722C42.6678 30.0465 42.6387 30.1171 42.596 30.1795C42.5534 30.2419 42.4982 30.2947 42.434 30.3345C41.8 30.9033 41.1979 31.5068 40.5813 32.0957Z" fill="#E36119"/>
<path d="M40.5843 32.0958C41.2002 31.5062 41.8023 30.9027 42.4362 30.3346C42.5005 30.2948 42.5557 30.242 42.5983 30.1796C42.641 30.1172 42.67 30.0466 42.6838 29.9722C42.6975 29.8979 42.6955 29.8216 42.6779 29.7481C42.6603 29.6746 42.6276 29.6055 42.5818 29.5455C42.2635 29.0052 41.9894 28.4401 41.7621 27.8556L42.2471 26.2496C42.8707 27.4877 43.454 28.6559 44.0443 29.8198C44.075 29.8705 44.0849 29.9311 44.072 29.9889C44.0591 30.0467 44.0243 30.0973 43.975 30.1302C42.7663 31.2651 41.5582 32.4006 40.3508 33.5369C40.3328 33.5535 40.2961 33.5487 40.2227 33.5625L40.5843 32.0958Z" fill="#007234"/>
<path d="M12.7109 41.7052H47.2709C47.2709 42.5137 46.9497 43.2891 46.378 43.8608C45.8063 44.4325 45.0309 44.7537 44.2224 44.7537H15.7594C14.9509 44.7537 14.1755 44.4325 13.6038 43.8608C13.0321 43.2891 12.7109 42.5137 12.7109 41.7052V41.7052Z" fill="#E36119"/>
<path d="M41.775 46.578H18.4681C16.4882 46.5758 14.5901 45.7884 13.19 44.3884C11.79 42.9885 11.0024 41.0905 11 39.1106V22.4674C11.0024 20.4875 11.79 18.5894 13.19 17.1895C14.5901 15.7896 16.4882 15.0022 18.4681 15H41.7771C43.7569 15.002 45.6551 15.7894 47.0551 17.1894C48.455 18.5893 49.2424 20.4875 49.2444 22.4674V39.1113C49.2419 41.0913 48.454 42.9894 47.0537 44.3892C45.6534 45.789 43.755 46.5761 41.775 46.578ZM18.4681 16.9171C16.9965 16.9185 15.5856 17.5038 14.545 18.5443C13.5045 19.5849 12.9192 20.9958 12.9178 22.4674V39.1113C12.9192 40.5829 13.5045 41.9938 14.545 43.0343C15.5856 44.0749 16.9965 44.6601 18.4681 44.6616H41.775C43.2467 44.6601 44.6577 44.075 45.6985 43.0344C46.7393 41.9939 47.3248 40.583 47.3267 39.1113V22.4674C47.3252 20.9958 46.74 19.5849 45.6994 18.5443C44.6588 17.5038 43.248 16.9185 41.7764 16.9171H18.4681Z" fill="#20336B"/>
</svg>
